<?xml version="1.0" encoding="utf-8"?>
<!-- Generator: Adobe Illustrator 21.0.2, SVG Export Plug-In . SVG Version: 6.00 Build 0)  -->
<svg version="1.1" id="Layer_1" xmlns="http://www.w3.org/2000/svg" xmlns:xlink="http://www.w3.org/1999/xlink" x="0px" y="0px"
	 viewBox="0 0 156.5 182.5" style="enable-background:new 0 0 156.5 182.5;" xml:space="preserve">
<style type="text/css">
	.st0{fill:#FFFFFF;}
	.st1{fill:#C0C0C0;}
	.st2{fill:#BBBBBB;}
	.st3{fill:#BFBFBF;}
	.st4{fill:#B6B6B6;}
	.st5{fill:#B3B3B3;}
	.st6{fill:#BABABA;}
	.st7{fill:#B2B2B2;}
	.st8{fill:#A0A0A0;}
	.st9{fill:#C2C2C2;}
	.st10{fill:#CDCDCD;}
	.st11{fill:#BCBCBC;}
	.st12{fill:#B8B8B8;}
	.st13{fill:#B1B1B1;}
	.st14{fill:#B4B4B4;}
	.st15{fill:#A4A4A4;}
	.st16{fill:#B9B9B9;}
	.st17{fill:#A5A5A5;}
	.st18{fill:#969696;}
	.st19{fill:#A6A6A6;}
	.st20{fill:#B0B0B0;}
	.st21{fill:#ADADAD;}
	.st22{fill:#9E9E9E;}
	.st23{fill:#484848;}
	.st24{fill:#FDFDFD;}
	.st25{fill:#FCFCFC;}
	.st26{fill:#BDBDBD;}
	.st27{fill:#B7B7B7;}
	.st28{fill:#A3A3A3;}
	.st29{fill:#8F8F8F;}
	.st30{fill:#7D7D7D;}
	.st31{fill:#636363;}
	.st32{fill:#9A9A9A;}
	.st33{fill:#D5D5D5;}
	.st34{fill:#A2A2A2;}
	.st35{fill:#919191;}
	.st36{fill:#808080;}
	.st37{fill:#6B6B6B;}
	.st38{fill:#9B9B9B;}
	.st39{fill:#A7A7A7;}
	.st40{fill:#929292;}
	.st41{fill:#7E7E7E;}
	.st42{fill:#BEBEBE;}
	.st43{fill:#939393;}
	.st44{fill:#AFAFAF;}
</style>
<g>
	<path class="st0" d="M146.1,110c-0.9,0.4-1.9,0.6-2.9,0.8c-0.4,0-0.4,0.1-0.5,0.4c-0.4,1.9-0.8,3.7-1.3,5.5
		c-0.4,1.3-0.7,2.6-1.2,3.9c-0.4,1.2-0.8,2.4-1.2,3.5c-0.5,1.4-1.1,2.8-1.7,4.1c-0.7,1.6-1.4,3.2-2.2,4.8c-1,2-2.1,4-3.3,6
		c-1.1,1.9-2.4,3.7-3.6,5.5c-0.1,0.1-0.1,0.2-0.2,0.3c0,0-0.1,0.1-0.1,0.1c-0.2,0.4-0.5,0.7-0.8,1.1c-0.4,0.4-0.7,0.9-1.1,1.3
		c-0.3,0.4-0.7,0.8-1,1.3c-1.3,1.5-2.6,3.1-4.1,4.5c-0.1,0.1-0.1,0.2-0.2,0.3c-0.7,0.6-1.2,1.3-1.9,1.8c-2,1.8-4,3.3-6.2,4.9
		c-0.1,0.1-0.2,0-0.3,0h0c-0.1,1-0.3,0.4-0.4,0.5l0,0.1c-0.4,0.2-0.7,0.6-1.1,0.8c-1.4,0.9-2.7,1.8-4.1,2.6c-0.1,0-0.1,0.3-0.2,0.3
		c-0.2,0.1-0.5-0.4-0.7,0.6h0c-0.1,0-0.3-0.1-0.4,0c-1,0.6-2,1-3.1,1.5c-0.8,0.4-1.7,0.7-2.6,1c-0.4,0.1-0.6,0.3-0.6,0.7
		c-0.1,1.9-1,3.5-2.2,4.9c-1.5,1.8-3.3,3-5.3,4.1c-1.3,0.7-2.7,1.3-4.1,1.7c-0.9,0.3-1.8,0.5-2.7,0.7c-2.1,0.4-4.1,0.6-6.2,0.5
		c-1.5,0-3-0.2-4.5-0.5c-0.9-0.2-1.9-0.4-2.8-0.7c-1.7-0.5-3.4-1.2-5-2.2c-0.4-0.2-0.8-0.5-1.1-0.7c-0.3-0.1-0.4-0.3-0.7-0.4
		c-0.1-0.1-0.2-0.2-0.4-0.3l0,0c-0.2-0.1-0.4-0.3-0.6-0.5l0,0c-0.2-0.2-0.4-0.4-0.7-0.6c-0.7-0.7-1.3-1.3-1.8-2.1
		c-0.8-1.2-1.4-2.5-1.4-4c0-0.4-0.2-0.5-0.5-0.7c-0.5-0.2-0.9-0.4-1.4-0.6c-0.9-0.4-1.8-0.8-2.7-1.3c-1.5-0.8-3-1.6-4.4-2.5
		c-1.4-0.9-2.8-1.8-4.2-2.8c-1.5-1.1-3-2.2-4.4-3.5c-1.5-1.3-3-2.6-4.3-4.1c-2.2-2.2-4.2-4.6-6-7c-1.5-2-2.9-4-4.2-6.1
		c-0.1-0.2-0.2-0.4-0.3-0.6c-0.1-0.1-0.2-0.3-0.3-0.4l0,0c-0.1-0.2-0.2-0.3-0.3-0.5c-1.3-2.3-2.6-4.6-3.7-7
		c-0.3-0.6-0.5-1.1-0.8-1.7c-0.1-0.2-0.2-0.5-0.3-0.7c-0.6-1.5-1.3-3-1.8-4.5c-0.3-0.8-0.5-1.5-0.8-2.3c-0.4-1.3-0.8-2.5-1.2-3.8
		c-0.3-0.9-0.5-1.8-0.8-2.7c-0.3-1.3-0.6-2.5-0.9-3.8c-0.1-0.3-0.1-0.5-0.2-0.8c0-0.2-0.2-0.3-0.4-0.3c-0.4-0.1-0.8-0.3-1.3-0.4
		c-0.3-0.1-0.6-0.4-0.9-0.4h0c-0.3,0-0.5,0-0.8-0.1c-0.8-0.3-1.4-0.7-2.1-1.2c-0.3-0.3-0.7-0.5-1-0.8l0,0c-0.2-0.3-0.5-0.5-0.8-0.8
		c-0.9-1-1.7-2.1-2.3-3.2c-1.1-1.9-1.9-4-2.4-6.2c-0.4-1.4-0.6-2.8-0.7-4.3c-0.2-1.3-0.2-2.7-0.1-4c0.1-1.5,0.3-3,0.7-4.5
		c0.4-1.8,1-3.5,1.7-5.2c0.4-0.9,0.9-1.8,1.4-2.6c0.9-1.3,1.8-2.5,3-3.6c1.1-0.9,2.3-1.6,3.6-2c0.6-0.2,1.2-0.3,1.8-0.3
		c0.2,0,0.4-0.1,0.4-0.4c0.2-0.7,0.3-1.5,0.5-2.2c0.2-0.9,0.5-1.7,0.7-2.6c0.2-0.8,0.4-1.5,0.6-2.3c0.3-0.9,0.6-1.8,0.9-2.8
		c0.2-0.7,0.5-1.4,0.7-2.1c0.4-1,0.7-2.1,1.2-3.1c0.4-1,0.8-2,1.2-2.9c0.7-1.6,1.4-3.2,2.2-4.7c0.6-1.1,1.1-2.1,1.7-3.2
		c0.2-0.4,0.5-0.9,0.7-1.3c0.3-0.5,0.6-0.9,0.9-1.4l0,0c0.2-0.2,0.3-0.5,0.5-0.8c0.4-0.6,0.7-1.2,1.1-1.7c0.2-0.2,0.3-0.4,0.5-0.7
		c0.4-0.7,1-1.4,1.5-2.1c0.3-0.4,0.6-0.8,0.9-1.2c0.4-0.4,0.7-0.9,1-1.3c3.2-3.9,6.7-7.3,10.6-10.5c0.5-0.4,1-1,1.5-1h0
		c0.1,0,0.3-1,0.4-1h0c0.1,0,0.2,0,0.4-0.1c0.7-0.5,1.5-0.9,2.2-1.4c0.2-0.1,0.4-0.2,0.6-0.3c1.4-0.9,2.8-1.8,4.3-2.6
		c1.3-0.7,2.5-1.3,3.8-1.9c0.8-0.4,1.6-0.7,2.4-1c0.4-0.2,0.6-0.4,0.7-0.9c0.1-1.4,0.6-2.6,1.3-3.7c0.1-0.2,0.3-0.4,0.5-0.7
		c1.2-1.5,2.6-2.7,4.2-3.8c1.5-1,3.1-1.7,4.8-2.3c1-0.3,2-0.6,3-0.8C75,2.2,76.5,2,78,1.9c1.9-0.1,3.8,0,5.7,0.3
		c1.5,0.2,3,0.7,4.5,1.1c0.2,0.1,0.4,0.3,0.7,0.3c0.2,0.1,0.3,0.1,0.5,0.2c1.5,0.6,3,1.3,4.3,2.3c1.6,1.1,3.1,2.4,4.1,4.1
		c0.7,1.1,1.1,2.2,1.3,3.4c0,0.1,0,0.2,0,0.3c0,0.3,0.2,0.5,0.5,0.6c2.5,1,4.9,2.2,7.2,3.5c1.3,0.7,2.6,1.6,3.8,2.4
		c0.1,0.1,0.2,0.2,0.4,0.3l0,0c0.3,0.2,0.6,0.4,0.8,0.6c0.9,0.7,1.9,1.4,2.8,2.1c0.3,0.2,0.6,0.5,0.9,0.8l0,0
		c0.5,0.3,0.9,0.8,1.3,1.1c1.7,1.5,3.3,3,4.9,4.7c1.5,1.6,3,3.3,4.4,5.1c0.1,0.1,0.2,0.2,0.2,0.3c0.2,0.2,0.4,0.5,0.6,0.8
		c1.3,1.8,2.6,3.6,3.8,5.5c0.8,1.3,1.6,2.6,2.4,4c1,1.7,1.9,3.5,2.7,5.3c0.8,1.7,1.6,3.4,2.2,5.2c0.4,1.1,0.8,2.1,1.2,3.2
		c0.4,1.2,0.8,2.4,1.2,3.6c0.4,1.4,0.8,2.8,1.2,4.2c0.3,1.2,0.6,2.5,0.9,3.7c0.1,0.4,0.1,0.4,0.5,0.5c2,0.1,3.7,0.9,5.2,2.2
		c0.8,0.6,1.4,1.3,2,2.1c0.2,0.2,0.4,0.4,0.5,0.6c0.8,1.1,1.5,2.2,2.1,3.5c0.8,1.6,1.3,3.3,1.7,5c0.3,1.4,0.6,2.7,0.7,4.1
		c0.1,1.7,0.1,3.5,0,5.2c-0.2,1.5-0.4,2.9-0.9,4.4c-0.3,1-0.6,2-1,3c-0.5,1.4-1.2,2.6-2,3.9c-1.1,1.6-2.3,3.1-4,4.2l0,0
		C147,109.6,146.6,109.8,146.1,110z"/>
	<path class="st1" d="M147.4,109.3c0.3-0.4,0.7-0.6,1.1-0.9c0.9-0.8,1.7-1.7,2.4-2.6c0.2-0.2,0.3-0.5,0.5-0.6c0,0.1-0.1,0.2-0.1,0.3
		c-1,1.4-2.1,2.7-3.5,3.6C147.7,109.2,147.6,109.3,147.4,109.3z"/>
	<path class="st2" d="M118.8,155.1c0.6-0.7,1.2-1.3,1.9-1.8c-0.5,0.6-1.1,1.2-1.7,1.7C118.9,155.1,118.9,155.1,118.8,155.1z"/>
	<path class="st3" d="M45.1,22.6c0,0.1-0.1,0.1-0.1,0.2c-0.5,0.3-0.9,0.8-1.4,1C44,23.3,44.5,22.9,45.1,22.6z"/>
	<path class="st4" d="M33,34.5c-0.2,0.5-0.6,1-1,1.3C32.2,35.3,32.6,34.9,33,34.5z"/>
	<path class="st5" d="M117,25.3c-0.5-0.3-1-0.7-1.3-1.1C116.2,24.4,116.6,24.8,117,25.3z"/>
	<path class="st6" d="M125,148.6c0.3-0.5,0.6-0.9,1-1.3C125.8,147.8,125.4,148.2,125,148.6z"/>
	<path class="st7" d="M27.5,42.3c-0.2,0.5-0.5,1-0.9,1.4C26.8,43.2,27.1,42.8,27.5,42.3z"/>
	<path class="st7" d="M146.1,110c0.4-0.3,0.9-0.6,1.3-0.8C147.1,109.7,146.6,109.9,146.1,110z"/>
	<path class="st8" d="M9.8,107.9c0.4,0.2,0.8,0.5,1,0.9C10.4,108.6,10.1,108.3,9.8,107.9z"/>
	<path class="st9" d="M110.8,161.5c0.3-0.3,0.7-0.6,1.1-0.8C111.6,161.1,111.3,161.4,110.8,161.5z"/>
	<path class="st10" d="M127.1,146c0.2-0.4,0.5-0.7,0.8-1.1C127.7,145.4,127.5,145.7,127.1,146z"/>
	<path class="st5" d="M115.7,24.2c-0.4-0.2-0.7-0.4-0.9-0.8C115.1,23.5,115.4,23.8,115.7,24.2z"/>
	<path class="st8" d="M9,107.1c0.3,0.2,0.6,0.5,0.8,0.8C9.5,107.7,9.2,107.5,9,107.1z"/>
	<path class="st11" d="M127.1,36c-0.3-0.2-0.5-0.4-0.6-0.8C126.8,35.5,127,35.7,127.1,36z"/>
	<path class="st12" d="M112,21.3c-0.3-0.1-0.6-0.3-0.8-0.6C111.5,20.8,111.7,21,112,21.3z"/>
	<path class="st7" d="M28,41.6c-0.1,0.3-0.2,0.6-0.5,0.8C27.6,42,27.7,41.8,28,41.6z"/>
	<path class="st13" d="M63,174.3c0.3,0.1,0.5,0.3,0.7,0.6C63.3,174.7,63.1,174.5,63,174.3z"/>
	<path class="st14" d="M64.6,175.6c0.2,0.1,0.5,0.3,0.6,0.5c-0.3,0-0.5-0.3-0.8-0.5C64.5,175.5,64.6,175.5,64.6,175.6z"/>
	<path class="st15" d="M12.9,110.1c0.3,0,0.5,0.1,0.8,0.3C13.4,110.3,13.1,110.3,12.9,110.1z"/>
	<path class="st15" d="M13.7,110.3c0.3,0,0.6,0.1,0.9,0.3C14.3,110.6,13.9,110.6,13.7,110.3z"/>
	<path class="st16" d="M61.5,9.4c-0.1,0.3-0.2,0.5-0.5,0.7C61.1,9.8,61.3,9.5,61.5,9.4z"/>
	<path class="st17" d="M150.9,76.2c-0.2-0.2-0.4-0.4-0.5-0.6C150.6,75.7,150.8,75.9,150.9,76.2z"/>
	<path class="st13" d="M63.6,174.8c0.3,0.1,0.4,0.2,0.6,0.5C64,175.2,63.8,175.1,63.6,174.8z"/>
	<path class="st18" d="M105.8,164.6c0.1-0.3,0.4-0.3,0.7-0.4C106.3,164.4,106,164.5,105.8,164.6z"/>
	<path class="st19" d="M29.6,39.2c-0.1,0.3-0.2,0.5-0.5,0.7C29.2,39.6,29.3,39.3,29.6,39.2z"/>
	<path class="st20" d="M48.6,20.2c-0.1,0.2-0.3,0.3-0.6,0.4C48.2,20.3,48.4,20.2,48.6,20.2z"/>
	<path class="st4" d="M21.9,129c0.2,0.2,0.3,0.4,0.3,0.7C22,129.5,21.9,129.2,21.9,129z"/>
	<path class="st21" d="M26.6,138.3c0.2,0.1,0.3,0.3,0.3,0.5C26.7,138.7,26.7,138.5,26.6,138.3z"/>
	<path class="st22" d="M89.4,3.8c-0.2,0-0.4-0.1-0.5-0.2C89.1,3.6,89.3,3.6,89.4,3.8z"/>
	<path class="st3" d="M45.5,22.3c-0.1,0.2-0.2,0.3-0.4,0.3C45.2,22.5,45.3,22.4,45.5,22.3z"/>
	<path class="st13" d="M64.6,175.6c0,0-0.1,0-0.1,0c-0.1-0.1-0.2-0.2-0.3-0.3C64.4,175.3,64.5,175.5,64.6,175.6z"/>
	<path class="st18" d="M105.4,164.7c0.1-0.1,0.2-0.2,0.4-0.2C105.7,164.7,105.6,164.8,105.4,164.7z"/>
	<path class="st9" d="M112,160.7c0.1-0.2,0.2-0.2,0.4-0.3C112.3,160.6,112.1,160.7,112,160.7z"/>
	<path class="st12" d="M111.1,20.7c-0.2,0-0.3-0.1-0.4-0.3C110.9,20.5,111,20.6,111.1,20.7z"/>
	<path class="st3" d="M45.9,22.1c-0.1,0.2-0.2,0.3-0.4,0.3C45.6,22.2,45.7,22.1,45.9,22.1z"/>
	<path class="st21" d="M26.9,138.8c0.1,0.1,0.2,0.2,0.3,0.4C27,139.1,27,138.9,26.9,138.8z"/>
	<path class="st9" d="M112.3,160.5c0-0.1,0.2-0.2,0.3-0.2C112.6,160.4,112.5,160.4,112.3,160.5z"/>
	<path class="st10" d="M127.9,144.8c0-0.1,0.1-0.2,0.2-0.3C128.1,144.7,128,144.8,127.9,144.8z"/>
	<path d="M14.7,108.1c-0.8-0.2-1.5-0.6-2.2-1.1c-1.9-1.4-3.2-3.3-4.2-5.4c-0.6-1.1-1-2.3-1.4-3.5c0-0.1-0.1-0.3-0.1-0.4
		c-0.4-1.3-0.6-2.5-0.8-3.8c-0.1-1.1-0.3-2.1-0.2-3.2c0-0.9,0.1-1.7,0.2-2.6c0-0.4,0.1-0.8,0.2-1.2C6.5,85.2,7,83.6,7.6,82
		c0.6-1.7,1.5-3.2,2.6-4.6c1-1.4,2.3-2.5,3.9-3.2c0.2-0.1,0.4-0.1,0.6-0.2c0.4-0.1,0.7-0.1,1.1-0.2c0.2-0.1,0.3-0.1,0.5,0
		c1.3,0.2,2.5,0.5,3.5,1.3c1.1,0.8,2.2,1.6,3.3,2.4c0.9,0.6,1.9,1.2,2.9,1.8c1.1,0.6,2.3,1.2,3.5,1.7c0.7,0.3,1.4,0.6,2.1,0.8
		c0.7,0.3,1.5,0.6,2.3,0.7c0.3,0.1,0.5,0.2,0.8,0.3c1.2,0.3,2.3,0.6,3.5,0.9c0.8,0.2,1.7,0.3,2.5,0.5c0.8,0.2,1.6,0.2,2.4,0.4
		c0.4,0.1,0.9,0.1,1.3,0.2c1.2,0.3,2.5,0.3,3.7,0.4c1.2,0.1,2.5,0.4,3.7,0.4c0.4,0,0.9,0.2,1.3,0.2c0.9,0.1,1.8,0.2,2.7,0.3
		c0.6,0,1.3,0.1,1.9,0.2c0.7,0.1,1.5,0.2,2.3,0.2c0.7,0.1,1.3,0,2,0.2c0.3,0.1,0.7,0.1,1,0.1c0.9,0.1,1.7,0.2,2.5,0.3
		c0.6,0,1.2,0,1.8,0.2c0.1,0,0.2,0,0.3,0c0.9,0,1.8,0.2,2.7,0.2c1.3,0.1,2.5,0.3,3.7,0.4c0.4,0,0.8,0.1,1.2,0.1
		c0.4,0,0.4-0.1,0.4-0.4c-0.1-1.5-0.2-3-0.2-4.5c0-0.6-0.1-1.3-0.2-1.9c0-0.3,0-0.6-0.1-0.9c0-0.8-0.1-1.5-0.1-2.3
		c-0.1-0.9-0.1-1.8-0.1-2.7c0-0.3,0-0.7-0.1-1c0-0.2-0.1-0.4-0.1-0.6c-0.1-1.5-0.2-2.9-0.3-4.4c0-1-0.2-1.9-0.2-2.9
		c0-1.1-0.2-2.2-0.2-3.3c0-0.7,0-1.4-0.1-2c-0.1-0.4,0-0.9-0.2-1.3c0-0.1,0-0.2,0-0.3c0-0.9-0.1-1.9-0.2-2.8c0-0.7-0.2-1.4-0.1-2.2
		c0-0.3,0-0.5-0.1-0.8c0-0.1-0.1-0.2-0.1-0.3c0-0.7-0.1-1.4-0.1-2.1c0-1.1-0.2-2.1-0.3-3.2c0-0.7-0.2-1.4-0.2-2.2
		c-0.1-1-0.2-2.1-0.3-3.1c-0.1-1-0.2-2.1-0.3-3.1c-0.1-0.8-0.2-1.6-0.4-2.4c-0.1-0.4-0.1-0.7-0.1-1.1c-0.2-1.1-0.5-2.3-0.7-3.4
		c-0.2-0.9-0.4-1.8-0.7-2.6c-0.6-1.8-1.4-3.6-2.3-5.3c-1.1-2-2.5-3.8-3.9-5.7c-0.5-0.7-1-1.3-1.3-2.1c-0.4-1.1-0.6-2.2-0.3-3.3
		c0.4-1.5,1.3-2.7,2.4-3.8c1.5-1.5,3.3-2.5,5.2-3.3c1.4-0.6,2.9-1.1,4.5-1.4c0.5-0.1,1.1-0.2,1.6-0.3c1.3-0.2,2.6-0.3,3.9-0.3
		c1,0,2,0.1,3,0.3c1.3,0.2,2.6,0.5,3.9,0.9c1.4,0.4,2.8,1,4.1,1.7c0.9,0.5,1.9,1.1,2.7,1.8c0.7,0.6,1.3,1.2,1.8,1.9
		c0.9,1.1,1.5,2.4,1.5,3.9c0,1-0.3,2-0.8,2.9c-0.6,1.1-1.5,2-2.2,3c-1,1.4-2,2.8-2.8,4.2c-0.7,1.2-1.2,2.5-1.7,3.8
		c-0.4,0.9-0.6,1.9-0.9,2.8c-0.3,0.9-0.4,1.9-0.7,2.8c-0.3,1.2-0.4,2.5-0.7,3.7c-0.1,0.6-0.2,1.2-0.2,1.8c-0.1,0.6-0.1,1.2-0.2,1.7
		c0,0.1,0,0.3,0,0.4c0,0.7,0,1.5-0.1,2.2c-0.2,1-0.1,2.1-0.3,3.1c-0.2,1.3,0,2.5-0.3,3.8c-0.2,0.8-0.1,1.6-0.2,2.4
		c-0.1,1.2-0.3,2.3-0.2,3.5c0,0.3,0,0.6-0.1,0.9c0,0.1-0.1,0.2-0.1,0.3c0,0.7-0.1,1.5-0.1,2.2c0,0.6-0.1,1.3-0.1,1.9
		c-0.1,0.8-0.1,1.6-0.1,2.4c0,0.3,0,0.6-0.1,0.9c0,0.1-0.1,0.2-0.1,0.4c0,1.3-0.1,2.6-0.2,3.9c0,0.8,0,1.5-0.2,2.3
		c0,0.1,0,0.2,0,0.3c0,1.4-0.1,2.7-0.2,4.1c-0.1,1.1-0.1,2.2-0.2,3.3c-0.1,1.1-0.1,2.1-0.2,3.2c0,0.6-0.1,1.2-0.2,1.7
		c-0.1,0.9,0,1.7-0.2,2.6c-0.1,0.5,0,0.5,0.5,0.5c1.1-0.1,2.3-0.1,3.4-0.3c0.5-0.1,1.1-0.1,1.7-0.1c0.8-0.1,1.7-0.2,2.6-0.2
		c0.4,0,0.9-0.1,1.3-0.2c0.3,0,0.5-0.1,0.8-0.1c0.8,0.1,1.6-0.2,2.5-0.2c1-0.1,2.1-0.3,3.1-0.4c0.9-0.1,1.8-0.1,2.7-0.3
		c0.5-0.1,1-0.1,1.5-0.1c0.9-0.1,1.7-0.2,2.6-0.3c0.8-0.1,1.6-0.3,2.4-0.2c0.4,0,0.7-0.1,1.1-0.2c0.9-0.1,1.8-0.1,2.7-0.3
		c0.5-0.1,1-0.1,1.6-0.1c0.4,0,0.7-0.2,1-0.2c1.1-0.1,2.1-0.3,3.1-0.4c1.5-0.2,3.1-0.6,4.6-0.9c0.8-0.2,1.6-0.4,2.4-0.7
		c0.7-0.2,1.4-0.4,2.1-0.6c0.8-0.3,1.5-0.6,2.3-0.9c1.2-0.5,2.3-1,3.4-1.6c1-0.5,2-1.1,2.9-1.7c0.5-0.4,1.1-0.7,1.6-1.1
		c0.8-0.5,1.6-1.2,2.4-1.7c0.7-0.5,1.5-0.9,2.3-1c0.3,0,0.6-0.2,1-0.2c0.6,0.1,1.3,0.2,1.9,0.4c1.4,0.5,2.6,1.5,3.6,2.6
		c1.2,1.4,2.1,3,2.9,4.7c0.6,1.4,1,2.8,1.4,4.2c0.2,0.8,0.3,1.7,0.4,2.5c0.1,1.1,0.2,2.2,0.2,3.3c0,0.8,0,1.7-0.2,2.5
		c-0.1,0.4,0,0.9-0.1,1.4c-0.2,1-0.4,1.9-0.7,2.9c-0.5,1.6-1.1,3.1-1.9,4.5c-0.9,1.7-2.1,3.2-3.6,4.4c-0.9,0.7-1.9,1.2-3.1,1.3
		c-0.9,0.1-1.8,0-2.6-0.3c-0.9-0.3-1.6-0.9-2.3-1.4c-1.2-0.9-2.5-1.8-3.8-2.6c-1.1-0.7-2.3-1.3-3.5-1.9c-1.3-0.6-2.6-1.2-3.9-1.6
		c-0.9-0.3-1.8-0.7-2.8-0.9c-0.9-0.2-1.8-0.5-2.8-0.7c-0.7-0.1-1.5-0.4-2.2-0.5c-1.1-0.2-2.2-0.4-3.3-0.5c-0.6-0.1-1.2-0.2-1.8-0.3
		c-0.9-0.1-1.7-0.1-2.6-0.3c-1.2-0.2-2.5-0.3-3.8-0.4c-1.1-0.1-2.3-0.4-3.4-0.4c-0.5,0-1-0.2-1.6-0.2c-1.1-0.1-2.2-0.3-3.3-0.3
		c-0.8,0-1.5-0.2-2.3-0.3c-0.8-0.1-1.5-0.1-2.3-0.2c-0.7-0.1-1.4-0.2-2.1-0.2c-0.7,0-1.4-0.2-2.1-0.2c-0.7,0-1.4-0.1-2.1-0.2
		c-1.3-0.2-2.5-0.3-3.8-0.4c-0.5-0.1-1,0-1.6-0.2c-0.4-0.1-0.5,0-0.5,0.4c0.1,0.8,0.1,1.6,0.1,2.4c0.1,1.3,0.3,2.6,0.2,4
		c0,0.3,0,0.7,0.1,1c0,0.1,0.1,0.2,0.1,0.3c0,0.8,0.1,1.5,0.1,2.3c0,0.4,0,0.9,0.1,1.3c0.1,0.8,0,1.6,0.2,2.4c0,0.3,0,0.5,0,0.8
		c0,0.4,0,0.9,0.1,1.3c0.1,0.5,0.1,1.1,0.1,1.6c0.1,0.7,0.1,1.4,0.1,2c0.1,0.9,0.1,1.8,0.2,2.7c0,0.1,0,0.3,0,0.4
		c0.1,1.3,0.2,2.7,0.3,4c0.1,0.7,0,1.4,0.1,2c0.2,1.5,0.2,3.1,0.3,4.6c0.1,0.7,0.2,1.3,0.1,2c0,0.3,0,0.5,0.1,0.7
		c0,0.1,0,0.2,0.1,0.3c0,0.9,0.2,1.9,0.1,2.8c0,0.3,0,0.5,0.1,0.8c0,0.1,0.1,0.2,0.1,0.3c0,0.7,0.1,1.4,0.1,2.1c0,0.7,0.2,1.3,0.2,2
		c0,0.1,0,0.2,0,0.3c0,0.8,0.1,1.5,0.2,2.3c0.1,0.7,0.2,1.5,0.3,2.2c0.1,0.7,0.2,1.4,0.4,2.1c0.1,0.4,0.1,0.7,0.2,1.1
		c0.2,0.9,0.4,1.8,0.6,2.6c0.2,0.8,0.4,1.6,0.7,2.3c0.3,0.9,0.6,1.9,1,2.8c0.5,1.3,1.2,2.5,1.9,3.6c1,1.6,2,3,3.1,4.5
		c0.5,0.6,0.9,1.2,1.3,1.9c0.7,1.3,0.9,2.6,0.6,4c-0.2,0.9-0.6,1.7-1.2,2.4c-1.1,1.5-2.6,2.7-4.2,3.6c-0.7,0.4-1.5,0.8-2.3,1.1
		c-0.4,0.2-0.9,0.4-1.4,0.5c-1,0.3-1.9,0.7-2.9,0.8c-0.7,0.1-1.3,0.3-2,0.4c-0.9,0.1-1.7,0.2-2.6,0.2c-1.7,0-3.3,0-5-0.3
		c-0.7-0.2-1.4-0.2-2.1-0.5c-1.2-0.4-2.4-0.7-3.6-1.3c-2.1-1-4-2.2-5.6-3.9c-0.6-0.7-1.1-1.5-1.4-2.3c-0.3-0.9-0.5-1.8-0.3-2.8
		c0.2-1.2,0.7-2.2,1.5-3.1c1.3-1.6,2.5-3.3,3.6-5.1c1-1.6,1.8-3.3,2.5-5c0.5-1.3,0.9-2.6,1.2-4c0.2-0.8,0.3-1.6,0.5-2.4
		c0.1-0.6,0.2-1.3,0.3-1.9c0.1-0.7,0.2-1.4,0.4-2c0.1-0.4,0.1-0.8,0.1-1.3c0-0.8,0.2-1.5,0.2-2.3c0.1-1,0.2-2,0.3-3
		c0-0.8,0.2-1.5,0.2-2.3c0-0.9,0.2-1.8,0.2-2.7c0-0.9,0-1.8,0.2-2.6c0.2-1.2,0.2-2.4,0.3-3.6c0.1-0.8,0.2-1.5,0.1-2.3
		c0-0.3,0-0.5,0.1-0.8c0-0.1,0.1-0.2,0.1-0.3c0-0.7,0.1-1.4,0.1-2.1c0-0.7,0.1-1.5,0.2-2.2c0-0.4,0.1-0.9,0.1-1.3c0-1,0.2-2,0.2-2.9
		c0.1-1.3,0.1-2.6,0.2-3.9c0.1-0.9,0.2-1.9,0.2-2.8c0-1.3,0.2-2.6,0.3-3.9c0-0.6,0.1-1.2,0.1-1.8c0-1.1,0.3-2.1,0.2-3.2
		c-0.1-1,0.2-2,0.2-3c0-0.4-0.1-0.6-0.5-0.4c-0.3,0.1-0.6,0.1-0.9,0.1c-1,0-1.9,0.2-2.8,0.3c-0.1,0-0.1,0-0.2,0
		c-1.3,0-2.6,0.3-3.9,0.3c-0.5,0-1,0.2-1.5,0.2c-0.8,0.1-1.5,0.2-2.3,0.3c-0.8,0-1.5,0.2-2.3,0.2c-0.6,0-1.3,0.2-1.9,0.2
		c-0.6,0-1.3,0-1.9,0.1c-0.9,0.2-1.9,0.1-2.8,0.4c-0.1,0-0.3,0-0.4,0c-0.7,0-1.3,0-1.9,0.1c-1.2,0.2-2.4,0.3-3.5,0.4
		c-1.6,0.2-3.1,0.3-4.7,0.5c-1.2,0.1-2.4,0.3-3.6,0.6c-0.9,0.2-1.8,0.3-2.7,0.5c-1.1,0.2-2.2,0.5-3.3,0.8c-1.1,0.3-2.3,0.7-3.4,1.1
		c-1.3,0.5-2.6,1-3.8,1.6c-1.6,0.8-3.1,1.7-4.6,2.7c-1,0.7-2,1.4-3,2.2c-0.7,0.6-1.6,0.9-2.5,1.1c-0.6,0.2-1.3,0.1-1.9,0
		C15.1,108.2,14.9,108.2,14.7,108.1z"/>
	<path d="M85.8,84.7c0.1-1.3,0.1-2.6,0.3-3.8c0-0.1,0-0.2,0-0.3c-0.1-0.9,0-1.7,0.1-2.6c0.1-0.9,0.1-1.7,0.2-2.6
		c0.1-0.7,0-1.4,0.1-2c0.1-0.8,0.1-1.7,0.2-2.5c0-0.2,0-0.4,0-0.7c0-0.2,0-0.3,0-0.5c0.2-0.9,0.1-1.8,0.2-2.6c0-0.2,0-0.5,0.1-0.7
		c0.1-0.4,0.1-0.7,0.1-1.1c0.1-0.9,0-1.8,0.2-2.7c0.1-0.6,0-1.2,0.1-1.8c0.1-0.9,0-1.7,0.2-2.6c0-0.1,0-0.1,0-0.2
		c0-0.7,0.1-1.5,0.1-2.2c0-1,0.1-2,0.2-3c0.2-1.4,0.2-2.9,0.3-4.3c0.1-0.9,0.1-1.8,0.2-2.7c0.1-0.6,0.1-1.3,0.2-1.9
		c0.1-0.8,0.2-1.6,0.2-2.5c0-0.5,0.2-0.9,0.2-1.4c0.1-1,0.2-1.9,0.4-2.9c0.2-1,0.3-2,0.6-3c0.2-0.8,0.4-1.6,0.6-2.3
		c0.4-1.4,0.9-2.8,1.5-4.1c0.7-1.6,1.6-3.1,2.7-4.5c0.6-0.8,1.2-1.7,1.8-2.5c0.4-0.5,0.8-1,1.1-1.5c0.4-0.5,0.6-1.1,0.9-1.7
		c0.2-0.4,0.3-0.5,0.7-0.3c1.3,0.6,2.6,1.2,3.9,1.8c1.1,0.6,2.1,1.2,3.2,1.8c1.1,0.6,2.1,1.3,3.2,2c1.6,1,3.1,2.2,4.5,3.4
		c2,1.6,3.9,3.4,5.7,5.3c1.4,1.5,2.8,3,4,4.6c1.3,1.6,2.5,3.3,3.7,5c0.9,1.3,1.7,2.6,2.4,3.9c0.7,1.2,1.4,2.4,2,3.6
		c0.5,0.9,0.9,1.9,1.4,2.8c0.5,1.1,1,2.2,1.5,3.2c0.5,1.2,1,2.4,1.4,3.6c0.5,1.5,1.1,2.9,1.5,4.4c0.3,1,0.6,2.1,0.9,3.1
		c0.2,0.9,0.5,1.8,0.7,2.7c0,0.2,0.1,0.4,0.2,0.5c0.2,0.6,0.3,1.2,0.4,1.8c0,0.1,0,0.3,0.1,0.4c0.1,0.4,0.1,0.5-0.3,0.6
		c-0.4,0.2-0.9,0.4-1.3,0.6c-0.8,0.4-1.5,1-2.2,1.6c-1,0.7-2,1.4-3,2c-1.4,0.9-2.8,1.6-4.3,2.3c-1.1,0.5-2.2,0.9-3.3,1.3
		c-1.3,0.4-2.6,0.8-3.9,1.1c-0.6,0.2-1.3,0.3-2,0.4c-1,0.2-2,0.4-3,0.6c-0.3,0.1-0.6,0.1-0.8,0.1c-1.2,0.2-2.4,0.3-3.6,0.5
		c-0.6,0.1-1.2,0.1-1.8,0.1c-0.1,0-0.1,0-0.2,0c-0.8,0.3-1.7,0.2-2.6,0.3c-0.5,0.1-1,0.1-1.5,0.1c-0.5,0-1,0.2-1.5,0.2
		c-0.9,0.1-1.8,0.2-2.7,0.3c-0.5,0-1.1,0.1-1.6,0.2c-0.5,0.1-1,0.1-1.5,0.2c-0.8,0.1-1.5,0.1-2.3,0.2c-0.4,0-0.8,0.1-1.3,0.2
		c-0.3,0-0.7,0.1-1,0.1c-0.8,0-1.6,0.2-2.4,0.2c-0.2,0-0.5,0.1-0.7,0.1c-0.1,0-0.2,0-0.3,0c-0.6,0.2-1.2,0.1-1.8,0.2
		c-0.6,0.1-1.3,0-1.9,0.2c-0.4,0.1-0.8,0-1.2,0.1C85.9,85,85.8,84.9,85.8,84.7z"/>
	<path d="M73.1,97.9c-0.1,0.9-0.1,1.9-0.2,2.8c-0.1,0.9-0.2,1.9-0.2,2.8c0,0.7-0.1,1.5-0.2,2.2c-0.1,0.8-0.1,1.6-0.1,2.5
		c0,0.3,0,0.5-0.1,0.8c0,0.1-0.1,0.2-0.1,0.3c0,1.1-0.2,2.3-0.1,3.4c0,0.3,0,0.6-0.1,0.9c0,0.1-0.1,0.2-0.1,0.3
		c0,0.8-0.2,1.6-0.1,2.4c0,0.3,0,0.5-0.1,0.8c0,0.1-0.1,0.3-0.1,0.4c0,1.1,0,2.2-0.1,3.2c0,0.2,0,0.4-0.1,0.6
		c-0.1,0.4-0.1,0.8-0.1,1.2c0,0.7-0.1,1.4-0.2,2.1c-0.1,0.5,0,0.9-0.1,1.4c0,0.9-0.1,1.7-0.2,2.5c-0.1,0.8,0,1.7-0.2,2.6
		c0,0.2-0.1,0.3,0,0.5c0,0.9,0,1.8-0.2,2.7c-0.1,0.7-0.1,1.4-0.2,2c-0.1,0.4,0,0.9-0.1,1.3c-0.1,0.6-0.1,1.2-0.1,1.8
		c0,0.4-0.2,0.8-0.2,1.3c-0.1,1.1-0.2,2.3-0.4,3.4c-0.2,1.1-0.4,2.1-0.6,3.2c-0.3,1.5-0.7,3.1-1.2,4.5c-0.5,1.6-1.2,3.1-2,4.6
		c-1.1,1.9-2.4,3.7-3.8,5.4c-0.7,0.8-1.3,1.7-1.6,2.8c-0.1,0.4-0.3,0.5-0.7,0.3c-1.4-0.6-2.7-1.2-4-1.9c-1.5-0.8-3-1.6-4.4-2.5
		c-1.9-1.2-3.8-2.5-5.6-4c-1-0.8-2-1.6-3-2.5c-0.9-0.8-1.8-1.6-2.6-2.5c-1.2-1.2-2.4-2.4-3.4-3.7c-0.8-0.9-1.5-1.8-2.3-2.8
		c-0.9-1.2-1.9-2.5-2.7-3.8c-0.5-0.8-1.1-1.6-1.6-2.5c-1.2-2-2.4-4-3.5-6.1c-0.7-1.3-1.3-2.7-1.9-4c-0.8-1.8-1.5-3.6-2.2-5.5
		c-0.4-1.1-0.8-2.2-1.1-3.3c-0.4-1.4-0.8-2.8-1.2-4.1c-0.3-0.9-0.4-1.8-0.7-2.7c-0.2-0.7-0.3-1.5-0.5-2.2c-0.1-0.3,0-0.4,0.3-0.5
		c1.2-0.3,2.1-1,3.1-1.8c1.2-1,2.6-1.9,3.9-2.7c1-0.6,2.1-1.2,3.2-1.7c1.2-0.5,2.4-1,3.7-1.5c1.2-0.4,2.4-0.7,3.6-1.1
		c1.3-0.4,2.6-0.6,3.9-0.9c1-0.2,2-0.3,3-0.5c1.2-0.3,2.4-0.3,3.6-0.4c1-0.2,2.1-0.3,3.1-0.3c0.6,0,1.1-0.1,1.7-0.2
		c0.7-0.1,1.4-0.2,2.2-0.3c0.7,0,1.3-0.1,2-0.2c0.4-0.1,0.8-0.1,1.2-0.1c1-0.1,2-0.2,2.9-0.3c1.1-0.1,2.1-0.3,3.2-0.4
		c0.6-0.1,1.1-0.1,1.7-0.1c0.5,0,1-0.2,1.5-0.2c1-0.1,2-0.2,3-0.3c0.6-0.1,1.2-0.1,1.8-0.2c0.5-0.1,1.1-0.1,1.7-0.1
		c0.3,0,0.4,0.1,0.4,0.4C73.1,97.6,73.1,97.7,73.1,97.9z"/>
	<path d="M87.3,118.2c-0.2-0.9-0.1-1.8-0.3-2.6c-0.1-0.6-0.1-1.3-0.1-1.9c0-0.3,0-0.6-0.1-0.9c-0.1-0.3-0.1-0.7-0.1-1
		c0-0.8-0.1-1.6-0.2-2.5c0-0.5-0.1-1-0.1-1.6c0-0.7-0.1-1.4-0.1-2c0-0.5,0-1-0.1-1.4c0-0.1,0-0.1,0-0.2c0.1-0.8-0.1-1.7-0.1-2.5
		c0-0.6-0.1-1.3-0.1-1.9c0-0.2,0-0.4,0-0.7c0-0.4,0-0.9-0.1-1.3c-0.1-0.5,0-0.6,0.5-0.6c0.6,0.1,1.2,0,1.7,0.2
		c0.4,0.1,0.8,0.1,1.3,0.1c1,0,1.9,0.2,2.9,0.2c0.5,0,1.1,0.1,1.6,0.2c0.5,0.1,0.9,0.1,1.4,0.1c0.8,0.1,1.6,0.1,2.5,0.2
		c0.4,0.1,0.9,0.2,1.3,0.2c1,0.1,2,0.1,3,0.3c0.5,0.1,1.1,0.1,1.6,0.2c0.5,0.1,1,0.1,1.5,0.1c0.3,0,0.7,0.1,1,0.1
		c1.2,0.1,2.3,0.4,3.5,0.4c0.7,0,1.4,0.2,2.1,0.2c0.8,0,1.5,0.2,2.3,0.3c0.5,0,1,0.1,1.5,0.2c0.6,0.1,1.2,0.2,1.8,0.3
		c1,0.1,2,0.4,3,0.6c1.4,0.3,2.7,0.6,4.1,1.1c1.4,0.4,2.8,0.9,4.2,1.5c1.4,0.6,2.7,1.3,4.1,2c1.7,0.9,3.3,2.1,4.8,3.3
		c0.8,0.6,1.6,1.1,2.6,1.4c0.3,0.1,0.3,0.2,0.3,0.5c-0.3,0.9-0.4,1.8-0.7,2.8c-0.2,0.9-0.5,1.8-0.7,2.7c-0.2,0.7-0.4,1.3-0.6,2
		c-0.2,0.7-0.4,1.4-0.6,2.1c-0.4,1-0.7,2-1.1,2.9c-0.4,1-0.7,2-1.1,2.9c-0.7,1.7-1.5,3.3-2.2,5c-0.6,1.4-1.4,2.7-2.1,4
		c-0.3,0.7-0.7,1.3-1.1,1.9c-0.6,1-1.2,2.1-1.9,3.1c-0.7,1-1.4,2-2.1,3c-0.8,1.1-1.6,2.2-2.5,3.2c-0.7,0.9-1.5,1.7-2.2,2.6
		c-1,1.2-2.1,2.3-3.2,3.4c-1.2,1.2-2.5,2.3-3.9,3.4c-1.1,1-2.3,1.9-3.5,2.7c-1.4,1-2.8,1.9-4.3,2.8c-1.3,0.8-2.7,1.5-4.1,2.2
		c-1,0.5-2,0.9-3,1.4c-0.4,0.2-0.5,0.1-0.7-0.3c-0.4-1-1-2-1.7-2.9c-1.2-1.5-2.4-3-3.3-4.7c-1-1.7-1.8-3.4-2.5-5.3
		c-0.4-1.2-0.8-2.5-1-3.8c-0.1-0.6-0.3-1.2-0.4-1.9c-0.1-0.9-0.3-1.8-0.5-2.8c-0.1-0.5-0.1-1-0.2-1.6c-0.2-0.9-0.2-1.8-0.3-2.6
		c-0.1-0.4-0.1-0.8-0.1-1.2c0-0.8-0.2-1.5-0.2-2.3c-0.1-1.1-0.1-2.1-0.3-3.2c-0.1-0.5-0.1-1-0.1-1.6c0-0.8-0.2-1.6-0.2-2.5
		c0-0.7-0.1-1.3-0.2-2c0-0.5-0.1-1-0.1-1.5c0-0.8-0.2-1.7-0.2-2.5c-0.1-1-0.1-2-0.1-3C87.4,119.1,87.2,118.6,87.3,118.2z"/>
	<path d="M70.6,50.5c0,0.3,0,0.5,0,0.7c0,0.2,0.1,0.3,0.1,0.5c0,1.1,0.1,2.1,0.3,3.2c0.1,0.6,0.1,1.3,0.1,1.9c0,0.8,0.1,1.5,0.2,2.3
		c0,0.9,0.2,1.8,0.2,2.6c0,0.9,0,1.9,0.1,2.8c0.1,0.8,0.1,1.6,0.2,2.4c0,0.2,0,0.4,0,0.6c0,0.4,0,0.8,0.1,1.1c0,0.1,0,0.2,0,0.3
		c0,1,0,2.1,0.1,3.1c0,0.4,0,0.9,0.1,1.3c0,0.1,0,0.1,0,0.2c0,0.8,0.1,1.6,0.1,2.4c0,0.7,0.1,1.4,0.1,2.1c0,0,0,0.1,0,0.1
		c0,1,0.1,2,0.2,3c0.1,0.8,0,1.7,0.2,2.5c0.1,0.4,0,0.8,0.1,1.1c0,0.2-0.1,0.3-0.2,0.3c-0.5-0.1-1,0-1.6-0.2c-0.1,0-0.2-0.1-0.4-0.1
		c-0.8,0-1.6-0.1-2.4-0.1c-0.5-0.1-1.1-0.2-1.6-0.2c-0.9-0.1-1.7-0.3-2.6-0.3c-0.6,0-1.3-0.1-1.9-0.2c-0.5-0.1-0.9-0.1-1.4-0.1
		c-0.8-0.1-1.6-0.1-2.5-0.2c-0.3,0-0.6-0.2-0.9-0.2c-0.8-0.1-1.7-0.2-2.5-0.2c-0.4,0-0.7,0-1.1-0.1c-1.2-0.1-2.4-0.3-3.6-0.4
		c-0.6-0.1-1.3-0.1-1.9-0.2c-0.5-0.1-1-0.1-1.5-0.1c-0.8,0-1.6-0.2-2.4-0.3c-0.6,0-1.2-0.2-1.8-0.3c-0.6,0-1.2-0.2-1.8-0.3
		c-0.8-0.2-1.6-0.3-2.5-0.5c-1.4-0.3-2.9-0.7-4.3-1.1c-1.8-0.5-3.5-1.2-5.1-1.9c-1.6-0.7-3-1.6-4.5-2.5c-1.1-0.7-2.2-1.5-3.2-2.3
		c-0.7-0.6-1.6-1-2.4-1.4c-0.5-0.2-0.5-0.2-0.4-0.7c0.3-1.3,0.6-2.6,0.9-3.9c0.1-0.5,0.3-0.9,0.4-1.4c0.3-1.3,0.8-2.6,1.2-3.9
		c0.3-0.9,0.6-1.7,0.9-2.6c0.3-0.9,0.6-1.8,1-2.6c0.4-0.9,0.7-1.8,1.1-2.7c0.4-0.9,0.8-1.9,1.3-2.8c0.5-1.1,1.1-2.2,1.7-3.3
		c0.4-0.7,0.8-1.4,1.2-2.1c0.8-1.3,1.5-2.6,2.4-3.8c0.8-1.2,1.6-2.3,2.4-3.5c0.9-1.3,1.9-2.5,2.9-3.7c0.9-1.1,1.9-2.2,2.9-3.2
		c0.3-0.3,0.5-0.6,0.8-0.9c1.4-1.3,2.8-2.7,4.2-3.9c1.2-1,2.5-2,3.8-3c1.7-1.2,3.4-2.3,5.1-3.3c1.5-0.9,3.1-1.7,4.6-2.4
		c0.7-0.3,1.3-0.6,2-0.9c0.3-0.1,0.5,0,0.6,0.4c0.1,0.3,0.3,0.6,0.4,0.9c0.5,1,1.2,1.8,1.9,2.7c1.2,1.5,2.3,3.1,3.2,4.8
		c0.5,1,1.1,2,1.5,3.1c0.4,1.1,0.8,2.1,1,3.3c0.1,0.5,0.3,1,0.4,1.5c0.2,0.9,0.4,1.8,0.5,2.7c0.2,1.1,0.4,2.3,0.5,3.4
		c0.1,0.5,0.1,1,0.1,1.6c0.1,0.7,0.2,1.3,0.2,2c0,0.6,0.1,1.3,0.2,1.9c0.1,0.7,0,1.5,0.2,2.2c0.1,0.5,0.1,1,0.1,1.5
		C70.6,49.5,70.6,50,70.6,50.5z"/>
	<path class="st23" d="M14.7,108.1c0.8,0.1,1.6,0.1,2.5,0.1c-0.1,0.1-0.2,0.2-0.3,0.2C16.2,108.4,15.4,108.5,14.7,108.1z"/>
	<path class="st24" d="M105,67c-1,0-2.5,0-3.8,0c-0.1,0-0.3-0.1-0.4-0.1c-0.2,0-0.3-0.1-0.3-0.3c0-0.8,0-1.5,0-2.3
		c0-0.2,0.1-0.3,0.3-0.3c0.2,0,0.4,0,0.7,0c0.8,0,1.1-0.4,1.1-1.1c0-0.8,0-1.7,0-2.5c0-3.6,0-7.3,0-10.9c0-0.3,0-0.6,0-0.9
		c-0.1-0.5-0.3-0.8-0.8-0.9c-0.3-0.1-0.7-0.1-1-0.1c-0.2,0-0.3-0.1-0.3-0.3c0-0.7,0-1.5,0-2.2c0-0.2,0.1-0.3,0.3-0.3
		c0.1,0,0.2,0.1,0.3,0.1c5.6,0,11.3,0.1,16.9,0.1c0,0,0.1,0,0.1,0c0.5,0,0.5-0.1,0.5,0.4c0,1.7,0,3.3,0,5c0,0.5,0,0.5-0.5,0.5
		c-0.9,0-1.8,0-2.7,0c-0.4,0-0.4-0.1-0.5-0.4c0-0.3,0-0.6,0-0.9c-0.1-0.7-0.4-1-1.1-1c-0.1,0-0.2,0-0.3,0c-1.8,0-3.6,0-5.3,0
		c-0.1,0-0.2,0-0.3,0c-0.2,0-0.3,0.1-0.3,0.3c0,0.1,0,0.1,0,0.2c0,1.5,0,3,0,4.6c0,0.1,0,0.2,0,0.2c0,0.2,0.1,0.2,0.2,0.2
		c0.1,0,0.3,0,0.4,0c1.8,0,3.5,0,5.3,0c0.1,0,0.3,0,0.4,0c0.3,0,0.3,0.1,0.3,0.4c0,0.3-0.1,0.5-0.1,0.8c0,0.6,0,1.2,0,1.9
		c0,0.8,0.1,0.7-0.6,0.7c-1.7,0-3.4,0-5.1,0c-0.9,0-1-0.1-1,0.8c0,1.4-0.2,2.8-0.2,4.2c0,0,0,0.1,0,0.1c1,0.8,0.5,1.1,1.3,1.1
		c0.3,0,0.8,0,1.2,0c0.2,0,0.4,0.1,0.4,0.3c0,0.7,0,1.5,0,2.2c0,0.2-0.1,0.4-0.3,0.4c-0.1,0-0.3,0.1-0.4,0.1C107.9,67,107,67,105,67
		L105,67z"/>
	<path class="st25" d="M50.7,117.9c0.5-0.7,1.3-1.1,2.1-1.3c1.1-0.3,2.3-0.4,3.4-0.2c1.1,0.2,2.1,0.6,2.8,1.5
		c0.7,0.8,0.9,1.8,0.8,2.8c-0.1,1-0.4,1.9-1.1,2.5c-0.2,0.1-0.4,0.3-0.6,0.5l0,0c-0.1,0.1-0.2,0.3,0,0.4c0.1,0.1,0.3,0.1,0.4,0.2
		l0,0c0.1,0.1,0.2,0.2,0.4,0.3c0.9,0.7,1.2,1.7,1.3,2.8c0.1,1.1-0.2,2.1-0.8,3c-0.7,1.1-1.7,1.7-2.9,1.9c-1.2,0.2-2.4,0.2-3.6,0
		c-1.7-0.3-2.8-1.3-3.4-2.9c-0.4-1.3-0.4-2.6,0.3-3.9c0.2-0.3,0.4-0.6,0.6-0.8c0-0.1,0.1-0.1,0.1-0.2c0.1-0.1,0.3-0.2,0.4-0.3
		c0.6-0.4,0.6-0.3,0-0.8c-1.1-0.9-1.5-2.1-1.3-3.5c0-0.3,0.1-0.5,0.2-0.8C50.1,118.8,50.4,118.3,50.7,117.9z"/>
	<path class="st24" d="M42.7,117.7c0.3-0.2,0.6-0.5,0.8-0.9c0.1-0.2,0.3-0.3,0.5-0.3c0.4,0,0.8,0,1.1,0c0.4,0,0.6,0,0.6,0.4
		c0,0.1,0.2,0.3,0.2,0.4c0,3.8,0,7.7,0,11.5c0,0.1-0.2,0.2-0.2,0.3c0,0.6,0.1,0.8,0.7,0.8c0.4,0,0.8,0,1.2,0c0.3,0,0.3,0,0.3,0.4
		c0,0.5,0,0.9,0,1.4c0,0.3-0.1,0.3-0.4,0.3c-0.9,0-1.7,0-2.6,0c-1.6,0-3.2,0-4.8,0c-0.5,0-0.5,0-0.5-0.5c0-0.4,0-0.8,0-1.2
		c0-0.3,0.1-0.4,0.4-0.4c0.4,0,0.8,0,1.2,0c0.1,0,0.3,0,0.4,0c0.3-0.1,0.5-0.2,0.5-0.5c0-0.2,0.1-0.4,0.1-0.6c0-2.3,0-4.7,0-7
		c0-0.2,0-0.3,0-0.5c-0.1-0.5-0.3-0.6-0.8-0.6c-0.4,0-0.9,0.1-1.3,0.1c-0.1,0-0.3,0-0.4,0c-0.2,0-0.2-0.1-0.2-0.2c0-0.5,0-1,0-1.4
		c0-0.3,0.2-0.3,0.4-0.3c0.6-0.1,1.2-0.4,1.8-0.7c0.2-0.1,0.4-0.2,0.6-0.4C42.5,117.9,42.6,117.9,42.7,117.7z"/>
	<path class="st26" d="M50.7,117.9c-0.2,0.5-0.5,0.9-0.8,1.3C50,118.7,50.3,118.3,50.7,117.9z"/>
	<path class="st27" d="M58.5,124.3c-0.2,0-0.3-0.1-0.5-0.2c-0.2-0.2-0.2-0.2,0.1-0.4c0,0.1,0,0.2,0.1,0.3
		C58.3,124.1,58.4,124.2,58.5,124.3z"/>
	<path class="st28" d="M50.5,124.8c-0.2,0.3-0.4,0.6-0.6,0.8C50,125.2,50.1,124.9,50.5,124.8z"/>
	<path class="st27" d="M58.1,123.7c0.1-0.3,0.3-0.4,0.6-0.5C58.6,123.5,58.4,123.7,58.1,123.7z"/>
	<path class="st29" d="M51,124.3c0,0.2-0.2,0.3-0.4,0.3C50.7,124.5,50.8,124.3,51,124.3z"/>
	<path class="st27" d="M58.9,124.6c-0.2,0-0.3-0.1-0.4-0.3C58.7,124.3,58.8,124.5,58.9,124.6z"/>
	<path class="st30" d="M42.7,117.7c0,0.2-0.2,0.3-0.4,0.3C42.4,117.9,42.5,117.8,42.7,117.7z"/>
	<path class="st24" d="M107.8,123c-0.2,0.3-0.5,0.5-0.8,0.8c-0.2,0.1-0.2,0.2,0,0.3c0.5,0.3,0.9,0.6,1.3,1.1c0.4,0.6,0.7,1.3,0.7,2
		c0.1,1.6-0.2,3-1.4,4.1c-0.5,0.5-1.2,0.8-1.9,1c-1.4,0.4-2.9,0.3-4.3,0c-1.5-0.4-2.5-1.3-3-2.7c-0.3-0.9-0.4-1.7-0.2-2.7
		c0.2-0.8,0.5-1.5,1.1-2.1c0.2-0.2,0.5-0.4,0.7-0.5c0.4-0.2,0.4-0.2,0-0.5c-0.3-0.2-0.7-0.5-0.9-0.9c-0.5-0.6-0.6-1.4-0.6-2.1
		c0-1.1,0.3-2.1,1.1-2.9c0.6-0.6,1.3-1,2.1-1.2c0.8-0.2,1.6-0.3,2.4-0.3c0.9,0.1,1.8,0.2,2.6,0.7c1.2,0.7,1.8,1.8,1.9,3.2
		c0,0.8-0.1,1.6-0.6,2.3C108,122.7,107.9,122.8,107.8,123z"/>
	<path class="st25" d="M121.8,129.3c-0.3,0.6-0.6,1.2-1.1,1.7c-0.6,0.7-1.4,1.1-2.3,1.3c-1.1,0.3-2.2,0.3-3.3,0
		c-1.8-0.5-3-1.7-3.5-3.5c-0.6-2.1-0.6-4.2-0.3-6.3c0.2-1.3,0.6-2.5,1.3-3.6c0.8-1.2,1.8-2,3.2-2.3c1.7-0.4,3.3-0.2,4.9,0.3
		c0.2,0.1,0.4,0.2,0.6,0.3c0.2,0.1,0.2,0.2,0.2,0.4c0,0.8,0,1.6,0,2.3c0,0.2-0.1,0.3-0.3,0.3c-0.6,0-1.3,0-1.9,0
		c-0.2,0-0.3-0.1-0.4-0.4c-0.2-0.9-0.8-1.4-1.8-1.2c-1.1,0.1-1.7,0.8-2.1,1.8c-0.3,0.7-0.4,1.6-0.6,2.3c0,0.1,0,0.2,0.1,0.2
		c0.1,0,0.1,0,0.2-0.1c0.6-0.4,1.2-0.8,2-0.9c1.8-0.3,3.5,0.2,4.6,1.7c0.5,0.8,0.7,1.7,0.8,2.6c0,0.7,0,1.3-0.1,1.9
		C121.9,128.6,121.9,129,121.8,129.3z"/>
	<path class="st31" d="M121.8,129.3c0-0.3,0.1-0.7,0.3-1C122.1,128.7,122,129,121.8,129.3z"/>
	<path class="st32" d="M107.8,123c0-0.2,0.1-0.3,0.3-0.4C108,122.8,107.9,122.9,107.8,123z"/>
	<path class="st25" d="M57.1,55.4c0.4,0.2,0.7,0.3,1.1,0.6c0.2,0.1,0.3,0.3,0.5,0.4c0.6,0.4,1,1,1.3,1.6c0.6,1.3,0.6,2.7,0.4,4.1
		c-0.1,0.3-0.1,0.6-0.3,0.8c-0.2,0.9-0.8,1.5-1.3,2.2c-0.8,0.8-1.8,1.3-2.8,1.5c-0.7,0.2-1.3,0.2-2,0.2c-0.6,0.1-1.2,0.1-1.8,0.1
		c-3.5,0-6.9,0-10.4,0c-0.9,0-0.7-0.1-0.8-0.8c0-0.6,0-1.2,0-1.8c0-0.3,0-0.4,0.4-0.4c0.3,0,0.5,0,0.8,0c0.6,0,0.9-0.3,0.9-0.9
		c0-0.1,0-0.3,0-0.4c0-4.6,0-9.1,0-13.7c0-1-0.3-1.2-1.2-1.3c-0.2,0-0.3,0-0.5,0c-0.3,0-0.3,0-0.3-0.4c0-0.8,0-1.5,0-2.3
		c0.1-0.2,0.3-0.1,0.4-0.1c3.7,0,7.4,0,11.1,0c1,0,2,0.1,2.9,0.4c0.6,0.1,1,0.4,1.5,0.6c0.1,0.1,0.3,0.2,0.5,0.3
		c0.2,0.3,0.5,0.4,0.7,0.7c0.6,0.7,0.9,1.4,1,2.3c0.1,0.4,0.1,0.7,0.1,1.1c0,1.9-0.7,3.5-2.4,4.6c-0.1,0.1-0.3,0.1-0.3,0.3
		c0,0.2,0.2,0.2,0.4,0.2C56.9,55.3,57,55.3,57.1,55.4z"/>
	<path class="st33" d="M55.3,45.3c-0.3,0-0.5,0-0.8-0.1c-0.8-0.2-1.6-0.2-2.4-0.2c-3.5,0-7,0-10.5,0c-0.2,0-0.4,0-0.7,0.1
		c0-0.1,0-0.2,0.1-0.2c0.1,0,0.2,0,0.3,0c3.8,0,7.6,0,11.4,0c0.8,0,1.5,0.1,2.3,0.3C55.1,45.1,55.2,45.2,55.3,45.3z"/>
	<path class="st34" d="M58.7,65c0.1-0.3,0.3-0.4,0.5-0.6c0.4-0.5,0.6-1,0.9-1.5c0,0.6-0.4,1.1-0.8,1.6C59.1,64.7,58.9,64.9,58.7,65z
		"/>
	<path class="st35" d="M59.9,57.9c-0.2-0.2-0.3-0.4-0.4-0.6c-0.2-0.4-0.6-0.7-0.9-1c0,0,0-0.1,0-0.1C59.2,56.6,59.7,57.2,59.9,57.9z
		"/>
	<path class="st36" d="M57.1,55.4c-0.2,0-0.3,0-0.5-0.1c-0.1,0-0.2-0.1-0.2-0.2c0-0.1,0.1-0.2,0.2-0.2c0.1,0,0.2-0.1,0.3-0.1
		c0,0.1-0.2,0.1-0.2,0.3C56.7,55.2,57,55.2,57.1,55.4z"/>
	<path class="st11" d="M58.6,56.2c0,0,0,0.1,0,0.1c-0.2-0.1-0.4-0.2-0.5-0.4C58.3,55.9,58.5,56.1,58.6,56.2z"/>
	<path class="st37" d="M57.3,46.1c-0.2,0-0.4-0.1-0.5-0.3C57,45.9,57.2,46,57.3,46.1z"/>
	<path d="M53.4,125.7c0.7-0.5,1.5-0.6,2.3-0.3c0.5,0.2,0.9,0.6,1.1,1c0.4,1,0.4,1.9-0.1,2.8c-0.5,1-1.7,1.2-2.7,0.8
		c-0.9-0.4-1.3-1.1-1.4-2c0-0.6,0-1.3,0.3-1.8C53,126,53.2,125.8,53.4,125.7z"/>
	<path d="M53.2,119.4c0.6-1,2.3-1,2.9-0.3c0.5,0.5,0.7,1.2,0.6,1.9c0,0.4-0.1,0.8-0.3,1.1c-0.4,0.6-1.2,1-1.9,0.8
		c-0.2,0-0.4-0.1-0.6-0.2c-0.2-0.1-0.4-0.2-0.5-0.4c-0.3-0.3-0.5-0.7-0.5-1.1C52.8,120.6,52.8,119.9,53.2,119.4z"/>
	<path class="st38" d="M53.2,119.4c-0.2,0.6-0.3,1.2-0.3,1.9c0,0.1-0.1,0.1-0.1,0c-0.1-0.5,0-0.9,0.1-1.4
		C52.9,119.7,53,119.5,53.2,119.4z"/>
	<path class="st19" d="M52.8,121.3C52.8,121.3,52.9,121.3,52.8,121.3c0.2,0.4,0.3,0.7,0.6,1c0,0,0,0.1,0,0.1
		C53,122.1,52.8,121.7,52.8,121.3z"/>
	<path class="st39" d="M53.4,125.7c-0.1,0.2-0.3,0.4-0.5,0.6C53,126,53.1,125.8,53.4,125.7z"/>
	<path class="st40" d="M53.4,122.4c0,0,0-0.1,0-0.1c0.1,0.1,0.4,0.2,0.5,0.4C53.6,122.7,53.5,122.6,53.4,122.4z"/>
	<path d="M101.5,128.7c-0.3-0.8-0.2-2.3,0.7-3c0.6-0.5,1.3-0.6,2-0.4c1,0.3,1.5,1,1.5,2c0,0.5,0.1,1-0.1,1.5
		c-0.5,1.6-2.2,1.9-3.4,1.1c-0.1-0.1-0.1-0.1-0.2-0.2C101.7,129.3,101.6,129,101.5,128.7z"/>
	<path d="M105.5,120.7c-0.1,0.8-0.2,1.5-0.9,1.9c-1.2,0.8-2.9,0-3-1.4c-0.1-0.6-0.1-1.2,0.2-1.8c0.4-0.7,1.1-1,1.9-0.9
		c0.8,0.1,1.3,0.5,1.6,1.3C105.5,120.1,105.5,120.4,105.5,120.7z"/>
	<path class="st41" d="M101.5,128.7c0.2,0.3,0.3,0.6,0.5,0.9C101.7,129.4,101.5,129.1,101.5,128.7z"/>
	<path d="M114.7,128.7c-0.1-0.6-0.3-1.1-0.2-1.7c0.1-0.6,0.1-1.2,0.4-1.8c0.5-0.9,1.4-1.3,2.4-1c0.1,0,0.2,0,0.2,0
		c0.2,0.1,0.3,0.2,0.5,0.3c0.7,0.7,0.9,1.5,0.9,2.4c0,0.7,0,1.4-0.3,2c-0.2,0.5-0.6,0.9-1.1,1.2
		C116.1,130.5,115.3,130.2,114.7,128.7z"/>
	<path class="st42" d="M114.7,128.7c0.1,0.1,0.2,0.2,0.2,0.4c0.5,1,1.3,1.4,2.4,1.1c0.1,0,0.1,0,0.2,0c0.1,0,0.1,0,0.1,0
		c-1.4,0.5-2.5,0-2.9-1.1C114.7,128.9,114.7,128.8,114.7,128.7z"/>
	<path class="st43" d="M117.7,130.1c0,0-0.1,0-0.1,0c0.4-0.3,0.8-0.7,1.1-1.1C118.5,129.5,118.1,129.8,117.7,130.1z"/>
	<path class="st44" d="M118.1,124.6c-0.2,0-0.4-0.1-0.5-0.3C117.8,124.3,118,124.4,118.1,124.6z"/>
	<path d="M50.4,57.1c0.7,0,1.6-0.1,2.5,0.1c0.9,0.2,1.7,0.6,2.2,1.5c0.1,0.2,0.2,0.4,0.2,0.6c0.1,0.7,0.1,1.4-0.1,2.1
		c-0.3,0.9-0.9,1.5-1.8,1.8c-0.5,0.1-1,0.2-1.5,0.2c-1.2,0-2.4,0-3.7,0c-0.5,0-0.5,0-0.5-0.5c0-1.8,0-3.5,0-5.3c0-0.5,0-0.5,0.5-0.5
		C48.8,57.1,49.5,57.1,50.4,57.1z"/>
	<path d="M50,53.7c-1,0-1.2,0-1.7,0c-0.6,0-0.6,0-0.6-0.6c0-1.2,0-2.5,0-3.7c0-0.3,0-0.6,0-0.9c0-0.2,0.1-0.3,0.3-0.3
		c1.3,0,2.5,0,3.8,0c0.4,0,0.9,0.1,1.3,0.3c0.7,0.4,1,0.9,1.2,1.7c0.1,0.6,0,1.3-0.2,1.9c-0.2,0.7-0.7,1.1-1.3,1.4
		c-0.4,0.1-0.7,0.3-1.1,0.3C51.1,53.7,50,53.7,50,53.7L50,53.7z"/>
</g>
</svg>
