<?xml version="1.0" encoding="utf-8"?>
<!-- Generator: Adobe Illustrator 18.1.1, SVG Export Plug-In . SVG Version: 6.00 Build 0)  -->
<svg version="1.1" id="Layer_1" xmlns="http://www.w3.org/2000/svg" xmlns:xlink="http://www.w3.org/1999/xlink" x="0px" y="0px"
	 viewBox="0 0 595.3 841.9" enable-background="new 0 0 595.3 841.9" xml:space="preserve">
<g>
	<g>
		<path fill="#FFFFFF" d="M465.6,297.6L465.6,297.6c-2.1,2.1-4.3,2.1-6.4,2.1c-2.1,2.1-4.3,4.3-6.4,4.3c-4.3,2.1-8.5,4.3-12.8,6.4
			s-10.6,6.4-14.9,8.5s-8.5,4.3-12.8,6.4c-4.3,2.1-8.5,4.3-12.8,6.4s-8.5,4.3-12.8,6.4c-4.3,4.3-8.5,6.4-12.8,8.5
			c-4.3,2.1-8.5,4.3-12.8,6.4s-10.6,4.3-14.9,8.5c-4.3,2.1-6.4,4.3-10.6,4.3c-4.3,2.1-8.5,4.3-12.8,6.4c-4.3,2.1-8.5,4.3-12.8,6.4
			c-4.3,2.1-8.5,4.3-12.8,6.4c-4.3,2.1-10.6,4.3-14.9,8.5c-4.3,2.1-6.4,4.3-10.6,6.4c-4.3,2.1-8.5,4.3-10.6,6.4
			c-4.3,2.1-6.4,4.3-10.6,6.4c-2.1,2.1-6.4,2.1-8.5,4.3c-4.3,2.1-8.5,4.3-12.8,6.4c-4.3,2.1-6.4,4.3-10.6,4.3
			c-4.3,2.1-6.4,4.3-10.6,6.4s-8.5,4.3-14.9,6.4c-4.3,2.1-6.4,4.3-10.6,6.4c-4.3,2.1-8.5,4.3-12.8,6.4c0,0-4.3,2.1-8.5,6.4
			c-4.3,2.1-8.5,4.3-10.6,6.4c-4.3,2.1-8.5,4.3-12.8,6.4s-6.4,4.3-10.6,6.4c-4.3,2.1-8.5,4.3-12.8,6.4c0,0-2.1,0-2.1,2.1h-2.1
			c-2.1-2.1-4.3-2.1-6.4-4.3c-2.1-2.1-4.3-4.3-6.4-4.3c-4.3-4.3-10.6-6.4-14.9-10.6c-4.3-2.1-6.4-4.3-10.6-8.5
			c-4.3-2.1-6.4-4.3-10.6-6.4s-8.5-4.3-10.6-8.5c-8.5-6.4-12.8-10.6-17-12.8c-2.1,0-2.1-2.1-4.3-2.1c-2.1-2.1-2.1-4.3-2.1-6.4v-2.1
			c0-2.1,0-4.3,2.1-4.3c2.1-4.3,4.3-6.4,8.5-6.4c2.1-2.1,4.3-2.1,8.5-4.3c2.1,0,4.3-2.1,6.4-2.1c2.1,0,4.3-2.1,6.4-2.1
			s4.3-2.1,6.4-2.1s4.3-2.1,6.4-2.1s4.3-2.1,6.4-2.1s4.3-2.1,6.4-2.1c2.1-4.3,6.4-4.3,8.5-4.3c2.1,0,4.3-2.1,6.4-2.1
			c2.1,0,2.1,0,4.3-2.1c0,0,2.1-2.1,2.1-2.1c2.1,0,2.1,0,4.3-2.1c2.1,0,4.3-2.1,6.4-2.1c2.1,0,2.1,0,4.3-2.1c2.1,0,4.3-2.1,6.4-2.1
			s2.1,0,4.3-2.1c2.1,0,4.3-2.1,6.4-2.1c2.1,0,2.1,0,4.3-2.1c2.1,0,4.3-2.1,6.4-2.1c2.1,0,2.1,0,4.3-2.1c-4.3,4.3-2.1,4.3,0,2.1
			c2.1,0,2.1,0,4.3-2.1c2.1,0,4.3-2.1,6.4-2.1s2.1,0,4.3-2.1c0,2.1,2.1,2.1,2.1,0c2.1,0,2.1,0,4.3-2.1c2.1,0,4.3-2.1,6.4-2.1
			s2.1,0,4.3-2.1c2.1,0,4.3-2.1,6.4-2.1s2.1,0,4.3-2.1c2.1,0,4.3-2.1,6.4-2.1s2.1,0,4.3-2.1c-2.1,4.3,0,2.1,2.1,2.1s2.1,0,4.3-2.1
			c2.1,0,4.3-2.1,6.4-2.1s2.1,0,4.3-2.1c2.1,0,4.3-2.1,6.4-2.1s2.1,0,4.3-2.1c2.1,0,4.3-2.1,6.4-2.1s2.1,0,4.3-2.1
			c2.1,0,4.3-2.1,6.4-2.1s2.1,0,4.3-2.1c2.1,0,4.3-2.1,6.4-2.1s4.3-2.1,6.4-2.1c-4.3,2.1-2.1,2.1,0,2.1s4.3-2.1,6.4-2.1
			s4.3-2.1,6.4-2.1s2.1,0,4.3-2.1c2.1,0,4.3-2.1,6.4-2.1s4.3-2.1,6.4-2.1s4.3-2.1,6.4-2.1s4.3-2.1,6.4-2.1s4.3-2.1,6.4-2.1
			s2.1,0,4.3-2.1c2.1-2.1,4.3-2.1,6.4-2.1c2.1,0,2.1,0,4.3-2.1c2.1,0,4.3-2.1,6.4-2.1s2.1,0,4.3-2.1c2.1,0,4.3-2.1,6.4-2.1
			c2.1,0,4.3-2.1,8.5-2.1c2.1,0,4.3-2.1,6.4-2.1c2.1,0,4.3-2.1,6.4-2.1c2.1,0,4.3-2.1,6.4-2.1c2.1,0,4.3-2.1,6.4-2.1
			c-2.1,0,0-2.1,2.1-2.1s4.3-2.1,6.4-2.1c2.1,0,4.3-2.1,6.4-2.1c2.1,0,4.3-2.1,6.4-2.1c2.1,0,4.3-2.1,6.4-2.1c2.1,0,2.1,0,4.3-2.1
			c2.1,0,4.3-2.1,6.4-2.1c2.1,0,4.3-2.1,6.4-2.1c2.1,0,4.3-2.1,6.4-2.1c2.1,0,4.3-2.1,6.4-2.1c2.1-2.1,4.3-2.1,6.4-2.1
			s2.1,0,4.3-2.1c2.1,0,4.3-2.1,6.4-2.1c2.1,0,4.3-2.1,6.4-2.1c2.1,0,4.3-2.1,6.4-2.1c2.1,0,4.3-2.1,6.4-2.1c2.1,0,4.3-2.1,6.4-2.1
			c2.1,0,2.1,0,4.3-2.1c2.1,0,4.3-2.1,6.4-2.1c2.1,0,2.1,0,4.3-2.1c2.1,0,4.3-2.1,6.4-2.1c2.1,0,2.1,0,4.3-2.1
			c2.1,0,4.3-2.1,6.4-2.1s2.1,0,4.3-2.1c2.1,0,4.3-2.1,6.4-2.1s2.1,0,4.3-2.1c2.1,0,4.3-2.1,6.4-2.1s4.3-2.1,6.4-2.1
			s4.3-2.1,8.5-2.1c2.1,0,4.3-2.1,6.4-2.1s4.3-2.1,6.4-2.1s2.1,0,4.3-2.1c2.1,0,2.1,0,4.3,0c0,0,2.1,0,2.1,2.1v2.1
			c-2.1,4.3-4.3,6.4-4.3,10.6c-2.1,2.1-2.1,4.3-4.3,6.4c-2.1,4.3-4.3,6.4-6.4,10.6s-6.4,8.5-8.5,14.9c-2.1,4.3-4.3,8.5-8.5,12.8
			c-2.1,4.3-4.3,8.5-8.5,12.8c-2.1,2.1-2.1,4.3-4.3,6.4c-4.3,4.3-6.4,10.6-10.6,14.9c-2.1,4.3-6.4,8.5-8.5,12.8
			c-2.1,4.3-6.4,10.6-8.5,14.9c-2.1,2.1-2.1,4.3-4.3,8.5s-4.3,6.4-6.4,10.6c-2.1,4.3-6.4,8.5-8.5,14.9c-2.1,4.3-4.3,8.5-8.5,12.8
			c-2.1,4.3-4.3,8.5-6.4,12.8c-4.3,6.4-6.4,10.6-10.6,17c-2.1,4.3-6.4,8.5-8.5,12.8c-2.1,4.3-4.3,6.4-6.4,10.6
			c-2.1,4.3-6.4,8.5-8.5,14.9c-2.1,4.3-4.3,8.5-6.4,12.8c-2.1,4.3-6.4,10.6-8.5,14.9c-2.1,4.3-6.4,8.5-8.5,14.9
			c-2.1,4.3-4.3,6.4-6.4,10.6c-2.1,4.3-6.4,10.6-8.5,14.9c-4.3,6.4-6.4,10.6-10.6,17c-2.1,4.3-4.3,8.5-8.5,12.8
			c-2.1,4.3-4.3,8.5-8.5,12.8c-2.1,4.3-6.4,10.6-8.5,14.9c-2.1,4.3-6.4,8.5-8.5,14.9c-2.1,4.3-4.3,8.5-8.5,12.8
			c-2.1,2.1-4.3,6.4-6.4,8.5c-2.1,2.1-2.1,4.3-4.3,6.4c-6.4,0-8.5,2.1-12.8,2.1c-2.1,0-6.4,0-8.5-2.1c-4.3-2.1-6.4-4.3-10.6-6.4
			c-4.3-2.1-8.5-6.4-12.8-8.5c-4.3-2.1-6.4-4.3-10.6-6.4c-4.3-2.1-6.4-4.3-10.6-6.4c-4.3-2.1-8.5-4.3-10.6-8.5
			c-2.1-2.1-6.4-4.3-8.5-6.4h-2.1c-2.1,2.1-4.3,2.1-6.4,4.3c-2.1,2.1-4.3,2.1-6.4,4.3c-4.3,2.1-6.4,4.3-10.6,6.4
			c-2.1,2.1-4.3,4.3-8.5,4.3c-4.3,2.1-8.5,6.4-12.8,8.5c-2.1,2.1-6.4,4.3-8.5,6.4c-2.1,2.1-6.4,4.3-8.5,6.4
			c-2.1,2.1-4.3,2.1-6.4,2.1h-2.1c-2.1,0-2.1,0-2.1-2.1c-2.1-2.1-2.1-2.1-2.1-4.3c-2.1-12.8,0-23.4,0-36.1c0-19.1,0-38.3,0-55.3
			c0-2.1,0-2.1,2.1-2.1c-2.1-2.1,2.1-4.3,6.4-6.4c4.3-2.1,6.4-4.3,10.6-8.5c2.1-2.1,4.3-4.3,8.5-6.4c2.1-2.1,4.3-2.1,4.3-4.3
			c0,0,2.1,0,4.3-2.1c4.3-2.1,6.4-4.3,10.6-6.4c4.3-2.1,8.5-6.4,12.8-8.5c2.1-2.1,4.3-4.3,8.5-6.4s8.5-6.4,12.8-8.5
			c6.4-4.3,12.8-8.5,17-12.8c4.3-4.3,8.5-6.4,14.9-10.6c4.3-2.1,8.5-6.4,12.8-8.5c4.3-2.1,8.5-6.4,12.8-8.5c2.1-2.1,4.3-4.3,8.5-6.4
			c2.1-2.1,4.3-4.3,8.5-6.4c2.1-2.1,4.3-4.3,8.5-6.4c4.3-2.1,6.4-4.3,10.6-8.5c-4.3-2.1,0-4.3,2.1-6.4c4.3-2.1,8.5-6.4,12.8-8.5
			c2.1-2.1,4.3-4.3,8.5-6.4c4.3-2.1,6.4-6.4,10.6-8.5s8.5-6.4,12.8-8.5c2.1-2.1,4.3-4.3,8.5-6.4c0-2.1,2.1-4.3,4.3-4.3
			c2.1-2.1,4.3-4.3,8.5-6.4c2.1-2.1,4.3-4.3,8.5-6.4c4.3-2.1,6.4-4.3,10.6-8.5c2.1-2.1,4.3-2.1,6.4-4.3c2.1-2.1,4.3-4.3,6.4-4.3
			c4.3-2.1,6.4-4.3,10.6-8.5C457.1,306.1,461.3,301.9,465.6,297.6C465.6,299.8,465.6,299.8,465.6,297.6L465.6,297.6L465.6,297.6z"/>
		<path fill="#FFFFFF" d="M465.6,297.6L465.6,297.6L465.6,297.6L465.6,297.6z"/>
	</g>
</g>
</svg>
