<?xml version="1.0" encoding="utf-8"?>
<!-- Generator: Adobe Illustrator 20.0.0, SVG Export Plug-In . SVG Version: 6.00 Build 0)  -->
<svg version="1.1" id="Layer_1" xmlns="http://www.w3.org/2000/svg" xmlns:xlink="http://www.w3.org/1999/xlink" x="0px" y="0px"
	 viewBox="0 0 132.2 36.5" style="enable-background:new 0 0 132.2 36.5;" xml:space="preserve">
<style type="text/css">
	.st0{fill:none;stroke:#000000;stroke-width:0.5;}
	.st1{fill:none;}
</style>
<g>
	<path d="M5.1,15.2V6.3h3.4c1.4,0,2.5,0.4,3.3,1.3c0.8,0.9,1.2,1.9,1.2,3.1c0,1.3-0.4,2.3-1.1,3.2c-0.8,0.9-1.7,1.3-2.9,1.3H5.1z
		 M6.4,14.2h2c1.1,0,1.9-0.3,2.4-1c0.6-0.7,0.8-1.5,0.8-2.6c0-0.9-0.3-1.7-0.8-2.4c-0.5-0.7-1.4-1-2.5-1h-2
		C6.4,7.2,6.4,14.2,6.4,14.2z"/>
	<path d="M21.4,15.2h-1.1c0-0.2-0.1-0.6-0.1-1.2c-0.5,0.9-1.4,1.4-2.6,1.4c-0.8,0-1.5-0.2-1.9-0.6c-0.4-0.4-0.7-0.9-0.7-1.4
		c0-0.7,0.3-1.2,1-1.6c0.6-0.4,1.7-0.6,3.2-0.6c0.2,0,0.5,0,1,0c0-0.5,0-0.9-0.1-1.1c-0.1-0.2-0.3-0.4-0.6-0.6
		c-0.3-0.1-0.7-0.2-1.2-0.2c-1.2,0-1.8,0.4-2,1.2l-1.1-0.2c0.3-1.2,1.3-1.8,3.3-1.8c1,0,1.7,0.2,2.2,0.6c0.4,0.4,0.6,1.1,0.6,2.1
		v2.8C21.3,14.3,21.3,14.8,21.4,15.2z M20.1,11.9c-0.5,0-0.8,0-1.1,0c-0.9,0-1.6,0.1-2.1,0.4c-0.5,0.3-0.8,0.7-0.8,1.2
		c0,0.3,0.1,0.6,0.4,0.8c0.3,0.2,0.7,0.3,1.2,0.3c0.7,0,1.3-0.2,1.7-0.7c0.4-0.4,0.7-1,0.7-1.6C20.2,12.2,20.2,12,20.1,11.9z"/>
	<path d="M29.6,15.2h-1.1v-4.2c0-0.6-0.1-1-0.4-1.3c-0.3-0.2-0.7-0.4-1.1-0.4c-0.6,0-1.1,0.2-1.5,0.6c-0.4,0.4-0.6,1-0.6,1.6v3.6
		h-1.1V8.6h1.1v1.2c0.6-0.9,1.4-1.4,2.3-1.4c0.6,0,1,0.1,1.4,0.4C29,9,29.3,9.3,29.4,9.6c0.1,0.3,0.2,0.9,0.2,1.7
		C29.6,11.4,29.6,15.2,29.6,15.2z"/>
	<path d="M31.7,13.5l1.1-0.2c0.2,0.8,1,1.2,2.3,1.2c0.5,0,0.9-0.1,1.2-0.3c0.3-0.2,0.5-0.5,0.5-0.8c0-0.5-0.4-0.8-1.3-1L34,12.2
		c-0.6-0.1-1.1-0.3-1.5-0.6c-0.4-0.3-0.5-0.7-0.5-1.2c0-0.6,0.2-1,0.7-1.4c0.5-0.4,1.2-0.6,2-0.6c1.6,0,2.6,0.6,3,1.7l-1.1,0.2
		c-0.3-0.7-0.9-1-1.9-1c-0.5,0-0.9,0.1-1.2,0.3c-0.3,0.2-0.5,0.4-0.5,0.7c0,0.5,0.4,0.8,1.2,0.9l1.4,0.2c1.5,0.2,2.3,0.9,2.3,1.9
		c0,0.6-0.3,1.1-0.8,1.5c-0.6,0.4-1.3,0.6-2.2,0.6C33.2,15.3,32.1,14.7,31.7,13.5z"/>
	<path d="M46.2,15.2H45l-2.2-3.7l-1.6,1.6v2h-1.1V6.3h1.1V12l3.4-3.4h1.2l-2.3,2.3L46.2,15.2z"/>
	<path d="M52.8,13.2l1.1,0.2c-0.2,0.6-0.6,1-1.1,1.4c-0.6,0.4-1.2,0.6-2,0.6c-1,0-1.8-0.3-2.5-0.9c-0.6-0.6-0.9-1.5-0.9-2.5
		c0-1,0.3-1.9,1-2.5c0.6-0.6,1.5-1,2.4-1c1,0,1.7,0.3,2.3,0.9c0.6,0.6,0.9,1.5,0.9,2.7h-5.4c0,1,0.2,1.7,0.7,2
		c0.5,0.3,1,0.5,1.5,0.5C51.7,14.5,52.4,14.1,52.8,13.2z M52.7,11.2c0-0.4-0.1-0.7-0.2-1c-0.1-0.3-0.3-0.5-0.6-0.7
		c-0.3-0.2-0.7-0.3-1.1-0.3c-0.6,0-1.1,0.2-1.5,0.5c-0.4,0.4-0.6,0.9-0.7,1.5C48.6,11.2,52.7,11.2,52.7,11.2z"/>
	<path d="M62.6,15.2h-1.3V6.3h6.1v1h-4.9v2.8h4V11h-4C62.6,11,62.6,15.2,62.6,15.2z"/>
	<path d="M71.5,15.3c-1,0-1.8-0.3-2.4-1c-0.6-0.7-0.9-1.5-0.9-2.5c0-1,0.3-1.9,1-2.5c0.6-0.6,1.4-0.9,2.4-0.9c1,0,1.8,0.3,2.4,1
		c0.6,0.7,0.9,1.5,0.9,2.5c0,1-0.3,1.9-1,2.5C73.3,15,72.5,15.3,71.5,15.3z M71.6,14.5c0.6,0,1.1-0.2,1.5-0.6c0.4-0.4,0.6-1.1,0.6-2
		c0-0.9-0.2-1.6-0.6-2c-0.4-0.4-0.9-0.6-1.5-0.6c-0.6,0-1.1,0.2-1.5,0.6c-0.4,0.4-0.6,1.1-0.6,2c0,0.9,0.2,1.6,0.6,2
		C70.5,14.3,71,14.5,71.6,14.5z"/>
	<path d="M78.2,15.2H77V8.6h1v1.5c0.4-0.7,0.7-1.2,1.1-1.4c0.4-0.2,0.7-0.3,1.1-0.3c0.1,0,0.3,0,0.5,0v1h-0.2
		c-0.6,0-1.2,0.2-1.6,0.6c-0.4,0.4-0.6,1-0.7,1.7C78.2,11.7,78.2,15.2,78.2,15.2z"/>
	<path d="M82.2,13.5l1.1-0.2c0.2,0.8,1,1.2,2.3,1.2c0.5,0,0.9-0.1,1.2-0.3c0.3-0.2,0.5-0.5,0.5-0.8c0-0.5-0.4-0.8-1.3-1l-1.6-0.3
		c-0.6-0.1-1.1-0.3-1.5-0.6c-0.4-0.3-0.5-0.7-0.5-1.2c0-0.6,0.2-1,0.7-1.4c0.5-0.4,1.2-0.6,2-0.6c1.6,0,2.6,0.6,3,1.7l-1.1,0.2
		c-0.3-0.7-0.9-1-1.9-1c-0.5,0-0.9,0.1-1.2,0.3c-0.3,0.2-0.5,0.4-0.5,0.7c0,0.5,0.4,0.8,1.2,0.9l1.4,0.2c1.5,0.2,2.3,0.9,2.3,1.9
		c0,0.6-0.3,1.1-0.8,1.5c-0.6,0.4-1.3,0.6-2.2,0.6C83.7,15.3,82.6,14.7,82.2,13.5z"/>
	<path d="M91.9,6.3v1.1h-1.2V6.3H91.9z M91.8,8.6v6.6h-1.1V8.6H91.8z"/>
	<path d="M100.4,15.2h-1.2L97,11.5l-1.6,1.6v2h-1.1V6.3h1.1V12l3.4-3.4h1.2l-2.3,2.3L100.4,15.2z"/>
	<path d="M103.6,15.2h-1.1V8.6h1v1.5c0.4-0.7,0.7-1.2,1.1-1.4c0.4-0.2,0.7-0.3,1.1-0.3c0.1,0,0.3,0,0.5,0v1h-0.2
		c-0.6,0-1.2,0.2-1.6,0.6c-0.4,0.4-0.6,1-0.7,1.7V15.2z"/>
	<path d="M109.6,6.3v1.1h-1.2V6.3H109.6z M109.6,8.6v6.6h-1.1V8.6H109.6z"/>
	<path d="M118.2,15.2h-1.1v-4.2c0-0.6-0.1-1-0.4-1.3c-0.3-0.2-0.7-0.4-1.1-0.4c-0.6,0-1.1,0.2-1.5,0.6c-0.4,0.4-0.6,1-0.6,1.6v3.6
		h-1.1V8.6h1.1v1.2c0.6-0.9,1.4-1.4,2.3-1.4c0.6,0,1,0.1,1.4,0.4c0.4,0.3,0.7,0.5,0.8,0.9c0.1,0.3,0.2,0.9,0.2,1.7
		C118.2,11.4,118.2,15.2,118.2,15.2z"/>
	<path d="M127,7.6v0.8c-0.5,0-0.9,0.1-1.1,0.2c-0.2,0.1-0.3,0.3-0.4,0.6c0.5,0.5,0.7,1,0.7,1.6c0,0.6-0.3,1.1-0.8,1.5
		c-0.5,0.4-1.2,0.6-2.1,0.6c-0.2,0-0.4,0-0.5,0c-0.3,0-0.4-0.1-0.5-0.1c-0.1,0-0.3,0.1-0.5,0.2c-0.2,0.1-0.3,0.3-0.3,0.4
		c0,0.3,0.1,0.4,0.4,0.5c0.3,0.1,0.9,0.1,1.9,0.1c0.8,0,1.5,0.1,1.9,0.2c0.4,0.1,0.7,0.3,1,0.5c0.3,0.3,0.4,0.6,0.4,1
		c0,1.3-1.2,1.9-3.7,1.9c-1.2,0-2-0.2-2.6-0.5c-0.5-0.3-0.8-0.7-0.8-1.3c0-0.6,0.4-1.1,1.1-1.3c-0.5-0.3-0.7-0.6-0.7-1.1
		c0-0.5,0.3-0.9,1-1.2c-0.6-0.5-1-1-1-1.7c0-0.7,0.3-1.2,0.8-1.6c0.5-0.4,1.2-0.6,2-0.6c0.6,0,1.1,0.1,1.5,0.3
		c0.1-0.4,0.2-0.7,0.5-0.9c0.3-0.2,0.7-0.2,1.2-0.2C126.7,7.5,126.8,7.6,127,7.6z M122.1,14.9c-0.5,0.2-0.8,0.5-0.8,0.9
		c0,0.3,0.2,0.6,0.7,0.8c0.4,0.2,1,0.3,1.7,0.3c0.6,0,1.2-0.1,1.7-0.2c0.5-0.2,0.8-0.4,0.8-0.8c0-0.2-0.1-0.4-0.2-0.5
		c-0.2-0.1-0.4-0.2-0.6-0.2c-0.3,0-0.7-0.1-1.4-0.1C123,15,122.5,14.9,122.1,14.9z M123.4,12.1c0.5,0,0.9-0.1,1.2-0.4
		c0.3-0.3,0.5-0.6,0.5-1c0-0.4-0.2-0.8-0.5-1.1c-0.3-0.3-0.7-0.4-1.2-0.4c-0.4,0-0.8,0.1-1.2,0.4c-0.3,0.3-0.5,0.6-0.5,1.1
		c0,0.4,0.2,0.8,0.5,1C122.6,12,122.9,12.1,123.4,12.1z"/>
</g>
<line class="st0" x1="4.6" y1="20.6" x2="127.3" y2="20.6"/>
<g>
	<rect x="36.3" y="25.2" class="st1" width="97.5" height="9.6"/>
	<path d="M38.4,28.8v0.5h-2v-0.5H38.4z"/>
	<path d="M44.2,29.9l0.6,0.1c-0.1,0.3-0.3,0.6-0.7,0.9s-0.7,0.3-1.2,0.3c-0.6,0-1.1-0.2-1.5-0.6s-0.6-0.9-0.6-1.5
		c0-0.7,0.2-1.2,0.6-1.6S42.4,27,43,27c0.6,0,1,0.2,1.4,0.6c0.4,0.4,0.5,0.9,0.5,1.7h-3.2c0,0.6,0.1,1,0.4,1.2
		c0.3,0.2,0.6,0.3,0.9,0.3C43.6,30.7,44,30.5,44.2,29.9z M44.2,28.7c0-0.2,0-0.4-0.1-0.6s-0.2-0.3-0.4-0.5s-0.4-0.2-0.7-0.2
		c-0.3,0-0.6,0.1-0.9,0.3c-0.2,0.2-0.4,0.5-0.4,0.9C41.7,28.7,44.2,28.7,44.2,28.7z"/>
	<path d="M49.7,31.2h-0.6v-2.6c0-0.4-0.1-0.6-0.3-0.8c-0.2-0.2-0.4-0.2-0.7-0.2c-0.4,0-0.6,0.1-0.9,0.4c-0.2,0.3-0.4,0.6-0.4,1v2.2
		h-0.7v-4.1h0.6v0.8c0.4-0.6,0.8-0.9,1.4-0.9c0.3,0,0.6,0.1,0.8,0.2c0.2,0.2,0.4,0.3,0.5,0.5c0.1,0.2,0.1,0.6,0.1,1.1L49.7,31.2
		L49.7,31.2z"/>
	<path d="M57.2,25.6v5.5h-0.6v-0.7c-0.3,0.5-0.8,0.8-1.4,0.8c-0.5,0-0.9-0.2-1.3-0.6c-0.3-0.4-0.5-0.9-0.5-1.5
		c0-0.6,0.2-1.1,0.5-1.6s0.8-0.6,1.3-0.6c0.5,0,1,0.2,1.3,0.7v-2H57.2z M56.6,28.7c0-0.4-0.1-0.6-0.4-0.9c-0.2-0.2-0.5-0.3-0.8-0.3
		c-0.3,0-0.6,0.1-0.8,0.4s-0.3,0.7-0.3,1.2c0,0.5,0.1,1,0.3,1.2c0.2,0.3,0.5,0.4,0.8,0.4c0.3,0,0.6-0.1,0.9-0.4s0.4-0.5,0.4-0.9
		C56.6,29.5,56.6,28.7,56.6,28.7z"/>
	<path d="M61.8,29.9l0.6,0.1c-0.1,0.3-0.3,0.6-0.7,0.9s-0.7,0.3-1.2,0.3c-0.6,0-1.1-0.2-1.5-0.6s-0.6-0.9-0.6-1.5
		c0-0.7,0.2-1.2,0.6-1.6S60,27,60.6,27c0.6,0,1,0.2,1.4,0.6c0.4,0.4,0.5,0.9,0.5,1.7h-3.2c0,0.6,0.1,1,0.4,1.2
		c0.3,0.2,0.6,0.3,0.9,0.3C61.2,30.7,61.6,30.5,61.8,29.9z M61.7,28.7c0-0.2,0-0.4-0.1-0.6s-0.2-0.3-0.4-0.5s-0.4-0.2-0.7-0.2
		c-0.3,0-0.6,0.1-0.9,0.3c-0.2,0.2-0.4,0.5-0.4,0.9C59.3,28.7,61.7,28.7,61.7,28.7z"/>
	<path d="M64.5,31.2h-0.7v-5.5h0.7V31.2z"/>
	<path d="M72,31.2h-0.7c0-0.1-0.1-0.4-0.1-0.7c-0.3,0.6-0.8,0.8-1.6,0.8c-0.5,0-0.9-0.1-1.1-0.4s-0.4-0.5-0.4-0.9
		c0-0.4,0.2-0.8,0.6-1c0.4-0.3,1-0.4,1.9-0.4c0.1,0,0.3,0,0.6,0c0-0.3,0-0.6-0.1-0.7c-0.1-0.1-0.2-0.3-0.3-0.3
		c-0.2-0.1-0.4-0.1-0.7-0.1c-0.7,0-1.1,0.2-1.2,0.7l-0.6-0.1c0.2-0.8,0.8-1.1,2-1.1c0.6,0,1,0.1,1.3,0.4c0.3,0.2,0.4,0.7,0.4,1.3
		v1.7C71.9,30.7,71.9,30.9,72,31.2z M71.2,29.1c-0.3,0-0.5,0-0.6,0c-0.5,0-1,0.1-1.3,0.2c-0.3,0.2-0.5,0.4-0.5,0.7
		c0,0.2,0.1,0.4,0.2,0.5c0.2,0.1,0.4,0.2,0.7,0.2c0.4,0,0.8-0.1,1-0.4c0.3-0.3,0.4-0.6,0.4-1C71.3,29.3,71.3,29.2,71.2,29.1z"/>
	<path d="M75.4,27.1v0.5h-1.1v3.6h-0.7v-3.6h-0.8v-0.5h0.8c0-0.7,0.1-1.1,0.4-1.3c0.3-0.2,0.6-0.3,1-0.3c0.2,0,0.4,0,0.6,0.1v0.5
		c-0.2,0-0.3-0.1-0.4-0.1c-0.3,0-0.5,0.1-0.7,0.2c-0.1,0.1-0.2,0.4-0.2,0.7v0.2C74.3,27.1,75.4,27.1,75.4,27.1z"/>
	<path d="M80.8,31.2H80v-4.9h-1.7v-0.6h4.2v0.6h-1.7C80.8,26.2,80.8,31.2,80.8,31.2z"/>
	<path d="M84.5,31.3c-0.6,0-1.1-0.2-1.4-0.6c-0.3-0.4-0.5-0.9-0.5-1.5c0-0.7,0.2-1.2,0.6-1.6c0.4-0.4,0.9-0.6,1.4-0.6
		c0.6,0,1.1,0.2,1.4,0.6c0.4,0.4,0.5,0.9,0.5,1.5c0,0.6-0.2,1.2-0.6,1.6C85.6,31.1,85.1,31.3,84.5,31.3z M84.6,30.7
		c0.4,0,0.6-0.1,0.9-0.4s0.4-0.7,0.4-1.2c0-0.6-0.1-1-0.4-1.2s-0.5-0.4-0.9-0.4c-0.3,0-0.6,0.1-0.9,0.4c-0.2,0.3-0.4,0.7-0.4,1.2
		c0,0.6,0.1,1,0.4,1.3C83.9,30.6,84.2,30.7,84.6,30.7z"/>
	<path d="M88.5,32.5h-0.7v-5.5h0.6v0.8c0.3-0.6,0.8-0.9,1.4-0.9c0.5,0,0.9,0.2,1.3,0.6c0.3,0.4,0.5,0.9,0.5,1.5
		c0,0.7-0.2,1.2-0.5,1.6c-0.3,0.4-0.8,0.6-1.3,0.6c-0.6,0-1-0.2-1.3-0.7L88.5,32.5L88.5,32.5z M88.5,28.5v1.2c0,0.3,0.2,0.6,0.4,0.8
		c0.2,0.2,0.5,0.3,0.8,0.3c0.3,0,0.6-0.1,0.8-0.4c0.2-0.2,0.3-0.7,0.3-1.3c0-0.5-0.1-0.9-0.3-1.2c-0.2-0.3-0.5-0.4-0.8-0.4
		c-0.3,0-0.5,0.1-0.7,0.3C88.7,28,88.6,28.2,88.5,28.5z"/>
	<path d="M96.3,25.6v5.5h-0.6v-0.7c-0.3,0.5-0.8,0.8-1.4,0.8c-0.5,0-0.9-0.2-1.3-0.6c-0.3-0.4-0.5-0.9-0.5-1.5
		c0-0.6,0.2-1.1,0.5-1.6s0.8-0.6,1.3-0.6c0.5,0,1,0.2,1.3,0.7v-2H96.3z M95.6,28.7c0-0.4-0.1-0.6-0.4-0.9c-0.2-0.2-0.5-0.3-0.8-0.3
		c-0.3,0-0.6,0.1-0.8,0.4c-0.2,0.3-0.3,0.7-0.3,1.2c0,0.5,0.1,1,0.3,1.2c0.2,0.3,0.5,0.4,0.8,0.4c0.3,0,0.6-0.1,0.9-0.4
		s0.4-0.5,0.4-0.9C95.6,29.5,95.6,28.7,95.6,28.7z"/>
	<path d="M101.4,31.2h-0.7c0-0.1-0.1-0.4-0.1-0.7c-0.3,0.6-0.8,0.8-1.6,0.8c-0.5,0-0.9-0.1-1.1-0.4c-0.3-0.2-0.4-0.5-0.4-0.9
		c0-0.4,0.2-0.8,0.6-1c0.4-0.3,1-0.4,1.9-0.4c0.1,0,0.3,0,0.6,0c0-0.3,0-0.6-0.1-0.7c-0.1-0.1-0.2-0.3-0.3-0.3
		c-0.2-0.1-0.4-0.1-0.7-0.1c-0.7,0-1.1,0.2-1.2,0.7l-0.6-0.1c0.2-0.8,0.8-1.1,2-1.1c0.6,0,1,0.1,1.3,0.4c0.3,0.2,0.4,0.7,0.4,1.3
		v1.7C101.3,30.7,101.3,30.9,101.4,31.2z M100.6,29.1c-0.3,0-0.5,0-0.6,0c-0.5,0-1,0.1-1.3,0.2c-0.3,0.2-0.5,0.4-0.5,0.7
		c0,0.2,0.1,0.4,0.2,0.5c0.2,0.1,0.4,0.2,0.7,0.2c0.4,0,0.8-0.1,1-0.4c0.3-0.3,0.4-0.6,0.4-1C100.7,29.3,100.7,29.2,100.6,29.1z"/>
	<path d="M106.4,31.2h-0.6v-2.6c0-0.4-0.1-0.6-0.3-0.8c-0.2-0.2-0.4-0.2-0.7-0.2c-0.4,0-0.6,0.1-0.9,0.4c-0.2,0.3-0.4,0.6-0.4,1v2.2
		h-0.7v-4.1h0.6v0.8c0.4-0.6,0.8-0.9,1.4-0.9c0.3,0,0.6,0.1,0.8,0.2c0.2,0.2,0.4,0.3,0.5,0.5c0.1,0.2,0.1,0.6,0.1,1.1V31.2z"/>
	<path d="M114,31.2h-0.7v-2.5c0-0.3,0-0.5-0.1-0.6c0-0.1-0.1-0.3-0.3-0.4s-0.3-0.2-0.5-0.2c-0.3,0-0.5,0.1-0.8,0.3
		c-0.2,0.2-0.4,0.6-0.4,1v2.3h-0.7v-2.7c0-0.4-0.1-0.6-0.3-0.8c-0.2-0.1-0.4-0.2-0.6-0.2c-0.3,0-0.5,0.1-0.8,0.3s-0.3,0.5-0.3,0.9
		v2.4H108v-4.1h0.6v0.8c0.3-0.6,0.8-0.9,1.4-0.9c0.3,0,0.6,0.1,0.8,0.3s0.4,0.4,0.4,0.7c0.3-0.7,0.8-1,1.4-1c0.3,0,0.6,0.1,0.8,0.2
		c0.2,0.2,0.4,0.3,0.4,0.5c0.1,0.2,0.1,0.5,0.1,0.9C114,28.6,114,31.2,114,31.2z"/>
	<path d="M119,31.2h-0.7c0-0.1-0.1-0.4-0.1-0.7c-0.3,0.6-0.8,0.8-1.6,0.8c-0.5,0-0.9-0.1-1.1-0.4c-0.3-0.2-0.4-0.5-0.4-0.9
		c0-0.4,0.2-0.8,0.6-1c0.4-0.3,1-0.4,1.9-0.4c0.1,0,0.3,0,0.6,0c0-0.3,0-0.6-0.1-0.7c-0.1-0.1-0.2-0.3-0.3-0.3
		c-0.2-0.1-0.4-0.1-0.7-0.1c-0.7,0-1.1,0.2-1.2,0.7l-0.6-0.1c0.2-0.8,0.8-1.1,2-1.1c0.6,0,1,0.1,1.3,0.4c0.3,0.2,0.4,0.7,0.4,1.3
		v1.7C119,30.7,119,30.9,119,31.2z M118.3,29.1c-0.3,0-0.5,0-0.6,0c-0.5,0-1,0.1-1.3,0.2c-0.3,0.2-0.5,0.4-0.5,0.7
		c0,0.2,0.1,0.4,0.2,0.5c0.2,0.1,0.4,0.2,0.7,0.2c0.4,0,0.8-0.1,1-0.4c0.3-0.3,0.4-0.6,0.4-1C118.3,29.3,118.3,29.2,118.3,29.1z"/>
	<path d="M121.2,31.2h-0.7v-4.1h0.6v1c0.2-0.5,0.4-0.7,0.6-0.9c0.2-0.1,0.4-0.2,0.7-0.2c0.1,0,0.2,0,0.3,0v0.6h-0.1
		c-0.4,0-0.7,0.1-0.9,0.4c-0.3,0.3-0.4,0.6-0.4,1L121.2,31.2L121.2,31.2z"/>
	<path d="M127.4,31.2h-0.7l-1.3-2.3l-1,1v1.3h-0.7v-5.5h0.7v3.5l2.1-2.1h0.7l-1.4,1.4L127.4,31.2z"/>
</g>
</svg>
