<?xml version="1.0" encoding="utf-8"?>
<!-- Generator: Adobe Illustrator 21.0.2, SVG Export Plug-In . SVG Version: 6.00 Build 0)  -->
<svg version="1.1" id="Layer_1" xmlns="http://www.w3.org/2000/svg" xmlns:xlink="http://www.w3.org/1999/xlink" x="0px" y="0px"
	 viewBox="0 0 166.7 155.8" style="enable-background:new 0 0 166.7 155.8;" xml:space="preserve">
<g>
	<path d="M132.4,71.1c0-2.2,0.1-4.3,0-6.3c-0.1-1.6,0.7-2.2,2.2-2.2c2.1,0,4.2,0,6.4,0c1.2,0,2,0.4,2,1.8c0,6.1,0.1,12.3,0,18.4
		c0,0.6-1.1,1.6-1.7,1.6c-2.3,0.2-4.7,0.2-7,0c-0.7-0.1-1.7-1.3-1.7-2c-0.2-2.3-0.1-4.7-0.1-6.9c-2.3-0.9-2.5,0.4-2.6,1.9
		c-1.1,10.9-5.8,20.2-13.4,27.9c-8.2,8.2-18.1,13-29.8,13.8c-16.7,1.2-30.4-4.8-41-17.7c-5.9-7.1-9.1-15.3-10.1-24.5
		c0-0.4-0.1-1.2-0.2-1.2c-0.9,0-1.6,0-2.6,0c0,2-0.1,4.4,0,6.6c0.1,1.7-0.5,2.5-2.3,2.4c-2-0.1-3.9-0.1-5.9-0.1
		c-1.5,0-2.2-0.6-2.2-2.2c0-5.8,0-11.7,0-17.5c0-1.6,0.7-2.3,2.4-2.3c2,0.1,3.9,0,5.9,0c1.5,0,2.2,0.6,2.2,2.2
		c0,1.6-0.1,3.2,0.1,4.8c0.1,0.6,0.8,1.1,1.2,1.7c0.5-0.6,1.3-1.2,1.4-1.8c0.8-13.5,6.3-24.8,16.6-33.4c14.5-12,31-14.7,48.6-7.8
		c14.9,5.8,24.2,17,28.3,32.4c0.8,2.8,0.9,5.8,1.3,8.7C130.3,71.1,130.2,71.1,132.4,71.1z M82.7,112.3c22.4,0,40.7-18,40.5-40.3
		c-0.1-22.3-17.9-40.2-40.2-40.3c-22.8-0.1-40.8,18.1-40.8,40.3C42.2,94.7,61,112.6,82.7,112.3z M26.7,66.8c0,4.7,0,9.3,0,13.8
		c2,0.6,2.6-0.1,2.5-2.1c-0.1-3.3,0-6.6,0.1-10C29.3,66.4,27.7,66.1,26.7,66.8z M139.2,80.4c0-4-0.1-7.9,0-11.8
		c0.1-2.1-0.9-2.4-2.9-1.8c0,3.9,0.1,7.8,0,11.7C136.3,80.5,137,81.1,139.2,80.4z"/>
	<path d="M98.4,5.7c-2.7,2.9-5,5.2-9,4.9c-5.7-0.3-11.4-0.2-17.1-0.2c-5.2,0.1-8.9,2.9-10.5,7.8C59.1,27,53,31.5,44,31.5
		c-7.7,0-15.3-0.2-23,0c-7.2,0.2-11.6,5-11.6,12.4c0,13,0,26.1,0,39.1c0,5.6,0,11.2,0,16.8c0.1,8.1,4.8,12.9,12.9,12.9
		c7.7,0,15.3-0.2,23-0.3c2.7,0,6.4,2.5,7.4,5.4c-5.2,0-10.2,0-15.3,0c-5.5,0-11.1,0.1-16.6,0c-9.5-0.1-16.3-7-16.3-16.4
		c0-19.5,0.1-39,0-58.5c0-10.4,7.5-16.3,16.4-16.7c7.6-0.3,15.3,0,23,0c7.7,0,10.8-2.3,13-9.7c1.8-6,7.9-10.9,14.9-11.1
		c8.4-0.3,16.8,0,25.3,0C97.3,5.3,97.7,5.5,98.4,5.7z"/>
	<path d="M113,26.1c5.2,0,10.4,0,15.7,0c4.9,0,9.9-0.2,14.8-0.1c7.3,0.2,13.3,2.9,16.3,10c0.8,1.8,1.2,4,1.2,5.9
		c0.1,19.9,0.1,39.7,0,59.6c0,9.5-7.2,15.8-15.8,16c-10.4,0.3-20.8,0-31.2,0c-0.4,0-0.7-0.1-1.1-0.1c1-2.7,4.4-5.2,7-5.2
		c7.6,0.1,15.2,0.3,22.7,0.3c8.7,0.1,13.4-4.6,13.4-13.2c0-18.4,0-36.7,0-55.1c0-8.2-4.6-13-12.9-13.1c-7.7-0.1-15.5,0.2-23.2,0.3
		c-3.6,0-5.3-2.6-7.3-4.7C112.8,26.6,112.9,26.4,113,26.1z"/>
	<path d="M59.7,148.7c0-1.3,0-2.6,0-4c0-1.3,0-2.5,0-3.9c1-0.3,2.2-0.6,2.1,1.3c-0.1,3.3-0.1,6.7-0.2,10c0,0.6-0.6,1.2-0.9,1.8
		c-0.7-0.4-1.7-0.5-2.1-1.1c-1.8-2.6-2.9-5.3-5.9-7.9c0,2.9,0,5.8,0,8.7c-2,0.2-2.3,0.2-2.3-1.5c0-3.2,0-6.4,0.1-9.5
		c0-0.7,0.6-1.3,0.9-2c0.8,0.4,1.9,0.5,2.4,1.2c1.5,2,2.8,4.1,4.2,6.2c0.2,0.3,0.6,0.6,0.9,0.9C59.1,148.8,58.7,148.7,59.7,148.7z"
		/>
	<path d="M82.4,147.7c0-2-0.1-3.6,0.1-5.4c0.1-0.6,0.9-1.5,1.6-1.6c1.1-0.2,2.3-0.2,3.4-0.1c2.9,0.3,4.2,2.5,3.3,5.2
		c-0.2,0.6-0.3,1.5,0,1.9c1.8,3,0.5,5.7-3,6.1c-0.1,0-0.2,0-0.2,0c-5.1,0.4-5.1,0.5-5.2-4.6C82.4,148.7,82.4,147.7,82.4,147.7
		C82.4,147.7,82.4,147.7,82.4,147.7z M85.4,147.6c-0.2,0.2-0.4,0.4-0.7,0.6c0.2,1.2-0.1,2.8,0.6,3.4c0.5,0.5,2.2,0.1,3.3-0.3
		c0.4-0.2,0.7-1.9,0.4-2.1C87.9,148.5,86.6,148.1,85.4,147.6z M84.8,146.2c2,0,3.8,0.4,3.9-2c0.1-1.8-1.5-2.2-2.7-1.9
		C83.6,142.8,85.3,144.7,84.8,146.2z"/>
	<path d="M123.3,154.1c-4,0-7-3-6.9-7.1c0.1-3.7,3.1-6.6,7-6.6c3.8,0,6.9,3,7,6.6C130.4,150.9,127.2,154,123.3,154.1z M123.3,142.6
		c-2.9,0-4.8,1.8-4.8,4.8c0,2.5,2.1,4.5,4.6,4.6c2.8,0,5.1-2.3,5-5C128.1,144.5,126,142.6,123.3,142.6z"/>
	<path d="M103.9,140.4c3.8,0,7,3,7,6.6c0,4-3.2,7.2-7.2,7.1c-3.8-0.1-6.8-3.2-6.8-7.1C96.9,143.4,100.1,140.4,103.9,140.4z
		 M103.9,151.9c2.6,0,4.8-2,4.9-4.6c0.1-2.6-1.9-4.7-4.7-4.8c-2.8-0.1-5,2-5,4.6C99.1,149.8,101.2,151.9,103.9,151.9z"/>
	<path d="M150.2,153.7c0-4,0-8,0-12c0-0.4,0.7-0.8,1-1.1c0.4,0.4,1,0.7,1,1.1c0.1,1.3,0,3,0,4c1.9,0,3.7,0,5.5,0
		c0.3-2,0.5-3.3,0.8-4.9c0-0.1,0.9-0.1,1.8-0.2c0,4.2,0.1,8.2-0.1,12.1c0,0.5-0.9,1-1.4,1.5c-0.2-0.1-0.4-0.3-0.6-0.4
		c-0.1-1.9-0.2-3.9-0.3-6.1c-1.6,0-3-0.1-4.4,0.1c-0.5,0.1-1.1,0.9-1.2,1.4c-0.2,1-0.1,2.1,0,3.2
		C152.4,153.9,151.7,154.2,150.2,153.7z"/>
	<path d="M38.2,142.4c0.1,1.4,0.1,2.4,0.2,3.6c1.7,0,3.3-0.1,4.8,0c0.5,0,1,0.5,1.5,0.8c-0.5,0.3-1,0.8-1.6,0.8c-1.5,0.1-3,0-4.4,0
		c-1.2,3.8-0.9,4.2,2.7,4.2c0.7,0,1.4-0.2,2,0.1c0.6,0.2,1,0.8,1.6,1.2c-0.1,0.3-0.2,0.5-0.4,0.8c-2.4,0-4.8,0.1-7.2-0.1
		c-0.5,0-1.4-0.9-1.4-1.4c-0.1-3.4-0.1-6.8,0-10.2c0-0.5,0.8-1.5,1.3-1.5c2-0.2,4.1-0.1,6.1,0c0.4,0,0.9,0.6,1.3,0.9
		c-0.4,0.3-0.8,0.8-1.3,0.9C41.9,142.4,40.2,142.4,38.2,142.4z"/>
	<path d="M4.7,153.9c0-4.6,0-8.9,0-13.1c6-0.9,8.3-0.4,8.4,1.4c-2,0.1-3.9,0.2-5.9,0.3c-0.6,3.3-0.5,3.4,2.7,3.4
		c0.8,0,1.6-0.1,2.3,0c0.4,0.1,0.8,0.5,1.1,0.8c-0.4,0.3-0.8,0.8-1.2,0.9c-0.8,0.1-1.7,0-2.5,0c-0.7,0-1.5,0.1-2.4,0.1
		c-0.1,0.8-0.1,1.6-0.2,2.3c-0.1,1.4,0.5,1.9,1.8,1.8c1.1-0.1,2.3-0.1,3.4,0c0.4,0.1,0.8,0.6,1.1,1c-0.4,0.3-0.9,1-1.3,1
		C9.8,154,7.7,153.9,4.7,153.9z"/>
	<path d="M30.4,141c-1.4,3.9-2.9,7.8-4.4,11.6c-0.2,0.5-1,1-1.6,1.2c-0.3,0.1-1.1-0.5-1.3-0.9c-1.6-4-3.1-8-4.7-12.1
		c1.5-0.6,2.3-0.3,2.8,1.2c0.8,2.5,1.8,4.9,2.9,7.7c2.7-2.9,1.7-7.7,5.4-9.4C29.9,140.6,30.1,140.8,30.4,141z"/>
	<path d="M70.7,142.7c-1-0.1-2.4-0.1-3.5-0.2c-0.4-1.9-0.3-1.9,1.2-1.9c2.3,0,4.6-0.1,6.8,0.1c0.6,0,1.2,0.8,1.8,1.2
		c-0.1,0.2-0.2,0.4-0.4,0.6c-1.1,0.1-2.2,0.2-3.6,0.3c0,3.2-0.1,6.4-0.1,9.6c0,1.5-0.3,1.9-2.3,1.4
		C70.7,150.1,70.7,146.5,70.7,142.7z"/>
	<path d="M138.3,142.7c-1.2-0.1-2.2-0.1-3.3-0.2c-0.2-0.2-0.3-0.4-0.5-0.5c0.5-0.5,1-1.3,1.6-1.3c2.3-0.2,4.7-0.1,7,0
		c0.5,0,1,0.8,1.5,1.3c-0.1,0.2-0.3,0.4-0.4,0.6c-1.1,0.1-1.7,0.2-3.7,0.3c0,2.1,0,4.2,0,6.3c0,1.1,0.1,2.1,0,3.2
		c-0.1,0.6-0.6,1.1-0.9,1.7c-0.4-0.6-1.2-1.1-1.2-1.7c-0.1-2.3,0-4.7-0.1-7C138.4,144.4,138.4,143.6,138.3,142.7z"/>
</g>
</svg>
