<svg xmlns="http://www.w3.org/2000/svg" viewBox="0 0 477.37 479.11"><defs><style>.cls-1{fill:#000;}.cls-2{fill:#000;}.cls-3{fill:#000;}.cls-4{fill:#000;}</style></defs><title>Galleri MBK (2)</title><g id="Lag_2" data-name="Lag 2"><g id="Lag_1-2" data-name="Lag 1"><path class="cls-1" d="M35.71,478.22c0-2.56.06-2.82.06-3.14h-.12c-2.56,2.18-7.43,4-12.61,4-12.48,0-23-9.4-23-23.35,0-13.7,9.86-23.23,23.23-23.23,10.18,0,18,5.63,20.86,12.92l-10.62,2.88c-1.73-2.88-5.06-5.69-10.75-5.69-7.23,0-11.9,5.37-11.9,13.18S16,468.94,23.93,468.94c6.15,0,10-2.69,11.4-4.61v-2.11H24.06v-10H45.31v26Z"/><path class="cls-1" d="M68.61,470.79l-2.69,7.43H54.59l17.28-44.8H84.09l17.35,44.8H89.92l-2.69-7.43Zm11.9-18.68c-1.41-3.71-2.43-6.53-2.5-6.59h-.19c-.06.06-1.09,2.81-2.49,6.52l-3.2,9H83.71Z"/><path class="cls-1" d="M111.49,433.42h10.75v34.82h20.09v10H111.49Z"/><path class="cls-1" d="M153.53,433.42h10.76v34.82h20.09v10H153.53Z"/><path class="cls-1" d="M195.58,433.42h32.64v10H206.33v7.68h16.13v9H206.33v8.2h22.21v10h-33Z"/><path class="cls-1" d="M256,463.44h-4.8v14.78H240.44v-44.8h17c11.26,0,17.85,5.89,17.85,15.17,0,6.14-3,10.69-8.44,12.73l10.23,16.9H264.38Zm2.17-8.58c4,0,6.15-2,6.15-5.76s-2.05-6-6.21-6H251.2v11.71Z"/><path class="cls-1" d="M287.36,433.42h10.75v44.8H287.36Z"/><path class="cls-1" d="M366.91,467.28c0-10.63.12-15.88.12-15.94h-.12c-.07.06-2.24,4.1-4.42,7.94l-4.35,7.87h-6l-4.35-7.75c-2.24-4-4.35-8-4.41-8.06h-.2c0,.06.13,5.31.13,15.94v10.94H332.54v-44.8h11.39l11.26,20h.2l11.32-20h11v44.8H366.91Z"/><path class="cls-1" d="M417.66,454.35a10.85,10.85,0,0,1,8.12,10.81c0,6.91-4.92,13.06-16.06,13.06H390.46v-44.8h19.33c8.06,0,13.63,5.44,13.63,11.65a9.6,9.6,0,0,1-5.76,9Zm-9.92-3.2c2.94,0,4.86-1.79,4.86-4.42s-1.85-4.41-4.93-4.41h-6.46v8.83Zm1,18.17c3.71,0,5.7-2.11,5.7-5.12,0-3.2-2.18-5.12-5.7-5.12h-7.55v10.24Z"/><path class="cls-1" d="M452.6,459.34l-5.31,6v12.93H436.54v-44.8h10.75v19.33h.19l4.87-5.76,11.32-13.57h12.8l-15.93,18.11,16.83,26.69H464.82Z"/><path class="cls-2" d="M216.85,106c1-.39,2-.77,3-1.14l.82-.29c1.12-.4,2.24-.79,3.37-1.16l.21-.07c1.21-.4,2.43-.77,3.66-1.14l.76-.22q1.45-.42,2.91-.81l1-.26c1.12-.29,2.25-.57,3.38-.84l.26-.06c1.22-.29,2.44-.55,3.67-.81l.95-.19,2.81-.53,1-.18c1.17-.2,2.33-.39,3.5-.56l.2,0c1.23-.18,2.47-.34,3.71-.48.35,0,.7-.08,1.06-.12.93-.11,1.86-.2,2.79-.29l1.1-.1c1.25-.1,2.5-.2,3.75-.27s2.51-.13,3.76-.17l1,0c1.06,0,2.11-.05,3.17-.05h1.66l1.88,0,1.06,0,1.77,0,1.1.05,1.73.1,1.11.07,1.72.12,1.11.1,1.74.16,1.07.11,1.8.2,1,.12,1.91.26.88.12c.77.11,1.53.23,2.29.36l.49.07q2.82.47,5.61,1l.73.16,2,.43.94.22,1.81.43,1,.25c.58.15,1.15.29,1.72.45l1.05.28,1.69.47,1.05.3,1.67.51,1,.32c.57.17,1.13.36,1.7.54l1,.33,1.78.61.88.31,2,.74.63.23q2.66,1,5.26,2.11l.78.34,1.8.78,1,.44,1.6.73,1,.5,1.51.73,1.05.52,1.47.75,1.06.55,1.44.78,1.05.57,1.45.81,1,.58,1.48.87.95.57,1.62,1,.78.49q1.19.75,2.37,1.53c3.57,2.35,7,4.85,10.33,7.47,2.21,1.75,4.37,3.56,6.46,5.43s4.14,3.8,6.12,5.79c1,1,2,2,2.93,3a148.37,148.37,0,0,1,33.63,58.3,144.66,144.66,0,0,1,5.86,33.24c.09,1.56.15,3.11.2,4.66,0,.48,0,.95,0,1.43,0,1.1,0,2.2,0,3.29,0,.52,0,1,0,1.56,0,1.15-.05,2.31-.09,3.46,0,.39,0,.79,0,1.18-.08,1.53-.17,3.05-.29,4.57,0,.33-.06.66-.08,1-.11,1.2-.22,2.39-.35,3.58,0,.51-.11,1-.17,1.51q-.19,1.59-.42,3.18c-.07.48-.13,1-.21,1.43,0,.25-.06.5-.1.74q1.13-2.6,2.18-5.24l.84-2.13.8-2.09.67-1.86c.18-.46.34-.92.49-1.38l0-.1c.63-1.81,1.23-3.59,1.77-5.28.48-1.52,1-3.08,1.42-4.64l.66-2.33c.31-1.13.61-2.24.9-3.36h0a129,129,0,0,0-39.52-128.72,127.74,127.74,0,0,0-27.79-18.85A130.11,130.11,0,0,0,331.74,80a128.12,128.12,0,0,0-52.73-3c-2.24.34-4.47.73-6.71,1.18-1.23.26-2.45.53-3.67.82l-.74.18c-1.19.28-2.37.59-3.55.91l-.59.16c-1.09.31-2.18.62-3.27,1l-.51.15q-1.74.55-3.48,1.14l-.75.26c-1.17.41-2.33.83-3.49,1.28l-.18.07c-1.12.42-2.22.87-3.33,1.33l-.7.29c-1.12.47-2.23,1-3.33,1.46l-.62.29c-1,.48-2.06,1-3.07,1.47l-.42.2c-1.09.54-2.17,1.11-3.25,1.68l-.72.39c-1.08.58-2.15,1.18-3.21,1.79l-.31.19c-1,.57-2,1.17-3,1.77l-.62.39c-1,.64-2,1.3-3.05,2l-.61.41c-1,.64-1.91,1.3-2.85,2a2.83,2.83,0,0,0-.28.2q-1.5,1.06-3,2.19l-.64.49c-1,.74-1.93,1.5-2.88,2.27l-.36.3c-.88.72-1.74,1.45-2.6,2.2l-.33.28c1.11-.47,2.21-.92,3.32-1.35Z"/><path class="cls-3" d="M260.53,272c-1,.4-2,.77-3,1.14l-.82.3c-1.12.4-2.24.78-3.37,1.15l-.21.07c-1.21.4-2.44.78-3.66,1.14l-.76.22c-1,.29-1.94.56-2.92.82l-.94.25c-1.13.3-2.26.58-3.4.85l-.24.06c-1.22.28-2.44.55-3.67.8l-.95.19c-.94.19-1.87.36-2.81.53l-1.06.19c-1.15.19-2.31.38-3.47.55l-.22,0c-1.23.17-2.47.33-3.71.48l-1.07.12c-.92.1-1.85.2-2.78.28l-1.1.1q-1.87.17-3.75.27c-1.26.08-2.51.13-3.76.17l-1,0c-1.05,0-2.1,0-3.15,0H207l-1.9,0-1,0-1.78-.06-1.1-.05-1.73-.09-1.12-.07-1.71-.13-1.12-.09-1.72-.17-1.09-.11-1.79-.2-1-.12-1.91-.26-.89-.12-2.27-.35-.51-.08c-1-.16-1.89-.32-2.83-.5h0l-2.72-.53-.77-.17-2-.43L175,278l-1.8-.42-1-.26-1.7-.44-1.07-.29-1.66-.46-1.07-.31-1.65-.5L164,275l-1.67-.53-1-.34-1.74-.6-.93-.32-1.94-.71-.7-.26-2.65-1-.08,0-2.52-1-.83-.36-1.74-.76-1-.46-1.56-.71-1.06-.51c-.5-.24-1-.47-1.48-.72l-1.09-.54-1.43-.73-1.09-.57L138,264l-1.08-.59-1.4-.79-1.06-.6-1.42-.84-1-.6-1.54-.94-.86-.54-2.16-1.39-.2-.13a144.87,144.87,0,0,1-28.68-24.82c-.93-1-1.84-2.12-2.74-3.19q-2.72-3.24-5.23-6.64a150.44,150.44,0,0,1-17-29.52q-2.52-5.83-4.52-11.83A144.33,144.33,0,0,1,62,144.32h0a.28.28,0,0,1,0-.09c-.09-1.52-.15-3-.19-4.56,0-.48,0-1,0-1.46,0-1.09,0-2.17,0-3.26,0-.52,0-1,0-1.57,0-1.15,0-2.3.09-3.45,0-.39,0-.79,0-1.19.07-1.52.17-3,.28-4.56l.09-1c.1-1.19.22-2.38.35-3.57,0-.5.11-1,.17-1.51.13-1.06.27-2.12.42-3.17.07-.48.13-1,.2-1.44,0-.25.07-.49.11-.74-.75,1.74-1.48,3.48-2.19,5.24l-.83,2.14L59,124.06c-.17.47-.33.92-.48,1.39l0,.09c-.63,1.8-1.23,3.58-1.77,5.28-.48,1.52-1,3.08-1.42,4.64-.22.78-.45,1.56-.66,2.33-.32,1.14-.61,2.25-.9,3.36h0c-.36,1.4-.68,2.79-1,4.19l-.06.23c-.31,1.43-.59,2.86-.85,4.3l0,.13c-.25,1.37-.47,2.74-.68,4.12,0,.1,0,.21,0,.32-.21,1.44-.4,2.88-.56,4.32,0,0,0,.08,0,.12-.16,1.43-.3,2.87-.41,4.31,0,0,0,.08,0,.12q-.34,4.42-.38,8.83v0c0,2.93.05,5.85.22,8.75V181c.17,2.87.44,5.74.8,8.58,0,.05,0,.11,0,.16.18,1.4.38,2.79.61,4.18,0,0,0,.1,0,.15.24,1.43.49,2.85.77,4.27v0a128.12,128.12,0,0,0,6,20.72l.09.23a125.38,125.38,0,0,0,5.07,11.52l.24.48c.52,1,1.07,2.06,1.62,3.09l.42.79c.53,1,1.09,1.93,1.64,2.88.18.31.35.63.54.94.56.94,1.14,1.86,1.72,2.79l.59,1c.61.95,1.24,1.89,1.88,2.82.19.29.37.57.57.85.47.69,1,1.37,1.46,2.05.37.52.73,1,1.11,1.56l1,1.26c.57.76,1.14,1.52,1.73,2.26.41.52.84,1,1.26,1.53s1,1.28,1.58,1.91,1.18,1.34,1.77,2c.4.45.79.9,1.2,1.35,1.59,1.74,3.25,3.44,5,5.1,1.53,1.5,3.09,3,4.71,4.42a127.65,127.65,0,0,0,41.54,24.77q5.33,1.92,10.85,3.41a128.19,128.19,0,0,0,59.43,1.83c1.23-.25,2.45-.53,3.66-.81l.77-.18c1.18-.29,2.36-.59,3.53-.91l.61-.17c1.08-.3,2.16-.62,3.23-.95l.54-.16c1.16-.36,2.32-.74,3.47-1.14l.77-.26c1.16-.41,2.32-.83,3.47-1.27l.22-.08c1.1-.43,2.19-.87,3.28-1.32l.72-.3c1.11-.47,2.22-.95,3.32-1.45l.64-.3c1-.47,2-1,3-1.45l.44-.22c1.09-.54,2.17-1.1,3.24-1.67l.74-.4c1.07-.58,2.13-1.17,3.19-1.78l.34-.2c1-.58,2-1.16,2.93-1.76l.64-.4c1-.64,2-1.29,3-2l.63-.42q1.42-1,2.82-1.95l.31-.22c1-.71,2-1.44,3-2.18l.66-.5c1-.74,1.92-1.49,2.86-2.26l.39-.32c.86-.71,1.72-1.44,2.57-2.17l.33-.29c-1.1.46-2.21.91-3.32,1.35Z"/><path class="cls-3" d="M321.69,167.18c.38,1,.75,2,1.11,3l.32.87c.38,1.09.76,2.18,1.12,3.27,0,.1.07.2.1.31.4,1.2.77,2.41,1.13,3.63l.24.8c.27,1,.54,1.91.8,2.87.09.32.17.65.26,1,.29,1.1.57,2.21.83,3.32,0,.11,0,.21.07.32.29,1.21.55,2.43.81,3.65.06.32.12.64.19,1,.18.94.36,1.87.53,2.81l.18,1c.2,1.16.39,2.33.56,3.5l0,.2c.18,1.23.34,2.48.49,3.72,0,.34.07.68.11,1,.11.94.2,1.89.29,2.84,0,.35.07.7.1,1,.1,1.26.2,2.51.27,3.77a146.62,146.62,0,0,1-36.87,106.09q-4.22,4.71-8.81,9c-1,1-2.06,1.91-3.11,2.84a146.9,146.9,0,0,1-24.1,17.32A144.54,144.54,0,0,1,194,365.71c-1.56.1-3.1.16-4.65.2l-1.46,0-3.25,0-1.6,0c-1.13,0-2.25,0-3.38-.09l-1.26,0c-1.51-.07-3-.16-4.52-.28l-1.11-.1c-1.16-.1-2.31-.21-3.46-.33l-1.58-.19c-1-.12-2.06-.25-3.08-.4l-1.53-.22-.7-.1c1.73.76,3.48,1.48,5.24,2.19l2.08.81,4,1.5,1.38.48.1,0c1.82.64,3.59,1.23,5.28,1.77s3.23,1,4.64,1.42c.77.22,1.55.45,2.33.66,1.14.32,2.25.62,3.37.9,1.41.36,2.83.7,4.25,1,.38.08.77.15,1.15.24l3.1.62,1.43.24c.95.17,1.9.33,2.84.47l1.53.21,2.76.36,1.55.17c.91.1,1.83.18,2.75.26l1.53.12,2.8.17,1.45.06c1,0,2,.06,2.94.08l1.31,0q4.09,0,8.18-.21l.77,0c1.11-.08,2.23-.16,3.35-.26l.93-.09c1.2-.12,2.41-.25,3.61-.4l.42-.05c1.38-.18,2.76-.38,4.14-.61l.42-.07c1.19-.2,2.37-.41,3.55-.64l.94-.19c1.08-.22,2.16-.45,3.23-.7l.77-.18q4-.93,7.88-2.12l.85-.27c1-.32,2-.65,3.06-1l.93-.32c1.17-.41,2.33-.83,3.48-1.27l.29-.11c1.28-.49,2.56-1,3.82-1.53l.68-.3c1-.43,2-.87,3-1.33l1-.46c1-.45,1.93-.92,2.89-1.4l.77-.38c1.21-.61,2.42-1.25,3.62-1.9l.28-.16c1.08-.59,2.14-1.2,3.2-1.83l1-.57q1.29-.78,2.58-1.59l1-.6c1-.68,2.1-1.38,3.13-2.09l.22-.15c1.12-.77,2.22-1.56,3.31-2.37l.85-.64c.81-.6,1.61-1.22,2.41-1.84l1-.79c.81-.66,1.62-1.32,2.42-2l.74-.62c1-.88,2-1.77,3.05-2.69l.61-.57c.79-.74,1.59-1.49,2.37-2.25l.94-.92c.7-.69,1.39-1.4,2.07-2.11.29-.29.58-.59.86-.89.95-1,1.88-2,2.8-3a129.77,129.77,0,0,0,30-111.82c-.25-1.23-.53-2.45-.82-3.67l-.18-.76c-.28-1.18-.59-2.36-.91-3.53-.05-.2-.11-.4-.16-.61-.31-1.08-.62-2.16-.95-3.24-.06-.18-.11-.35-.16-.53-.36-1.16-.75-2.32-1.14-3.47-.09-.26-.18-.51-.26-.76-.41-1.17-.83-2.33-1.27-3.49a1.34,1.34,0,0,1-.07-.18c-.43-1.11-.88-2.22-1.34-3.33l-.29-.69c-.47-1.12-1-2.23-1.46-3.34-.1-.2-.19-.41-.29-.61-.48-1-1-2.06-1.47-3.08-.07-.14-.13-.28-.2-.41-.54-1.1-1.11-2.18-1.68-3.26l-.39-.71c-.58-1.08-1.18-2.16-1.79-3.22l-.18-.31c-.58-1-1.18-2-1.79-3l-.38-.61c-.64-1-1.29-2.05-2-3.06l-.41-.6c-.64-1-1.3-1.92-2-2.86l-.2-.28q-1.06-1.5-2.19-3l-.49-.64c-.74-1-1.5-1.93-2.27-2.87l-.3-.37c-.72-.88-1.45-1.74-2.19-2.6-.1-.1-.19-.21-.29-.32.47,1.09.91,2.19,1.34,3.29Z"/><path class="cls-2" d="M199.06,264.67q-1.6-.66-3.18-1.35l-1-.46-2.48-1.13-1-.46c-1.11-.53-2.21-1.07-3.31-1.63l-.16-.08c-1-.53-2.07-1.08-3.1-1.64l-1-.53c-.8-.44-1.59-.89-2.37-1.34l-.94-.55c-1.06-.62-2.11-1.25-3.15-1.9a.41.41,0,0,1-.11-.07q-1.51-.94-3-1.92l-.92-.62-2.25-1.53-.9-.63c-1-.72-2-1.44-3-2.18l-.05,0q-1.46-1.1-2.88-2.22l-.87-.69L161.29,242l-.85-.71c-.95-.8-1.89-1.61-2.82-2.44-.74-.65-1.46-1.31-2.18-2A147.46,147.46,0,0,1,119.08,184q-1.11-2.72-2.1-5.48T115.11,173a141.45,141.45,0,0,1-3.68-14.23c-.22-1.06-.41-2.12-.61-3.19a145.41,145.41,0,0,1-2.38-26.17v-.06c0-1.46,0-2.92.08-4.38a146.5,146.5,0,0,1,5-33.32,144.88,144.88,0,0,1,31.83-59.16c.89-1,1.78-2,2.69-3l.87-.91c.63-.65,1.25-1.31,1.89-1.95.37-.38.75-.74,1.13-1.11.56-.56,1.12-1.12,1.69-1.67l1.22-1.14,1.67-1.55L157.76,20c.55-.5,1.1-1,1.66-1.47l1.34-1.13,1.67-1.39c.45-.37.92-.73,1.38-1.09s1.11-.9,1.68-1.34l1.42-1.07,1.7-1.27.11-.08q-7.84,3.09-15.43,6.88c-2.82,1.41-5.7,2.94-8.57,4.56l-3,1.72-.17.1c-.65.39-1.28.79-1.92,1.19s-1.32.8-2,1.22-1.2.8-1.8,1.2-1.31.86-1.95,1.31-1.15.82-1.72,1.23-1.29.92-1.92,1.39-1.09.84-1.63,1.26-1.28,1-1.91,1.48-1,.84-1.53,1.27-1.27,1-1.89,1.57-1,.87-1.47,1.3L120,40.52l-1.39,1.33-1.81,1.72c-.45.45-.88.91-1.33,1.36s-1.18,1.18-1.75,1.79c-.43.45-.84.92-1.26,1.38-.57.62-1.15,1.23-1.71,1.86l-1.18,1.38c-.56.65-1.12,1.3-1.67,2-.38.46-.74.92-1.11,1.39-.54.67-1.09,1.34-1.62,2-.36.47-.7.94-1,1.41-.52.7-1,1.39-1.56,2.1-.33.47-.65,1-1,1.43-.5.72-1,1.43-1.49,2.16-.32.48-.62,1-.93,1.45-.48.74-1,1.47-1.43,2.22-.3.49-.59,1-.89,1.5-.45.74-.91,1.49-1.34,2.24l-.85,1.55c-.42.76-.85,1.51-1.25,2.27-.28.52-.53,1-.8,1.57-.4.77-.8,1.54-1.18,2.32-.26.54-.5,1.09-.76,1.63-.36.77-.73,1.54-1.08,2.32-.25.57-.48,1.15-.73,1.73-.33.76-.66,1.52-1,2.29-.24.57-.45,1.16-.68,1.74-.3.77-.61,1.55-.9,2.33-.22.6-.42,1.21-.63,1.82-.27.77-.55,1.54-.8,2.31s-.4,1.31-.61,2-.47,1.47-.68,2.21-.38,1.4-.58,2.09-.4,1.43-.58,2.15-.34,1.42-.51,2.14-.35,1.42-.5,2.14-.29,1.44-.44,2.16-.3,1.44-.43,2.16-.26,1.54-.38,2.3-.24,1.37-.34,2.06-.22,1.64-.32,2.46c-.09.65-.18,1.29-.26,2-.1.87-.17,1.75-.25,2.62-.06.6-.13,1.2-.17,1.81-.08.9-.12,1.81-.17,2.71,0,.59-.08,1.17-.11,1.75,0,1-.06,2.08-.08,3.12,0,.46,0,.91,0,1.37,0,1.16,0,2.32,0,3.49,0,.34,0,.69,0,1,0,1.51.1,3,.19,4.54a129.75,129.75,0,0,0,57.86,100.29c1,.69,2.1,1.36,3.16,2l.67.42c1,.63,2.08,1.25,3.14,1.85l.55.31c1,.56,2,1.1,3,1.63.17.08.33.17.49.26,1.08.56,2.17,1.11,3.26,1.65l.73.35c1.11.53,2.23,1.06,3.35,1.56l.21.09c1.08.49,2.18,1,3.27,1.4l.7.29q1.69.69,3.39,1.32l.65.24c1.07.4,2.14.77,3.21,1.14l.43.15c1.16.38,2.33.75,3.5,1.11l.78.23c1.17.35,2.35.69,3.53,1l.37.09c1.11.29,2.23.57,3.35.83l.7.17c1.18.27,2.36.53,3.55.77l.73.14c1.14.22,2.28.43,3.43.63l.31.05c1.22.2,2.44.38,3.65.55l.8.11c1.22.15,2.43.3,3.64.42l.5,0c1.12.11,2.25.2,3.38.28l.42,0h0Z"/><path class="cls-3" d="M163.4,148.47l.87-2.07.69-1.54c.28-.62.56-1.24.85-1.86s.45-1,.68-1.46c.4-.84.81-1.67,1.23-2.5l.73-1.43c.41-.79.82-1.58,1.25-2.36l.69-1.26c.38-.69.77-1.37,1.15-2l.69-1.18c.56-1,1.13-1.91,1.72-2.86l.36-.57c.57-.91,1.15-1.81,1.74-2.71.22-.34.45-.67.68-1q.72-1.08,1.47-2.16l.67-.95c.7-1,1.42-2,2.15-3l.07-.09c.72-1,1.46-1.91,2.2-2.85l.7-.87,1.73-2.13.71-.84c.8-1,1.61-1.9,2.44-2.83A147.45,147.45,0,0,1,269,61.74c1.31-.27,2.63-.52,3.94-.75l1.28-.21c.89-.15,1.79-.3,2.68-.43l1.51-.21c.82-.12,1.64-.22,2.46-.32l1.58-.19,2.43-.24,1.56-.14q1.26-.11,2.52-.18c.48,0,1-.07,1.45-.09,1-.06,1.93-.1,2.9-.13l1.06,0c1.28,0,2.56-.05,3.84-.05h.1c1.5,0,3,0,4.49.07l1.27.06c1.08,0,2.16.09,3.24.16l1.69.13c.94.07,1.87.14,2.81.23l1.83.19c.89.1,1.79.2,2.69.32l1.86.25c.89.12,1.78.25,2.67.4.61.09,1.23.19,1.84.3.92.15,1.83.33,2.75.5l1.74.34c1,.2,2,.42,3,.65l1.47.33c1.49.35,3,.72,4.46,1.12a144.54,144.54,0,0,1,59.16,31.82c1.17,1,2.31,2.09,3.44,3.16l1,1c.8.77,1.58,1.54,2.36,2.32l1.08,1.1c.81.84,1.62,1.69,2.41,2.55l.78.83q1.55,1.69,3,3.44c.22.25.43.51.64.76.78.92,1.55,1.85,2.3,2.79l.93,1.18c.67.84,1.32,1.69,2,2.55.29.39.59.77.87,1.16.14.19.29.38.43.58q-3.09-7.85-6.88-15.44c-1.41-2.82-2.94-5.7-4.56-8.56l-1.73-3-.09-.15c-.41-.7-.85-1.38-1.28-2.07s-.74-1.21-1.12-1.81-.91-1.36-1.37-2-.75-1.15-1.14-1.71-.95-1.33-1.43-2-.79-1.11-1.19-1.65-1-1.27-1.47-1.9-.84-1.1-1.27-1.64-1-1.18-1.47-1.78-.91-1.1-1.37-1.64-1-1.1-1.46-1.64-1-1.13-1.49-1.68-1-1-1.43-1.5-1.07-1.14-1.62-1.7-.9-.88-1.35-1.33-1.19-1.18-1.8-1.76l-1.24-1.13c-.67-.62-1.33-1.24-2-1.84-.37-.33-.75-.64-1.13-1-.73-.63-1.46-1.27-2.21-1.88-.32-.27-.66-.53-1-.79-.81-.65-1.62-1.31-2.44-1.94l-.79-.59c-.9-.69-1.81-1.37-2.73-2l-.54-.37c-1-.72-2-1.43-3.05-2.11l-.32-.21c-1.11-.73-2.23-1.45-3.36-2.15l0,0a129.3,129.3,0,0,0-71.24-19.24c-1.51,0-3,.1-4.54.19a128.06,128.06,0,0,0-29.43,5.2,129.6,129.6,0,0,0-27.54,11.93,128.11,128.11,0,0,0-43.32,40.73c-.69,1-1.36,2.1-2,3.16l-.42.67c-.63,1-1.25,2.09-1.85,3.15-.11.18-.21.36-.31.54-.56,1-1.1,2-1.63,3-.08.16-.17.32-.26.48q-.84,1.62-1.65,3.27l-.35.72c-.53,1.11-1.06,2.23-1.57,3.36,0,.07-.05.14-.08.2-.49,1.09-.95,2.18-1.4,3.28-.1.23-.2.47-.29.7q-.69,1.68-1.32,3.39c-.09.22-.16.43-.25.65-.39,1.07-.77,2.14-1.13,3.21l-.15.43c-.39,1.16-.75,2.32-1.11,3.49-.08.26-.16.53-.23.79-.35,1.17-.69,2.35-1,3.53,0,.13-.06.26-.1.39-.29,1.1-.56,2.21-.83,3.32,0,.24-.11.48-.16.71-.27,1.18-.53,2.36-.77,3.55,0,.24-.09.49-.14.73-.22,1.15-.44,2.29-.63,3.44,0,.1,0,.2-.05.3-.2,1.22-.38,2.44-.55,3.66,0,.26-.07.53-.11.8-.15,1.21-.3,2.42-.42,3.64,0,.16,0,.33-.05.5-.11,1.12-.2,2.25-.28,3.38,0,.14,0,.27,0,.41C163.06,149.25,163.24,148.86,163.4,148.47Z"/><path class="cls-4" d="M155.68,210.81c-.39-1-.76-2-1.12-3l-.31-.87c-.39-1.08-.76-2.17-1.12-3.27,0-.1-.07-.2-.1-.3-.4-1.21-.77-2.42-1.14-3.63-.08-.27-.15-.54-.23-.81-.28-.95-.54-1.91-.8-2.86-.09-.33-.18-.66-.26-1-.29-1.11-.57-2.22-.83-3.33,0-.1-.05-.21-.08-.31-.28-1.22-.55-2.44-.8-3.66-.06-.32-.13-.64-.19-1-.18-.93-.36-1.87-.53-2.81-.06-.35-.13-.7-.19-1.05-.19-1.16-.38-2.33-.55-3.5l0-.19c-.18-1.24-.34-2.48-.49-3.73,0-.34-.08-.68-.11-1-.11-.95-.21-1.9-.29-2.85,0-.35-.07-.7-.1-1.05-.1-1.25-.2-2.51-.27-3.77q-.27-4.41-.25-8.83a147.61,147.61,0,0,1,8.54-49c.65-1.84,1.35-3.67,2.08-5.49S158,100,158.8,98.21A146.24,146.24,0,0,1,283.36,12.28c1.4-.08,2.8-.14,4.2-.19l1.39,0c.93,0,1.86,0,2.79,0h.35l1.06,0c1,0,2.05,0,3.08.05.55,0,1.1,0,1.64.06,1,0,1.91.08,2.86.14l1.64.1c1,.07,2,.15,3,.25.46,0,.93.07,1.39.12,1.45.14,2.89.31,4.34.49l.5.08c1.11.14,2.21.3,3.32.47-1.74-.75-3.48-1.48-5.24-2.18l-2.13-.84-2.1-.8-1.85-.67-1.38-.49-.1,0c-1.82-.64-3.59-1.24-5.28-1.78s-3.23-1-4.64-1.41l-2.34-.67L286.52,4A129.33,129.33,0,0,0,160.89,40.2c-1,1.1-2.07,2.21-3.08,3.35q-3.78,4.25-7.13,8.76a127.83,127.83,0,0,0-20,40c-.36,1.21-.7,2.43-1,3.66a128.1,128.1,0,0,0-1.84,59.44c.25,1.22.53,2.44.81,3.66l.18.76c.29,1.18.59,2.36.91,3.54.06.2.12.4.17.6.3,1.09.62,2.17.95,3.25l.16.52c.36,1.17.74,2.32,1.14,3.48l.26.75c.41,1.17.83,2.34,1.27,3.49a1.34,1.34,0,0,1,.07.18c.43,1.12.88,2.23,1.34,3.33.09.23.19.47.29.7.47,1.12,1,2.23,1.46,3.33.09.21.19.41.29.62.47,1,1,2.06,1.47,3.08l.2.41c.54,1.09,1.1,2.18,1.68,3.26.13.23.25.47.38.71.59,1.08,1.18,2.15,1.8,3.21l.18.31c.58,1,1.18,2,1.78,3,.13.21.26.41.38.62.65,1,1.3,2,2,3.05l.41.61c.65,1,1.31,1.91,2,2.86.06.09.13.18.19.28.72,1,1.45,2,2.19,3,.17.21.33.43.49.64q1.13,1.45,2.28,2.88l.3.37c.72.87,1.45,1.73,2.19,2.59l.28.33c-.46-1.1-.9-2.19-1.33-3.3C155.83,211.23,155.76,211,155.68,210.81Z"/><path class="cls-4" d="M278.3,113.33c1.07.43,2.13.89,3.19,1.35l1,.45q1.26.56,2.49,1.14l1,.46c1.11.53,2.21,1.06,3.31,1.62l.16.09c1,.53,2.07,1.08,3.1,1.63l1,.54c.79.44,1.58.88,2.37,1.34l.94.54c1.06.62,2.11,1.25,3.15,1.9l.12.08c1,.62,2,1.26,3,1.92l.93.61c.75.51,1.5,1,2.24,1.54l.9.63c1,.71,2,1.43,3,2.17l.07,0c1,.72,1.92,1.46,2.87,2.21l.87.7,2.12,1.73.86.71c.95.81,1.89,1.62,2.82,2.44l2.18,2A147.58,147.58,0,0,1,358.29,194c.73,1.81,1.43,3.65,2.09,5.49s1.29,3.7,1.88,5.57q2.19,7,3.68,14.23a146.51,146.51,0,0,1-33.89,126.29q-1.56,1.74-3.16,3.43c-.33.35-.66.69-1,1-.76.79-1.53,1.57-2.3,2.34l-1.12,1.1c-.83.8-1.67,1.6-2.51,2.38l-.87.81q-1.68,1.53-3.42,3c-.27.23-.55.45-.82.69-.9.75-1.8,1.5-2.72,2.24l-1.22,1-2.49,1.91-1.22.91-.56.42q7.85-3.1,15.44-6.89c2.82-1.4,5.7-2.94,8.57-4.56l3-1.72.16-.1c.68-.4,1.34-.83,2-1.24l1.88-1.16,1.94-1.3c.6-.4,1.21-.8,1.8-1.21s1.26-.9,1.89-1.36,1.18-.83,1.76-1.26,1.21-.94,1.82-1.41,1.15-.87,1.71-1.33,1.18-1,1.77-1.46,1.11-.91,1.65-1.38,1.15-1,1.72-1.52l1.6-1.42c.57-.53,1.12-1.07,1.68-1.6s1-1,1.52-1.45,1.1-1.12,1.65-1.69,1-1,1.43-1.46,1.06-1.16,1.6-1.74.92-1,1.37-1.5,1-1.19,1.53-1.79.89-1,1.32-1.54,1-1.23,1.47-1.84.85-1.05,1.26-1.59.94-1.27,1.42-1.9.8-1.06,1.19-1.6.9-1.31,1.36-2,.75-1.08,1.12-1.63.87-1.34,1.3-2,.72-1.09,1.06-1.64.83-1.39,1.24-2.09.67-1.1,1-1.66.79-1.42,1.18-2.13.63-1.12.93-1.69.73-1.45,1.1-2.17c.29-.57.59-1.14.87-1.71.36-.74.7-1.49,1-2.24.27-.57.54-1.14.8-1.72.35-.77.67-1.56,1-2.35.23-.55.48-1.1.71-1.66.31-.78.61-1.58.91-2.36.22-.58.45-1.14.66-1.72.3-.81.57-1.63.85-2.44.19-.56.4-1.12.58-1.69.28-.85.54-1.7.8-2.56.16-.54.34-1.08.5-1.62.25-.87.48-1.74.71-2.61.15-.54.31-1.08.45-1.63.22-.89.42-1.78.63-2.68.13-.53.26-1.06.38-1.6.2-.9.37-1.8.54-2.71.11-.54.23-1.07.33-1.61.17-.93.31-1.86.46-2.78.08-.53.18-1.06.26-1.59.14-1,.26-1.93.38-2.9.06-.5.14-1,.2-1.5.11-1,.2-2,.29-3,0-.48.09-1,.13-1.42.08-1,.13-2,.19-3.06,0-.47.07-.94.09-1.41.05-1.09.07-2.18.09-3.28,0-.4,0-.8,0-1.21,0-1.16,0-2.32,0-3.48,0-.35,0-.69,0-1,0-1.51-.1-3-.19-4.53A129.69,129.69,0,0,0,397,219.73a123.9,123.9,0,0,0-3.45-14.51,131.71,131.71,0,0,0-27.27-48.88q-2.47-2.79-5.1-5.43a129,129,0,0,0-20.29-16.55c-1-.69-2.1-1.35-3.17-2l-.66-.41q-1.56-1-3.15-1.86l-.53-.3c-1-.56-2-1.11-3-1.64l-.45-.25c-1.09-.57-2.19-1.12-3.29-1.66l-.68-.33c-1.13-.55-2.26-1.08-3.41-1.59l-.11,0c-1.12-.5-2.25-1-3.39-1.45l-.63-.26c-1.14-.46-2.29-.91-3.44-1.34l-.57-.21c-1.11-.41-2.23-.81-3.35-1.18l-.31-.11c-1.19-.4-2.38-.77-3.57-1.14l-.69-.2c-1.2-.36-2.41-.71-3.61-1l-.26-.07c-1.16-.3-2.32-.59-3.48-.86l-.62-.15c-1.2-.28-2.41-.54-3.61-.78l-.66-.13c-1.17-.23-2.35-.44-3.53-.64l-.24,0c-1.22-.21-2.45-.39-3.68-.56L286,114c-1.22-.16-2.44-.3-3.66-.43l-.49,0c-1.12-.11-2.25-.21-3.37-.29l-.43,0h0Z"/><path class="cls-2" d="M314.36,228.6c-.44,1.08-.89,2.15-1.36,3.21l-.45,1c-.37.84-.75,1.67-1.14,2.5l-.45,1c-.53,1.11-1.07,2.21-1.63,3.31l-.09.17c-.53,1-1.08,2.07-1.63,3.09l-.54,1c-.44.79-.88,1.58-1.34,2.36l-.54.94c-.62,1.06-1.25,2.11-1.9,3.15l-.08.13c-.63,1-1.27,2-1.91,3-.21.31-.42.61-.62.92-.51.76-1,1.5-1.54,2.25l-.63.9c-.71,1-1.43,2-2.17,3a.35.35,0,0,0,0,.08c-.73,1-1.46,1.92-2.21,2.86-.23.3-.47.58-.7.87-.57.72-1.15,1.42-1.73,2.13l-.71.85c-.8.95-1.62,1.89-2.44,2.82a147.39,147.39,0,0,1-80.08,46.19c-2.18.45-4.36.83-6.54,1.18-.71.11-1.41.23-2.12.33-2.57.37-5.13.66-7.7.9l-.44,0c-2,.17-4,.29-6,.38-1.06.05-2.12.09-3.18.11-3.38.08-6.75,0-10.12-.13-2-.1-3.95-.22-5.92-.4a147.44,147.44,0,0,1-25.09-4.47A144.83,144.83,0,0,1,92,290.42q-5.1-3.8-9.9-8.06c-1.16-1-2.3-2.09-3.43-3.16l-1-1-2.34-2.31-1.09-1.11c-.81-.84-1.61-1.68-2.41-2.54l-.78-.84q-1.55-1.7-3-3.43l-.66-.78c-.77-.92-1.53-1.84-2.28-2.77-.31-.39-.62-.79-.94-1.18-.66-.85-1.31-1.7-2-2.56l-.86-1.15-.44-.58q3.1,7.85,6.89,15.43c1.41,2.82,2.94,5.7,4.56,8.57l1.72,3c0,.05.07.1.1.16q1.14,1.92,2.34,3.78c.16.25.33.49.49.73.64,1,1.29,2,2,2.93l.9,1.26c.55.77,1.09,1.54,1.65,2.29.35.47.71.94,1.07,1.4.53.69,1,1.38,1.58,2.05.39.49.79,1,1.18,1.44.53.64,1,1.28,1.58,1.91s.84,1,1.26,1.44,1.06,1.21,1.6,1.8l1.32,1.42c.54.58,1.08,1.15,1.63,1.72s.93.93,1.39,1.39l1.66,1.63,1.44,1.36c.57.53,1.13,1,1.7,1.56l1.49,1.32,1.74,1.49,1.53,1.26c.6.49,1.19,1,1.79,1.43s1,.82,1.57,1.22l1.83,1.36,1.6,1.16,1.89,1.31,1.62,1.1,2,1.25,1.64,1c.67.41,1.35.81,2,1.21l1.62.95c.71.41,1.44.8,2.16,1.19.52.28,1,.58,1.56.85.8.42,1.6.82,2.4,1.22.46.23.92.48,1.39.7q1.73.84,3.48,1.62l.63.29c1.21.53,2.42,1.05,3.63,1.54.46.19.93.36,1.39.54.86.34,1.72.68,2.58,1,.54.2,1.08.38,1.62.57.8.28,1.6.57,2.41.84l1.73.55c.78.24,1.56.49,2.34.72.6.18,1.2.34,1.81.51l2.32.64,1.84.45c.78.19,1.55.38,2.33.55l1.88.4c.78.17,1.55.32,2.34.47l1.89.34,2.36.4,1.92.28,2.37.31,1.93.22,2.4.23,1.94.16,2.42.15,1.94.09,2.45.07,1.94,0,2.85,0,1.34,0c1.39,0,2.77-.09,4.17-.17H193a128,128,0,0,0,29.44-5.19c2.38-.72,4.74-1.5,7.07-2.36A130.46,130.46,0,0,0,250,331.91,131.85,131.85,0,0,0,268.51,319a128.26,128.26,0,0,0,24.81-27.82v0c.68-1,1.35-2.09,2-3.15.14-.22.28-.44.41-.67.64-1,1.26-2.08,1.86-3.14l.31-.55c.55-1,1.1-2,1.62-3,.09-.16.18-.32.26-.48.57-1.08,1.12-2.17,1.66-3.27l.34-.7c.54-1.12,1.07-2.25,1.57-3.38a1.42,1.42,0,0,0,.08-.18c.49-1.09,1-2.2,1.42-3.3.09-.23.18-.46.28-.68.45-1.13.9-2.27,1.32-3.41.08-.21.16-.41.23-.62.4-1.08.79-2.17,1.15-3.26.05-.13.1-.26.14-.39.39-1.17.76-2.34,1.12-3.52.08-.25.15-.5.23-.75.35-1.18.69-2.37,1-3.56,0-.11.05-.22.08-.33.3-1.13.58-2.26.85-3.4.05-.22.1-.44.16-.67.27-1.18.53-2.38.77-3.57,0-.23.09-.47.13-.7.23-1.16.44-2.31.64-3.47,0-.09,0-.19,0-.29.2-1.21.38-2.43.55-3.66,0-.26.07-.53.1-.79.16-1.21.3-2.43.43-3.64,0-.17,0-.33,0-.5.12-1.12.21-2.25.29-3.38l0-.42v0Z"/></g></g></svg>