<?xml version="1.0" encoding="utf-8"?>
<!-- Generator: Adobe Illustrator 18.1.1, SVG Export Plug-In . SVG Version: 6.00 Build 0)  -->
<svg version="1.1" id="Слой_1" xmlns="http://www.w3.org/2000/svg" xmlns:xlink="http://www.w3.org/1999/xlink" x="0px" y="0px"
	 viewBox="202 -80.1 1000 1000" enable-background="new 202 -80.1 1000 1000" xml:space="preserve">
<title>instagram</title>
<linearGradient id="SVGID_1_" gradientUnits="userSpaceOnUse" x1="869.1621" y1="-17.3115" x2="554.1621" y2="801.6885">
	<stop  offset="0" style="stop-color:#1569FF"/>
	<stop  offset="1" style="stop-color:#3FD6FF"/>
</linearGradient>
<path fill="url(#SVGID_1_)" d="M701.2,162.6c-141.6,0-256.8,115.2-256.8,256.8s115.2,256.7,256.8,256.7s256.7-115.2,256.7-256.7
	C958,277.8,842.8,162.6,701.2,162.6L701.2,162.6z M701.2,578.2c-87.6,0-158.8-71.2-158.8-158.8s71.2-158.8,158.8-158.8
	S860,331.8,860,419.4S788.8,578.2,701.2,578.2z M911.1-75.1H491.3c-156.9,0-284.6,127.7-284.6,284.6v419.8
	c0,156.9,127.7,284.6,284.6,284.6h419.8c156.9,0,284.6-127.7,284.6-284.6V209.5C1195.7,52.6,1068.1-75.1,911.1-75.1L911.1-75.1z
	 M1097.8,629.3c0,102.9-83.8,186.6-186.7,186.6H491.3c-102.9,0-186.6-83.7-186.6-186.6V209.5c0-102.9,83.7-186.6,186.6-186.6h419.8
	c102.9,0,186.6,83.7,186.6,186.6v419.8H1097.8z M961.5,88.4c-37,0-67.2,30.1-67.2,67.2c0,37,30.1,67.2,67.2,67.2
	c37,0,67.2-30.1,67.2-67.2S998.5,88.4,961.5,88.4z"/>
</svg>
