<?xml version="1.0" encoding="utf-8"?>
<!-- Generator: Adobe Illustrator 21.0.2, SVG Export Plug-In . SVG Version: 6.00 Build 0)  -->
<svg version="1.1" id="Lag_1" xmlns="http://www.w3.org/2000/svg" xmlns:xlink="http://www.w3.org/1999/xlink" x="0px" y="0px"
	 viewBox="0 0 262 39.5" style="enable-background:new 0 0 262 39.5;" xml:space="preserve">
<g>
	<path d="M1.8,4.1H9v13.2L21.1,4.1H30L17.2,18.4c1.1,1.5,3.1,4.4,6.1,8.6c3,4.2,5.2,7.3,6.7,9.4h-8.4l-9.4-12.7L9,27.2v9.1H1.8V4.1z
		"/>
	<path d="M41.3,28c1.2,1.5,2.8,2.2,4.8,2.2s3.6-0.7,4.8-2.2c1.2-1.5,1.8-3.5,1.8-6.1V4.1h7.2v18c0,4.7-1.3,8.2-3.9,10.7
		s-5.9,3.7-9.9,3.7c-4,0-7.3-1.3-9.9-3.8c-2.6-2.5-3.9-6.1-3.9-10.7v-18h7.2v17.8C39.5,24.5,40.1,26.5,41.3,28z"/>
	<path d="M91.8,14.8c0,5.2-2,8.5-6.1,10l8.1,11.5H85L77.8,26h-5v10.3h-7.2V4.1h12.2c5,0,8.6,0.8,10.7,2.5
		C90.7,8.4,91.8,11.1,91.8,14.8z M83.1,18.6c0.9-0.8,1.3-2.1,1.3-3.8c0-1.7-0.5-2.9-1.4-3.6c-0.9-0.6-2.5-1-4.8-1h-5.4v9.5h5.2
		C80.6,19.8,82.2,19.4,83.1,18.6z"/>
	<path d="M105,10.6c-0.7,0.6-1,1.3-1,2.3c0,0.9,0.4,1.7,1.3,2.2c0.8,0.6,2.8,1.2,5.8,2c3.1,0.8,5.4,1.9,7.1,3.4
		c1.7,1.5,2.5,3.7,2.5,6.6c0,2.9-1.1,5.2-3.2,7c-2.2,1.8-5,2.7-8.5,2.7c-5.1,0-9.7-1.9-13.8-5.7l4.3-5.2c3.5,3,6.7,4.6,9.6,4.6
		c1.3,0,2.4-0.3,3.1-0.9c0.8-0.6,1.1-1.3,1.1-2.3c0-1-0.4-1.7-1.2-2.3c-0.8-0.6-2.4-1.1-4.7-1.7c-3.7-0.9-6.5-2-8.2-3.5
		c-1.7-1.4-2.6-3.7-2.6-6.7c0-3.1,1.1-5.4,3.3-7.1c2.2-1.7,4.9-2.5,8.2-2.5c2.1,0,4.3,0.4,6.4,1.1c2.1,0.7,4,1.8,5.6,3.1l-3.6,5.2
		c-2.8-2.1-5.7-3.2-8.6-3.2C106.6,9.7,105.7,10,105,10.6z"/>
	<path d="M148.3,4.1v6.4h-16v6.6h14.4v6.1h-14.4v6.7h16.5v6.3h-23.7V4.1H148.3z"/>
	<path d="M179.7,14.8c0,5.2-2,8.5-6.1,10l8.1,11.5h-8.8L165.7,26h-5v10.3h-7.2V4.1h12.2c5,0,8.6,0.8,10.7,2.5
		C178.6,8.4,179.7,11.1,179.7,14.8z M171,18.6c0.9-0.8,1.3-2.1,1.3-3.8c0-1.7-0.5-2.9-1.4-3.6s-2.5-1-4.8-1h-5.4v9.5h5.2
		C168.5,19.8,170.1,19.4,171,18.6z"/>
	<path d="M185.2,35.5c-0.8-0.8-1.2-1.7-1.2-2.9c0-1.1,0.4-2.1,1.2-2.9c0.8-0.8,1.7-1.2,2.9-1.2c1.1,0,2.1,0.4,2.9,1.2
		c0.8,0.8,1.2,1.7,1.2,2.9c0,1.1-0.4,2.1-1.2,2.9c-0.8,0.8-1.7,1.2-2.9,1.2C186.9,36.7,185.9,36.3,185.2,35.5z"/>
	<path d="M221.5,8.4c3.1,2.8,4.6,6.7,4.6,11.7s-1.5,9-4.5,11.9c-3,2.9-7.6,4.4-13.7,4.4h-11V4.1h11.4C214.1,4.1,218.5,5.5,221.5,8.4
		z M216.3,27.5c1.8-1.7,2.6-4.1,2.6-7.2c0-3.2-0.9-5.6-2.6-7.3c-1.8-1.7-4.5-2.6-8.1-2.6h-4v19.5h4.6
		C212,29.9,214.5,29.1,216.3,27.5z"/>
	<path d="M230.7,4.1h7.2v13.2L250,4.1h8.9l-12.8,14.2c1.1,1.5,3.1,4.4,6.1,8.6c3,4.2,5.2,7.3,6.7,9.4h-8.4l-9.4-12.7l-3.2,3.6v9.1
		h-7.2V4.1z"/>
</g>
</svg>
