<?xml version="1.0" encoding="utf-8"?>
<!-- Generator: Adobe Illustrator 18.1.1, SVG Export Plug-In . SVG Version: 6.00 Build 0)  -->
<svg version="1.1" id="Слой_1" xmlns="http://www.w3.org/2000/svg" xmlns:xlink="http://www.w3.org/1999/xlink" x="0px" y="0px"
	 viewBox="385 123.8 627 597" enable-background="new 385 123.8 627 597" xml:space="preserve">
<title>linkedin</title>
<g>
	<linearGradient id="SVGID_1_" gradientUnits="userSpaceOnUse" x1="768.3207" y1="58.7876" x2="477.3207" y2="498.7876">
		<stop  offset="0" style="stop-color:#1569FF"/>
		<stop  offset="1" style="stop-color:#3FD6FF"/>
	</linearGradient>
	<rect x="399.5" y="319.7" fill="url(#SVGID_1_)" width="131.3" height="395"/>
	<linearGradient id="SVGID_2_" gradientUnits="userSpaceOnUse" x1="621.5433" y1="-38.2856" x2="330.5433" y2="401.7144">
		<stop  offset="0" style="stop-color:#1569FF"/>
		<stop  offset="1" style="stop-color:#3FD6FF"/>
	</linearGradient>
	<path fill="url(#SVGID_2_)" d="M465.2,265.8h-0.9c-44.1,0-72.5-30.3-72.5-68.3c0-38.8,29.4-68.3,74.2-68.3
		c45,0,72.6,29.5,73.4,68.3C539.4,235.5,511,265.8,465.2,265.8L465.2,265.8z"/>
	<linearGradient id="SVGID_3_" gradientUnits="userSpaceOnUse" x1="1004.0468" y1="214.6882" x2="713.0468" y2="654.6882">
		<stop  offset="0" style="stop-color:#1569FF"/>
		<stop  offset="1" style="stop-color:#3FD6FF"/>
	</linearGradient>
	<path fill="url(#SVGID_3_)" d="M1004.4,714.7H873V503.4c0-53.1-18.9-89.3-66.4-89.3c-36.4,0-58,24.4-67.5,48
		c-3.4,8.5-4.2,20.3-4.2,32v220.8H603.5c0,0,1.7-358,0-395.1h131.4v55.9c17.4-26.9,48.7-65.2,118.3-65.2
		c86.4,0,151.2,56.5,151.2,177.9L1004.4,714.7L1004.4,714.7z"/>
</g>
</svg>
