<?xml version="1.0" encoding="utf-8"?>
<!-- Generator: Adobe Illustrator 21.1.0, SVG Export Plug-In . SVG Version: 6.00 Build 0)  -->
<svg version="1.1" id="Layer_1" xmlns="http://www.w3.org/2000/svg" xmlns:xlink="http://www.w3.org/1999/xlink" x="0px" y="0px"
	 viewBox="0 0 14 21" style="enable-background:new 0 0 14 21;" xml:space="preserve">
<style type="text/css">
	.st0{fill:url(#SVGID_1_);}
</style>
<g>
	<linearGradient id="SVGID_1_" gradientUnits="userSpaceOnUse" x1="1.0591" y1="10.4983" x2="12.9415" y2="10.4983">
		<stop  offset="0" style="stop-color:#4DF7FC"/>
		<stop  offset="0.5" style="stop-color:#4CC8ED"/>
		<stop  offset="0.6281" style="stop-color:#4CC4EB"/>
		<stop  offset="0.7482" style="stop-color:#4BB9E4"/>
		<stop  offset="0.8653" style="stop-color:#49A6D9"/>
		<stop  offset="0.9799" style="stop-color:#468BC9"/>
		<stop  offset="1" style="stop-color:#4686C6"/>
	</linearGradient>
	<path class="st0" d="M7,20C7,20,7,20,7,20c-0.1-0.2-0.2-0.3-0.3-0.5c-0.4-0.7-0.8-1.3-1.1-2c-0.3-0.6-0.7-1.2-1-1.8
		c-0.3-0.6-0.7-1.2-1-1.8c-0.3-0.6-0.6-1.1-0.9-1.7c-0.2-0.4-0.4-0.8-0.5-1.2C2,10.7,1.8,10.3,1.6,9.8C1.5,9.5,1.4,9.2,1.4,8.9
		c0-0.2-0.1-0.3-0.1-0.5c0-0.2-0.1-0.3-0.1-0.5c0-0.1,0-0.3-0.1-0.4c0-0.3,0-0.5,0-0.8c0-0.1,0-0.2,0-0.4c0-0.1,0-0.3,0.1-0.4
		c0-0.2,0.1-0.5,0.2-0.7C1.4,4.8,1.6,4.4,1.8,4C2,3.7,2.2,3.4,2.4,3.1c0.2-0.2,0.4-0.5,0.6-0.7C3.3,2.3,3.5,2.1,3.7,2
		c0.3-0.2,0.7-0.4,1-0.6C5,1.3,5.3,1.2,5.6,1.2c0.2,0,0.3-0.1,0.5-0.1c0.1,0,0.2,0,0.3,0c0.1,0,0.2,0,0.4,0c0,0,0,0,0.1,0
		C6.9,1,7,1,7.2,1c0.1,0,0.2,0,0.4,0c0.1,0,0.2,0,0.3,0c0.1,0,0.2,0,0.3,0.1c0.2,0,0.3,0.1,0.5,0.1c0.2,0,0.3,0.1,0.5,0.2
		c0.2,0.1,0.4,0.2,0.6,0.3C10,1.8,10.3,2,10.6,2.2c0.2,0.2,0.5,0.4,0.7,0.6c0.2,0.2,0.4,0.5,0.6,0.7C12,3.8,12.2,4,12.3,4.2
		c0.2,0.4,0.3,0.7,0.4,1.1c0.1,0.2,0.1,0.4,0.1,0.6c0,0.1,0,0.2,0.1,0.4c0,0.2,0,0.5,0,0.7c0,0.1,0,0.3,0,0.4c0,0.1,0,0.2,0,0.3
		c0,0.1,0,0.2,0,0.3c0,0.1,0,0.2,0,0.3c0,0.1,0,0.2-0.1,0.3c-0.1,0.3-0.1,0.5-0.2,0.8c-0.1,0.4-0.3,0.7-0.4,1.1
		c-0.2,0.4-0.3,0.8-0.5,1.2c-0.2,0.4-0.4,0.8-0.6,1.2c-0.2,0.5-0.5,1-0.8,1.4c-0.3,0.6-0.7,1.2-1,1.8c-0.4,0.7-0.8,1.3-1.1,2
		C7.8,18.7,7.4,19.3,7,20C7,20,7,20,7,20C7,20,7,20,7,20z M9.4,6.9c0-0.1,0-0.2,0-0.3c0-0.1,0-0.3-0.1-0.4C9.2,5.9,9,5.6,8.8,5.4
		C8.5,5,8.1,4.8,7.7,4.7c-0.1,0-0.3-0.1-0.4-0.1c-0.1,0-0.2,0-0.3,0c-0.1,0-0.1,0-0.2,0c-0.1,0-0.2,0-0.4,0.1C6.2,4.7,6,4.8,5.8,4.9
		C5.4,5.1,5.1,5.4,4.9,5.8c-0.2,0.3-0.3,0.7-0.3,1c0,0.2,0,0.3,0,0.5c0,0.1,0,0.2,0.1,0.3c0.2,0.6,0.5,1,1,1.3
		c0.4,0.3,0.8,0.4,1.3,0.4c0.1,0,0.2,0,0.2,0c0.1,0,0.2,0,0.3,0c0.2,0,0.4-0.1,0.5-0.2c0.3-0.2,0.6-0.4,0.9-0.7
		C9.2,8,9.4,7.5,9.4,6.9z"/>
</g>
</svg>
