<svg xmlns="http://www.w3.org/2000/svg" viewBox="0 0 625 708.7"><defs><style>.cls-1{fill:#000;}</style></defs><title>Passioneaters logo vertikal</title><g id="Lag_2" data-name="Lag 2"><g id="Lag_1-2" data-name="Lag 1"><path class="cls-1" d="M5.7,708.1H0V657.77H22.65q8,0,12.7,4.41T40,674q0,7.45-4.67,11.83t-12.66,4.37H5.7Zm0-44.93v21.66H22.27q5.93,0,9-2.88a11.9,11.9,0,0,0,0-15.89q-3-2.89-9-2.89Z"/><path class="cls-1" d="M89,708.1H82.7l-6.15-14.6H51.61l-6.15,14.6H39.15l21.36-50.33h7.14ZM74.34,688.26,64.08,663.7,53.82,688.26Z"/><path class="cls-1" d="M101.17,665.49a6.31,6.31,0,0,0-1.94,2.77,10.75,10.75,0,0,0-.49,3.23,4.33,4.33,0,0,0,1.48,3.16,12.15,12.15,0,0,0,3.92,2.43,40.07,40.07,0,0,0,5.55,1.75l6.34,1.56c2.16.53,4.27,1.14,6.35,1.82a23.72,23.72,0,0,1,5.55,2.62q5.4,3.43,5.4,9.35,0,7.08-5.29,10.8t-14.63,3.72q-10.56,0-16.11-4.41-5-3.94-5.63-11.24H97.6a9.34,9.34,0,0,0,5,7.9q4.09,2.35,10.87,2.36,14.13,0,14.14-8.9a5.52,5.52,0,0,0-2.55-4.79,22.9,22.9,0,0,0-6.38-2.88q-3.86-1.14-8.29-2.13a52.21,52.21,0,0,1-8.29-2.55,19.11,19.11,0,0,1-6.38-4.1,9.31,9.31,0,0,1-2.55-6.88,12.39,12.39,0,0,1,4.72-10q4.71-3.87,14.21-3.87t14.82,4.41a13.13,13.13,0,0,1,5.1,9.95h-5.86q-.77-6.22-8.06-8.28a23,23,0,0,0-6.42-.76,20.72,20.72,0,0,0-6.46.87A11.89,11.89,0,0,0,101.17,665.49Z"/><path class="cls-1" d="M147.92,665.49a6.31,6.31,0,0,0-1.94,2.77,10.44,10.44,0,0,0-.49,3.23,4.33,4.33,0,0,0,1.48,3.16,12,12,0,0,0,3.92,2.43,40.34,40.34,0,0,0,5.54,1.75l6.35,1.56q3.22.79,6.35,1.82a23.92,23.92,0,0,1,5.55,2.62q5.4,3.43,5.39,9.35,0,7.08-5.28,10.8t-14.63,3.72q-10.56,0-16.12-4.41-4.93-3.94-5.62-11.24h5.93a9.33,9.33,0,0,0,5,7.9q4.11,2.35,10.87,2.36,14.15,0,14.14-8.9a5.54,5.54,0,0,0-2.54-4.79,22.84,22.84,0,0,0-6.39-2.88q-3.84-1.14-8.28-2.13a51.9,51.9,0,0,1-8.29-2.55,19,19,0,0,1-6.38-4.1,9.31,9.31,0,0,1-2.55-6.88,12.41,12.41,0,0,1,4.71-10q4.71-3.87,14.22-3.87t14.82,4.41a13.12,13.12,0,0,1,5.09,9.95h-5.85q-.77-6.22-8.06-8.28a23,23,0,0,0-6.42-.76,20.72,20.72,0,0,0-6.46.87A11.8,11.8,0,0,0,147.92,665.49Z"/><path class="cls-1" d="M194.59,708.1h-5.7V657.77h5.7Z"/><path class="cls-1" d="M229.25,657.17q11.25,0,18.47,7.52,7.08,7.3,7.07,18.25a25.16,25.16,0,0,1-7.07,18.24q-7.22,7.52-18.47,7.52t-18.47-7.52a27.08,27.08,0,0,1,0-36.49Q218,657.16,229.25,657.17Zm0,46q9,0,14.52-5.85,5.32-5.62,5.32-14.36t-5.32-14.37q-5.55-5.85-14.52-5.86t-14.51,5.86q-5.33,5.63-5.32,14.37t5.32,14.36Q220.28,703.15,229.25,703.15Z"/><path class="cls-1" d="M307.32,657.77V708.1h-6.61l-31.09-42.5v42.5h-5.7V657.77h6.61l31.09,42.34V657.77Z"/><path class="cls-1" d="M364.8,696.92V708.1h-41V657h40.09v11.18H338.07v8.61h22.72v10.81H338.07v9.35Z"/><path class="cls-1" d="M412.05,698.16H390.44l-4,9.94H371.67L394.23,657h14.24l22.65,51.13H416.07Zm-4.23-10.66-6.58-16.36-6.57,16.36Z"/><path class="cls-1" d="M448.5,668.44H432.79V657h45.8v11.47H463V708.1H448.5Z"/><path class="cls-1" d="M495.7,663.25v16.87h28v5.55h-28v17H527v5.48H490V657.77h37v5.48Z"/><path class="cls-1" d="M541.92,708.1h-5.7V657.77h24.09q7.68,0,12.32,4.26t4.63,11.48q0,9.42-7.83,12.85a22,22,0,0,1-4.33,1.44l13.23,20.3h-6.77L559.4,688.79H541.92Zm0-24.71h17.4q8.05,0,11.1-5a9.3,9.3,0,0,0,1.14-4.86,9.4,9.4,0,0,0-3.27-7.56,12.92,12.92,0,0,0-8.66-2.78H541.92Z"/><path class="cls-1" d="M592.85,665.49a6.23,6.23,0,0,0-1.94,2.77,10.45,10.45,0,0,0-.5,3.23,4.34,4.34,0,0,0,1.49,3.16,12,12,0,0,0,3.91,2.43,40.07,40.07,0,0,0,5.55,1.75l6.35,1.56c2.15.53,4.27,1.14,6.34,1.82a23.72,23.72,0,0,1,5.55,2.62q5.4,3.43,5.4,9.35,0,7.08-5.28,10.8t-14.64,3.72q-10.56,0-16.11-4.41-5-3.94-5.63-11.24h5.93a9.34,9.34,0,0,0,5,7.9q4.11,2.35,10.87,2.36,14.15,0,14.14-8.9a5.52,5.52,0,0,0-2.55-4.79,22.9,22.9,0,0,0-6.38-2.88q-3.84-1.14-8.29-2.13a52.09,52.09,0,0,1-8.28-2.55,19.16,19.16,0,0,1-6.39-4.1,9.3,9.3,0,0,1-2.54-6.88,12.38,12.38,0,0,1,4.71-10q4.71-3.87,14.21-3.87t14.82,4.41a13.1,13.1,0,0,1,5.1,9.95h-5.86q-.75-6.22-8.05-8.28a23.07,23.07,0,0,0-6.43-.76,20.72,20.72,0,0,0-6.46.87A11.74,11.74,0,0,0,592.85,665.49Z"/><path class="cls-1" d="M625,316.22v-7.43H580.62V302.4H624.9V295H569.48a17.56,17.56,0,0,0-17.13,13.82H419.58a106.69,106.69,0,0,0-2.6-20l196.56-52.67h0l7.87-2.11-6.75-4.56a67.65,67.65,0,0,0-98,24.92L415.09,281.55a106.52,106.52,0,0,0-8-19.36l115-66.4a17.36,17.36,0,0,0,8.44,5.14,17.6,17.6,0,0,0,4.59.61,17.4,17.4,0,0,0,8.71-2.34l48-27.71-3.72-6.44-38.34,22.14-3.19-5.52L585,159.47,581.28,153l-38.44,22.19-3.19-5.53L578,147.56l-3.71-6.44-48,27.7a17.57,17.57,0,0,0-7.93,20.53l-115,66.41A108,108,0,0,0,391,239.67L460.7,170h0l79.86-79.87-8.13-.57a67.63,67.63,0,0,0-72.38,70.57L385.73,234.4a108.5,108.5,0,0,0-16.5-12.72l66.43-115.06a17.42,17.42,0,0,0,20.52-7.9l27.71-48L477.44,47,455.31,85.35l-5.53-3.19L472,43.73,465.53,40,443.34,78.45l-5.53-3.2L460,36.91l-6.44-3.72-27.71,48a17.58,17.58,0,0,0,3.41,21.74L362.8,218a106.09,106.09,0,0,0-18.9-7.87L396.5,13.77h0l2.11-7.87-7.33,3.57a67.63,67.63,0,0,0-27.4,97.31L336.71,208.17a106.41,106.41,0,0,0-20.49-2.7V72.65A17.56,17.56,0,0,0,330,55.52V.1H322.6V44.38h-6.38V0h-7.43V44.38H302.4V.1H295V55.52a17.56,17.56,0,0,0,13.82,17.13V205.47a106.3,106.3,0,0,0-20.48,2.7L235.69,11.85h0L233.58,4,229,10.73a67.64,67.64,0,0,0,24.92,98l27.17,101.38A105.88,105.88,0,0,0,262.2,218l-66.41-115a17.56,17.56,0,0,0,3.41-21.74l-27.71-48-6.44,3.72,22.14,38.34-5.53,3.19L159.47,40,153,43.72l22.19,38.44-5.53,3.19L147.56,47l-6.44,3.72,27.7,48a17.46,17.46,0,0,0,10.65,8.15,17.68,17.68,0,0,0,4.6.61,17.21,17.21,0,0,0,5.27-.86l66.43,115.06a108.51,108.51,0,0,0-16.49,12.71l-69.71-69.71h0L122.28,117.4,95.47,90.58h0L89.7,84.82,89.13,93a67.67,67.67,0,0,0,67.51,72.48c1,0,2.05,0,3.08-.08L234,239.66a108,108,0,0,0-12.36,16.1l-115-66.41a17.57,17.57,0,0,0-7.92-20.53l-48-27.7L47,147.56l38.34,22.13-3.19,5.53L43.73,153,40,159.47l38.43,22.19-3.19,5.53L36.91,165.05l-3.72,6.44,48,27.71a17.5,17.5,0,0,0,21.72-3.42l115,66.41a105.69,105.69,0,0,0-8,19.35L13.39,228.88h0l-7.87-2.11,3.57,7.33a67.65,67.65,0,0,0,97.33,27.41L208,288.73a107.74,107.74,0,0,0-2.6,20H72.65A17.56,17.56,0,0,0,55.52,295H.1v7.44H44.38v6.38H0v7.43H44.38v6.39H.1V330H55.52a17.56,17.56,0,0,0,17.13-13.82H205.42A106.87,106.87,0,0,0,208.17,337L54.54,378.15,3.6,391.8l6.75,4.56a67.63,67.63,0,0,0,98-24.92l101.77-27.27a106.46,106.46,0,0,0,7.79,18.66l-115,66.38a17.54,17.54,0,0,0-21.74-3.4l-48,27.7L36.91,460l38.34-22.14,3.19,5.53L40,465.53,43.72,472l38.44-22.19,3.19,5.53L47,477.44l3.72,6.44,48-27.7a17.57,17.57,0,0,0,7.92-20.53l115-66.38a108,108,0,0,0,12.72,16.51l-70,70L90.2,529.92l-5.76,5.76,8.13.58c1.6.11,3.2.17,4.8.17A67.64,67.64,0,0,0,165,465.68L239.61,391a107.88,107.88,0,0,0,16.12,12.37l-66.38,115a17.56,17.56,0,0,0-20.53,7.93l-27.7,48,6.44,3.72,22.13-38.34,5.53,3.19L153,581.27l6.44,3.72,22.19-38.43,5.53,3.19-22.14,38.34,6.44,3.72,27.71-48a17.56,17.56,0,0,0-3.41-21.74l66.37-114.94a107,107,0,0,0,19.11,7.94L228.5,612h0l-2.11,7.87,7.33-3.56A67.63,67.63,0,0,0,261.13,519l27.33-102a107.11,107.11,0,0,0,20.32,2.66V552.35A17.56,17.56,0,0,0,295,569.48V624.9h7.44V580.62h6.38V625h7.44V580.62h6.38V624.9H330V569.48a17.56,17.56,0,0,0-13.82-17.13V419.64A107.11,107.11,0,0,0,336.54,417l52.77,196.94h0l2.11,7.87L396,615a67.63,67.63,0,0,0-24.92-98l-27.33-102a107.13,107.13,0,0,0,19.12-7.94l66.36,114.94a17.58,17.58,0,0,0-3.41,21.74l27.71,48,6.44-3.72-22.14-38.34,5.53-3.19L465.53,585l6.44-3.71-22.19-38.44,5.53-3.19L477.44,578l6.45-3.72-27.71-48a17.56,17.56,0,0,0-20.53-7.93l-66.38-115A107.88,107.88,0,0,0,385.39,391l70.05,70.05h0l79.86,79.86.58-8.13a67.64,67.64,0,0,0-70.58-72.38l-74.64-74.65a108,108,0,0,0,12.72-16.51l115,66.38a17.56,17.56,0,0,0,7.93,20.53l48,27.7,3.71-6.44-38.34-22.13,3.19-5.53L581.27,472l3.72-6.44-38.44-22.19,3.2-5.53L588.09,460l3.72-6.44-48-27.7a17.54,17.54,0,0,0-21.74,3.4l-115-66.38a106.68,106.68,0,0,0,7.79-18.65l196.7,52.7h0l7.87,2.11-3.56-7.33a67.64,67.64,0,0,0-97.31-27.4L416.84,337a107.65,107.65,0,0,0,2.75-20.77H552.35A17.56,17.56,0,0,0,569.48,330H624.9V322.6H580.62v-6.38Zm-63.85-89a60.27,60.27,0,0,1,41.78,3.94l-76,20.37A60.2,60.2,0,0,1,561.15,227.27Zm-31.15-52,3.21-1.85,10.1,17.5-3.21,1.85a10.1,10.1,0,0,1-10.1-17.5ZM451.59,91.79,449.74,95a10.1,10.1,0,0,1-17.49-10.1l1.84-3.21Zm-88.91-37A60.23,60.23,0,0,1,387,20.53l-20.36,76A60.22,60.22,0,0,1,362.68,54.75ZM251.2,98.45a60.23,60.23,0,0,1-20.37-76L243.92,71.3Zm-69.8,1.24A10.06,10.06,0,0,1,175.26,95l-1.85-3.21,17.5-10.1,1.85,3.21A10.09,10.09,0,0,1,181.4,99.69ZM98.69,189.06a10.11,10.11,0,0,1-13.79,3.7l-3.21-1.85,10.1-17.5L95,175.26a10.13,10.13,0,0,1,3.69,13.8ZM54.37,262.7a60.19,60.19,0,0,1-34.22-24.31l76,20.37A60.21,60.21,0,0,1,54.37,262.7Zm1.15,59.9h-3.7V302.4h3.7a10.1,10.1,0,0,1,0,20.2Zm8.34,75.89a60.26,60.26,0,0,1-41.79-3.94l76-20.36A60.21,60.21,0,0,1,63.86,398.49ZM95,449.74l-3.21,1.85L81.69,434.1l3.21-1.85A10.1,10.1,0,0,1,95,449.74Zm78.41,83.47,1.85-3.21a10.1,10.1,0,0,1,17.5,10.1l-1.85,3.21ZM262.32,571A60.25,60.25,0,0,1,238,605.24l20.37-76A60.24,60.24,0,0,1,262.32,571Zm135.79-9.5h0a60.21,60.21,0,0,1-3.94,41.79l-20.36-76A60.19,60.19,0,0,1,398.11,561.52Zm45.49-36.2a10,10,0,0,1,6.14,4.68l1.85,3.21-17.5,10.1-1.84-3.21a10.1,10.1,0,0,1,3.69-13.79A10,10,0,0,1,443.6,525.32Zm82.71-89.38a10.12,10.12,0,0,1,13.79-3.69l3.21,1.85-10.1,17.49L530,449.74a10.16,10.16,0,0,1-3.69-13.8Zm44.33-72.88a60.3,60.3,0,0,1,34.22,24.31l-76-20.36A60.24,60.24,0,0,1,570.64,363.06ZM485,114.42h0a60.23,60.23,0,0,1,38.16-17.48l-55.63,55.63A60.17,60.17,0,0,1,485,114.42ZM302.4,55.52v-3.7h20.2v3.7a10.1,10.1,0,0,1-20.2,0ZM114,140.36A60.28,60.28,0,0,1,96.56,102.2l55.63,55.63A60.27,60.27,0,0,1,114,140.36Zm43.41,332.83a60.22,60.22,0,0,1-55.63,55.63ZM322.6,569.48v3.7H302.4v-3.7a10.1,10.1,0,0,1,20.2,0ZM511,485.41a60.19,60.19,0,0,1,17.49,38.16l-55.64-55.63A60.12,60.12,0,0,1,511,485.41ZM312.5,412.3a99.74,99.74,0,1,1,99.74-99.74A99.86,99.86,0,0,1,312.5,412.3Zm257-89.7a10.1,10.1,0,0,1,0-20.2h3.7v20.2Z"/></g></g></svg>