<?xml version="1.0" encoding="utf-8"?>
<!-- Generator: Adobe Illustrator 18.1.1, SVG Export Plug-In . SVG Version: 6.00 Build 0)  -->
<svg version="1.1" id="Layer_1" xmlns="http://www.w3.org/2000/svg" xmlns:xlink="http://www.w3.org/1999/xlink" x="0px" y="0px"
	 viewBox="0 0 595.3 841.9" enable-background="new 0 0 595.3 841.9" xml:space="preserve">
<g>
	<path fill="#FFFFFF" d="M472.5,712.4c9.2,0,15.3,0,21.5,0c12.3-3.1,21.5-6.1,30.7-12.3c12.3-6.1,24.5-15.3,33.8-24.5
		c12.3-12.3,21.5-27.6,30.7-46c3.1-9.2,6.1-18.4,6.1-30.7c0-3.1,0-6.1-3.1-9.2c-3.1-3.1-6.1-6.1-9.2-9.2
		c-9.2-9.2-18.4-18.4-27.6-24.5c-12.3-9.2-24.5-18.4-36.8-27.6c-15.3-9.2-27.6-18.4-43-27.6c-9.2-6.1-21.5-12.3-33.8-15.3
		c-6.1-3.1-9.2-3.1-15.3-3.1s-15.3,3.1-21.5,6.1c-6.1,3.1-12.3,6.1-18.4,9.2c-6.1,3.1-12.3,6.1-18.4,9.2c-6.1,3.1-12.3,3.1-18.4,3.1
		c-3.1,0-6.1,0-9.2,0c-3.1,0-6.1-3.1-9.2-6.1c-6.1-3.1-12.3-9.2-18.4-12.3c-12.3-9.2-21.5-18.4-33.8-27.6
		c-18.4-18.4-36.8-33.8-52.2-55.2c0-9.2-9.2-18.4-15.3-27.6c-3.1-3.1-3.1-9.2-6.1-12.3c-3.1-3.1-3.1-9.2-3.1-12.3
		c0-6.1,3.1-9.2,3.1-15.3c3.1-6.1,6.1-9.2,9.2-15.3s6.1-9.2,9.2-15.3c3.1-6.1,6.1-12.3,6.1-18.4c0-3.1,0-9.2,0-12.3s0-3.1-3.1-6.1
		c-3.1-9.2-9.2-18.4-12.3-27.6c-9.2-18.4-21.5-36.8-30.7-52.2c-9.2-12.3-18.4-24.5-27.6-33.8c-6.1-9.2-12.3-15.3-21.5-21.5
		c-3.1-3.1-6.1-6.1-9.2-6.1c-3.1-3.1-6.1-3.1-12.3-3.1c0,0-3.1,0-6.1,0c-6.1,0-15.3,3.1-21.5,6.1c-6.1,6.1-15.3,12.3-24.5,18.4
		c-15.3,9.2-27.6,21.5-39.9,36.8c-6.1,9.2-12.3,21.5-18.4,30.7c0,6.1-3.1,15.3-3.1,21.5c0,9.2,0,18.4,3.1,30.7s6.1,27.6,9.2,39.9
		c6.1,15.3,12.3,30.7,21.5,46c9.2,15.3,18.4,30.7,27.6,46c12.3,18.4,24.5,33.8,36.8,49.1c12.3,18.4,27.6,33.8,43,49.1
		c15.3,18.4,33.8,33.8,52.2,52.2c18.4,18.4,39.9,36.8,61.4,52.2c21.5,15.3,39.9,30.7,61.4,43c15.3,9.2,33.8,18.4,49.1,27.6
		c9.2,3.1,18.4,9.2,24.5,12.3c6.1,3.1,15.3,6.1,21.5,9.2c9.2,3.1,18.4,6.1,27.6,9.2C451.1,709.4,463.3,712.4,472.5,712.4z"/>
</g>
</svg>
