<?xml version="1.0" encoding="utf-8"?>
<!-- Generator: Adobe Illustrator 21.1.0, SVG Export Plug-In . SVG Version: 6.00 Build 0)  -->
<svg version="1.1" id="Layer_1" xmlns="http://www.w3.org/2000/svg" xmlns:xlink="http://www.w3.org/1999/xlink" x="0px" y="0px"
	 viewBox="0 0 19.4 19" style="enable-background:new 0 0 19.4 19;" xml:space="preserve">
<style type="text/css">
	.st0{fill:#FFFFFF;}
</style>
<g>
	<path class="st0" d="M15.4,19c0.3,0,0.5,0,0.7,0c0.4-0.1,0.7-0.2,1-0.4c0.4-0.2,0.8-0.5,1.1-0.8c0.4-0.4,0.7-0.9,1-1.5
		c0.1-0.3,0.2-0.6,0.2-1c0-0.1,0-0.2-0.1-0.3c-0.1-0.1-0.2-0.2-0.3-0.3c-0.3-0.3-0.6-0.6-0.9-0.8c-0.4-0.3-0.8-0.6-1.2-0.9
		c-0.5-0.3-0.9-0.6-1.4-0.9c-0.3-0.2-0.7-0.4-1.1-0.5c-0.2-0.1-0.3-0.1-0.5-0.1c-0.2,0-0.5,0.1-0.7,0.2c-0.2,0.1-0.4,0.2-0.6,0.3
		c-0.2,0.1-0.4,0.2-0.6,0.3c-0.2,0.1-0.4,0.1-0.6,0.1c-0.1,0-0.2,0-0.3,0c-0.1,0-0.2-0.1-0.3-0.2c-0.2-0.1-0.4-0.3-0.6-0.4
		c-0.4-0.3-0.7-0.6-1.1-0.9c-0.6-0.6-1.2-1.1-1.7-1.8C7.4,8.8,7.1,8.5,6.9,8.2C6.8,8.1,6.8,7.9,6.7,7.8C6.6,7.7,6.6,7.5,6.6,7.4
		c0-0.2,0.1-0.3,0.1-0.5C6.8,6.7,6.9,6.6,7,6.4c0.1-0.2,0.2-0.3,0.3-0.5c0.1-0.2,0.2-0.4,0.2-0.6c0-0.1,0-0.3,0-0.4
		c0-0.1,0-0.1-0.1-0.2C7.3,4.4,7.1,4.1,7,3.8c-0.3-0.6-0.7-1.2-1-1.7C5.7,1.7,5.4,1.3,5.1,1C4.9,0.7,4.7,0.5,4.4,0.3
		C4.3,0.2,4.2,0.1,4.1,0.1C4,0,3.9,0,3.7,0C3.7,0,3.6,0,3.5,0c-0.2,0-0.5,0.1-0.7,0.2C2.6,0.4,2.3,0.6,2,0.8C1.5,1.1,1.1,1.5,0.7,2
		C0.5,2.3,0.3,2.7,0.1,3C0.1,3.2,0,3.5,0,3.7c0,0.3,0,0.6,0.1,1c0.1,0.4,0.2,0.9,0.3,1.3c0.2,0.5,0.4,1,0.7,1.5C1.4,8,1.7,8.5,2,9
		c0.4,0.6,0.8,1.1,1.2,1.6c0.4,0.6,0.9,1.1,1.4,1.6c0.5,0.6,1.1,1.1,1.7,1.7c0.6,0.6,1.3,1.2,2,1.7c0.7,0.5,1.3,1,2,1.4
		c0.5,0.3,1.1,0.6,1.6,0.9c0.3,0.1,0.6,0.3,0.8,0.4c0.2,0.1,0.5,0.2,0.7,0.3c0.3,0.1,0.6,0.2,0.9,0.3C14.7,18.9,15.1,19,15.4,19z"/>
</g>
</svg>
