<?xml version="1.0" encoding="utf-8"?>
<!-- Generator: Adobe Illustrator 21.0.2, SVG Export Plug-In . SVG Version: 6.00 Build 0)  -->
<svg version="1.1" id="Layer_1" xmlns="http://www.w3.org/2000/svg" xmlns:xlink="http://www.w3.org/1999/xlink" x="0px" y="0px"
	 viewBox="0 0 50 1821" style="enable-background:new 0 0 50 1821;" xml:space="preserve">
<style type="text/css">
	.st0{fill:none;stroke:url(#SVGID_1_);stroke-width:2;stroke-miterlimit:10;}
	.st1{fill:none;stroke:url(#SVGID_2_);stroke-width:2;stroke-miterlimit:10;}
	.st2{fill:#FFFFFF;stroke:url(#SVGID_3_);stroke-width:2;stroke-miterlimit:10;}
</style>
<g>
	<linearGradient id="SVGID_1_" gradientUnits="userSpaceOnUse" x1="26.0001" y1="1436.9661" x2="26.0001" y2="382.3212">
		<stop  offset="0" style="stop-color:#1FA2FF"/>
		<stop  offset="0.5" style="stop-color:#00C6FF"/>
		<stop  offset="1" style="stop-color:#00D2FF"/>
	</linearGradient>
	<path class="st0" d="M39.8,653.5c0,7.7-6.3,14-14,14s-14-6.3-14-14s6.3-14,14-14S39.8,645.8,39.8,653.5z M26.2,895.6
		c-7.7,0-14,6.3-14,14c0,7.7,6.3,14,14,14s14-6.3,14-14C40.2,901.9,33.9,895.6,26.2,895.6z M40.2,1165.8c0,7.7-6.3,14-14,14
		s-14-6.3-14-14c0-7.7,6.3-14,14-14S40.2,1158.1,40.2,1165.8z M40.2,1422c0,7.7-6.3,14-14,14s-14-6.3-14-14c0-7.7,6.3-14,14-14
		S40.2,1414.2,40.2,1422z M40.2,397.3c0,7.7-6.3,14-14,14s-14-6.3-14-14c0-7.7,6.3-14,14-14S40.2,389.6,40.2,397.3z M26,923v205.5
		v6.7v11.8v-5.2v10.2 M26,1180v9.8v176.2v42.1 M26,411v218.5v9.5 M26,895v-1.5V667"/>
	<linearGradient id="SVGID_2_" gradientUnits="userSpaceOnUse" x1="26.0001" y1="1808" x2="26.0001" y2="1436">
		<stop  offset="0" style="stop-color:#FFFFFF;stop-opacity:0"/>
		<stop  offset="1" style="stop-color:#1FA2FF"/>
	</linearGradient>
	<line class="st1" x1="26" y1="1436" x2="26" y2="1808"/>
	<linearGradient id="SVGID_3_" gradientUnits="userSpaceOnUse" x1="26.0001" y1="12" x2="26.0001" y2="383">
		<stop  offset="0" style="stop-color:#1FA2FF;stop-opacity:0"/>
		<stop  offset="1" style="stop-color:#00D2FF"/>
	</linearGradient>
	<line class="st2" x1="26" y1="383" x2="26" y2="12"/>
</g>
</svg>
