<?xml version="1.0" encoding="utf-8"?>
<!-- Generator: Adobe Illustrator 18.1.1, SVG Export Plug-In . SVG Version: 6.00 Build 0)  -->
<svg version="1.1" id="Слой_1" xmlns="http://www.w3.org/2000/svg" xmlns:xlink="http://www.w3.org/1999/xlink" x="0px" y="0px"
	 viewBox="202 -80.1 1000 1000" enable-background="new 202 -80.1 1000 1000" xml:space="preserve">
<title>twitter</title>
<linearGradient id="SVGID_1_" gradientUnits="userSpaceOnUse" x1="1159.1682" y1="44.3878" x2="232.1682" y2="600.3878">
	<stop  offset="0" style="stop-color:#1569FF"/>
	<stop  offset="1" style="stop-color:#3FD6FF"/>
</linearGradient>
<path fill="url(#SVGID_1_)" d="M1139.5,148.4c-32.2,14.3-66.8,23.9-103.1,28.3c37.1-22.2,65.5-57.4,78.9-99.3
	c-34.7,20.6-73.2,35.5-114,43.6c-32.7-34.9-79.4-56.7-131-56.7c-99.2,0-179.6,80.3-179.6,179.5c0,14.1,1.6,27.8,4.6,40.9
	c-149.2-7.5-281.5-78.9-370-187.6c-15.4,26.5-24.3,57.4-24.3,90.3c0,62.3,31.7,117.2,79.8,149.4c-29.4-0.9-57.1-9-81.3-22.5v2.3
	c0,87,61.9,159.5,144,176c-15,4.1-30.9,6.3-47.3,6.3c-11.6,0-22.8-1.1-33.7-3.2c22.8,71.3,89.1,123.2,167.6,124.7
	c-61.4,48.1-138.7,76.8-222.9,76.8c-14.5,0-28.7-0.8-42.8-2.5c79.5,50.9,173.8,80.6,275.2,80.6c330.2,0,510.8-273.5,510.8-510.7
	c0-7.8-0.2-15.5-0.5-23.2C1085,216,1115.5,184.4,1139.5,148.4L1139.5,148.4z"/>
</svg>
